<svg width="68" height="87" viewBox="0 0 68 87" fill="none" xmlns="http://www.w3.org/2000/svg">
<path fill-rule="evenodd" clip-rule="evenodd" d="M0.5 85V87H66.38V67.292H29.0016C29.5832 65.9407 30.2597 64.8349 31.014 63.95C32.2994 62.5372 34.5595 60.8884 37.9604 59.0328L49.96 52.6171L49.9656 52.6141C55.5497 49.6764 59.8513 46.006 62.753 41.5568C65.6635 37.0939 67.094 31.9561 67.094 26.214C67.094 18.2299 64.2597 11.7964 58.4994 7.1673C52.7939 2.50252 45.0321 0.294983 35.463 0.294983C25.6293 0.294983 17.5285 3.07481 11.3719 8.80349C5.27573 14.4706 2.285 22.0122 2.285 31.212V33.212H7.97833H25.92V31.212C25.92 26.9503 26.858 24.0289 28.4295 22.1416C30.0486 20.2127 32.3397 19.17 35.582 19.17C38.0681 19.17 39.8516 19.9239 41.1577 21.2894L41.1884 21.3215L41.2206 21.3523C42.586 22.6584 43.34 24.4419 43.34 26.928C43.34 27.3288 43.3215 27.7229 43.284 28.1104C42.9231 31.8393 40.8035 34.9517 36.4955 37.4544C36.1734 37.6415 35.839 37.8252 35.4923 38.0056L22.5195 44.7895L22.5172 44.7907C14.7897 48.8193 9.10325 54.0321 5.62141 60.4836C4.83939 61.9147 4.14959 63.4412 3.55018 65.0615C1.49231 70.6242 0.5 77.2922 0.5 85ZM26.895 20.859C28.9577 18.3997 31.8533 17.17 35.582 17.17C38.5173 17.17 40.8577 18.0823 42.603 19.907C44.0996 21.3385 44.9824 23.1702 45.2515 25.4023C45.3105 25.8916 45.34 26.4002 45.34 26.928C45.34 32.402 42.365 36.686 36.415 39.78L33.82 41.137L23.444 46.563C15.9867 50.4503 10.6317 55.4087 7.379 61.438C4.3516 66.9759 2.73307 74.1632 2.5234 83C2.51366 83.4106 2.50696 83.8248 2.5033 84.2426C2.5011 84.4938 2.5 84.7462 2.5 85H64.38V69.292H26.181C26.3816 68.5898 26.6025 67.9231 26.8438 67.292C27.5564 65.4273 28.4461 63.8727 29.513 62.628C31.0203 60.962 33.5193 59.177 37.01 57.273L49.029 50.847C59.739 45.2143 65.094 37.0033 65.094 26.214C65.094 18.7959 62.5035 12.987 57.3224 8.78744L57.24 8.72099C56.6153 8.20986 55.9618 7.72923 55.2795 7.27909C50.2431 3.95635 43.6376 2.29498 35.463 2.29498C27.0067 2.29498 20.0462 4.42734 14.5815 8.69206C13.9454 9.18848 13.3296 9.71379 12.734 10.268C12.0885 10.868 11.48 11.491 10.9085 12.1369C6.87982 16.6897 4.68896 22.3814 4.33588 29.212C4.30196 29.8681 4.285 30.5348 4.285 31.212H8.25639H23.92C23.92 26.69 24.9117 23.239 26.895 20.859Z" fill="#8AA4EB"/>
</svg>
