<svg width="1em" height="1em" viewBox="0 0 60 61" fill="none" xmlns="http://www.w3.org/2000/svg">
<path d="M12 56.6252V55.6252C12 49.6313 12.9746 44.7038 15.0008 40.9117C17.0351 37.0564 20.3638 33.9292 24.9092 31.5057C24.9094 31.5056 24.9096 31.5055 24.9098 31.5054L32.5759 27.4053L32.578 27.4042C35.8483 25.6649 37.3232 23.3747 37.3232 20.5173C37.3232 18.9606 36.8585 17.8216 36.006 16.9876L35.9901 16.972L35.975 16.9558C35.1612 16.0856 34.0586 15.618 32.5551 15.618C30.602 15.618 29.1945 16.2623 28.1943 17.4813C27.2229 18.6744 26.6616 20.4993 26.6616 23.1073V24.1073H25.6616H14.0551H13.0551V23.1073C13.0551 17.6022 14.8021 13.1038 18.36 9.72101L12 56.6252ZM12 56.6252H13H49.5779H50.5779V55.6252V46.1288V45.1288H49.5779H28.3802M12 56.6252L28.3802 45.1288M28.3802 45.1288C28.7572 44.1573 29.2097 43.3709 29.7255 42.7527C30.5066 41.8737 31.8648 40.8641 33.8827 39.738C33.884 39.7373 33.8852 39.7366 33.8864 39.736L40.9775 35.8584C40.9786 35.8579 40.9797 35.8573 40.9808 35.8567C44.262 34.0912 46.7769 31.8922 48.4691 29.2384C50.1651 26.5788 51 23.5163 51 20.0857C51 15.3222 49.3505 11.4974 45.9958 8.74037C42.6655 5.95533 38.1198 4.62524 32.4848 4.62524C26.7017 4.62524 21.9583 6.29661 18.3604 9.72065L28.3802 45.1288Z" stroke="#8AA4EB" stroke-width="1.5"/>
</svg>
