<svg width="1em" height="1em" viewBox="0 0 60 61" fill="none" xmlns="http://www.w3.org/2000/svg">
<path d="M15.2555 51.507L15.2609 51.5117C18.8314 54.6354 23.8531 56.1252 30.1782 56.1252C35.9897 56.1252 40.7666 54.7491 44.4115 51.8989L44.4129 51.8978C48.1212 48.9875 50 45.1543 50 40.4774C50 37.2653 49.0544 34.5129 47.1206 32.2905C45.8708 30.8176 44.3079 29.7115 42.4557 28.9592C44.1797 28.1545 45.5986 27.1143 46.6829 25.8204C48.345 23.8371 49.1445 21.3492 49.1445 18.4351C49.1445 14.0456 47.4118 10.5063 43.9687 7.91752C40.5623 5.3563 36.0999 4.12524 30.6773 4.12524C24.7698 4.12524 19.9786 5.54915 16.4202 8.51166C12.849 11.4848 11.0694 15.4599 11.0694 20.3365V21.3365H12.0694H23.4765H24.4765V20.3365C24.4765 18.4278 25.0276 17.0735 26.0189 16.132L26.026 16.1253L26.0329 16.1184C27.0402 15.1235 28.4519 14.5759 30.3921 14.5759C32.0629 14.5759 33.3098 15.0163 34.2298 15.8114C35.1294 16.5889 35.5947 17.6163 35.5947 18.9985C35.5947 20.7478 35.09 21.891 34.2343 22.6219C33.3483 23.3785 31.913 23.8436 29.7505 23.8436H24.8311H23.8311V24.8436V33.5759V34.5759H24.8311H29.6792C32.1063 34.5759 33.7402 35.0893 34.7573 35.9437C35.7411 36.7701 36.3077 38.0526 36.3077 39.9844C36.3077 41.6068 35.7669 42.8233 34.723 43.74L34.7159 43.7462L34.709 43.7525C33.7004 44.6721 32.2992 45.1816 30.3921 45.1816C28.1119 45.1816 26.4693 44.5595 25.3262 43.434C24.236 42.3148 23.621 40.653 23.621 38.2943V37.2943H22.621H11H10V38.2943C10 43.9077 11.7139 48.3636 15.2555 51.507Z" stroke="#8AA4EB" stroke-width="2"/>
</svg>
