<svg height="1em" viewBox="0 0 68 89" fill="none" xmlns="http://www.w3.org/2000/svg">
<path fill-rule="evenodd" clip-rule="evenodd" d="M8.87958 80.6044L8.87426 80.5997C2.88014 75.2136 0 67.5933 0 58.049V56.049H23.397V58.049C23.397 61.9862 24.4102 64.7087 26.1557 66.5242C27.987 68.3482 30.6322 69.377 34.368 69.377C37.4839 69.377 39.7326 68.5365 41.3414 67.0514L41.3552 67.0387L41.3693 67.0262C43.0356 65.545 43.911 63.5756 43.911 60.905C43.911 57.696 42.9829 55.6258 41.432 54.3068C39.8191 52.935 37.1861 52.076 33.178 52.076H23.086V33.32H33.297C36.8623 33.32 39.1628 32.5431 40.5569 31.3378C41.8954 30.1806 42.721 28.345 42.721 25.443C42.721 23.1799 41.9726 21.5307 40.548 20.2842C39.0853 19.0043 37.0902 18.28 34.368 18.28C31.2022 18.28 28.9401 19.1814 27.3332 20.7882L27.3194 20.8021L27.3052 20.8157C25.7272 22.333 24.825 24.5348 24.825 27.704V29.704H1.785V27.704C1.785 19.387 4.78688 12.5819 10.8261 7.49175C16.8422 2.421 24.9264 0 34.844 0C43.9485 0 51.4773 2.0931 57.2374 6.47759C63.0686 10.9163 65.999 16.9888 65.999 24.491C65.999 29.4686 64.6493 33.7438 61.8209 37.1606C60.1052 39.2332 57.9015 40.9222 55.2567 42.2565C58.1243 43.5362 60.5678 45.3477 62.5489 47.7108C65.8307 51.5299 67.427 56.2523 67.427 61.738C67.427 69.7277 64.2516 76.2933 57.9842 81.2729L57.9814 81.2751C51.8233 86.1503 43.7677 88.49 34.011 88.49C23.3996 88.49 14.9252 85.9591 8.88493 80.6092L8.87958 80.6044ZM61.024 49.005C58.8737 46.4366 56.0938 44.5653 52.6844 43.391C51.5654 43.0056 50.3786 42.6952 49.124 42.46C50.3664 42.1121 51.531 41.7138 52.6178 41.2651C60.2053 38.132 63.999 32.5407 63.999 24.491C63.999 17.589 61.3413 12.115 56.026 8.069C50.7107 4.023 43.65 2 34.844 2C25.2447 2 17.6683 4.34033 12.115 9.021C7.04627 13.2932 4.29075 18.8542 3.84843 25.704C3.80614 26.3589 3.785 27.0256 3.785 27.704H22.825C22.825 24.134 23.8563 21.3573 25.919 19.374C27.9817 17.3113 30.798 16.28 34.368 16.28C37.462 16.28 39.961 17.113 41.865 18.779C43.769 20.445 44.721 22.6663 44.721 25.443C44.721 32.0277 40.913 35.32 33.297 35.32H25.086V50.076H33.178C41.6667 50.076 45.911 53.6857 45.911 60.905C45.911 64.0783 44.84 66.617 42.698 68.521C40.6353 70.425 37.8587 71.377 34.368 71.377C30.2427 71.377 27.0297 70.2267 24.729 67.926C22.5077 65.6253 21.397 62.333 21.397 58.049H2C2 58.7273 2.01513 59.394 2.04539 60.049C2.4221 68.2047 5.14397 74.559 10.211 79.112C15.7643 84.0307 23.6977 86.49 34.011 86.49C43.4517 86.49 51.028 84.229 56.74 79.707C62.5313 75.1057 65.427 69.116 65.427 61.738C65.427 56.6607 63.9593 52.4163 61.024 49.005Z" fill="#8AA4EB"/>
</svg>
