<svg viewBox="0 0 100 100" fill="none" xmlns="http://www.w3.org/2000/svg">
<path d="M91.001 6.06877L62.5877 12.9302C62.1687 13.0312 61.7841 13.242 61.4737 13.541C61.1632 13.84 60.938 14.2163 60.8213 14.6313C60.7045 15.0462 60.7004 15.4848 60.8094 15.9018C60.9184 16.3188 61.1366 16.6993 61.4414 17.004L66.5794 22.148L56.5322 32.1947C56.1549 32.5722 55.9126 33.0636 55.8429 33.5928C55.7731 34.122 55.8799 34.6594 56.1466 35.1217C56.4132 35.584 56.825 35.9455 57.3179 36.1501C57.8108 36.3547 58.3575 36.391 58.8731 36.2533L88.2761 28.4119C88.6876 28.3018 89.0628 28.0853 89.3641 27.7841C89.6654 27.483 89.8822 27.1078 89.9926 26.6964C90.103 26.285 90.1032 25.8517 89.9931 25.4402C89.883 25.0286 89.6666 24.6533 89.3655 24.3519L84.2248 19.2066L93.2907 10.1399C93.6645 9.76551 93.9057 9.27921 93.9775 8.75506C94.0494 8.2309 93.9479 7.69764 93.6885 7.23653C93.4292 6.77542 93.0262 6.41174 92.541 6.20092C92.0558 5.9901 91.515 5.94369 91.001 6.06877Z" fill="url(#paint0_linear_3764_6037)"/>
<path d="M48.7178 19.427C49.057 19.0877 49.288 18.6555 49.3815 18.185C49.4751 17.7144 49.4271 17.2267 49.2435 16.7835C49.0599 16.3402 48.749 15.9614 48.3501 15.6949C47.9513 15.4283 47.4823 15.2861 47.0026 15.2861C46.5229 15.2861 46.054 15.4283 45.6551 15.6949C45.2562 15.9614 44.9453 16.3402 44.7617 16.7835C44.5781 17.2267 44.5301 17.7144 44.6237 18.185C44.7172 18.6555 44.9482 19.0877 45.2874 19.427C45.7425 19.8816 46.3594 20.137 47.0026 20.137C47.6458 20.137 48.2627 19.8816 48.7178 19.427Z" fill="url(#paint1_linear_3764_6037)"/>
<path d="M80.5698 51.2818C80.2307 51.6211 79.9997 52.0533 79.9061 52.5238C79.8125 52.9944 79.8606 53.4821 80.0442 53.9253C80.2278 54.3686 80.5386 54.7474 80.9375 55.0139C81.3364 55.2805 81.8053 55.4227 82.285 55.4227C82.7648 55.4227 83.2337 55.2805 83.6326 55.0139C84.0314 54.7474 84.3423 54.3686 84.5259 53.9253C84.7095 53.4821 84.7576 52.9944 84.664 52.5238C84.5704 52.0533 84.3394 51.6211 84.0002 51.2818C83.7751 51.0564 83.5077 50.8775 83.2134 50.7555C82.9191 50.6335 82.6036 50.5707 82.285 50.5707C81.9664 50.5707 81.651 50.6335 81.3567 50.7555C81.0624 50.8775 80.795 51.0564 80.5698 51.2818Z" fill="url(#paint2_linear_3764_6037)"/>
<path d="M55.5786 12.5656C55.9178 12.2263 56.1488 11.7941 56.2423 11.3236C56.3359 10.853 56.2879 10.3653 56.1043 9.92208C55.9207 9.47885 55.6098 9.10001 55.2109 8.83348C54.812 8.56695 54.3431 8.42469 53.8634 8.42469C53.3837 8.42469 52.9147 8.56695 52.5159 8.83348C52.117 9.10001 51.8061 9.47885 51.6225 9.92208C51.4389 10.3653 51.3909 10.853 51.4845 11.3236C51.578 11.7941 51.809 12.2263 52.1482 12.5656C52.3734 12.7909 52.6408 12.9696 52.9351 13.0915C53.2294 13.2134 53.5448 13.2762 53.8634 13.2762C54.1819 13.2762 54.4974 13.2134 54.7917 13.0915C55.086 12.9696 55.3534 12.7909 55.5786 12.5656Z" fill="url(#paint3_linear_3764_6037)"/>
<path d="M87.4306 44.4204C87.0913 44.7596 86.8601 45.1918 86.7663 45.6624C86.6726 46.133 86.7205 46.6208 86.9041 47.0642C87.0876 47.5075 87.3985 47.8865 87.7974 48.1531C88.1963 48.4197 88.6653 48.562 89.1451 48.562C89.6249 48.562 90.094 48.4197 90.4929 48.1531C90.8918 47.8865 91.2027 47.5075 91.3862 47.0642C91.5697 46.6208 91.6177 46.133 91.5239 45.6624C91.4302 45.1918 91.199 44.7596 90.8596 44.4204C90.6345 44.1952 90.3672 44.0165 90.0731 43.8946C89.7789 43.7727 89.4636 43.71 89.1451 43.71C88.8267 43.71 88.5114 43.7727 88.2172 43.8946C87.923 44.0165 87.6558 44.1952 87.4306 44.4204Z" fill="url(#paint4_linear_3764_6037)"/>
<path d="M45.372 33.0652C45.8265 32.6101 46.0819 31.9931 46.0819 31.3498C46.0819 30.7066 45.8265 30.0896 45.372 29.6345L37.2859 21.5492C37.0609 21.3238 36.7937 21.1449 36.4995 21.0229C36.2053 20.9009 35.8899 20.8381 35.5714 20.8381C35.253 20.8381 34.9376 20.9009 34.6434 21.0229C34.3492 21.1449 34.082 21.3238 33.8569 21.5492L27.7307 27.6745L39.2472 39.1975L45.372 33.0652Z" fill="url(#paint5_linear_3764_6037)"/>
<path d="M48.3117 73.2507C45.4525 76.11 41.5747 77.7164 37.5313 77.7164C33.4878 77.7164 29.61 76.11 26.7508 73.2507C23.8918 70.3913 22.2856 66.5131 22.2856 62.4693C22.2856 58.4256 23.8918 54.5474 26.7508 51.6879L35.8168 42.6212L24.3003 31.1052L15.2358 40.1678C12.3077 43.0959 9.985 46.5722 8.40031 50.3981C6.81563 54.2241 6 58.3247 6 62.4659C6 66.607 6.81563 70.7077 8.40031 74.5336C9.985 78.3595 12.3077 81.8358 15.2358 84.764C21.1492 90.6777 29.1693 94 37.532 94C45.8946 94 53.9148 90.6777 59.8281 84.764L68.894 75.6973L57.3776 64.1854L48.3117 73.2507Z" fill="url(#paint6_linear_3764_6037)"/>
<path d="M70.3646 54.6279C69.9098 54.1734 69.2931 53.9181 68.6501 53.9181C68.0071 53.9181 67.3904 54.1734 66.9356 54.6279L60.8094 60.7547L72.3258 72.2707L78.4506 66.1454C78.9052 65.6903 79.1606 65.0733 79.1606 64.43C79.1606 63.7867 78.9052 63.1698 78.4506 62.7147L70.3646 54.6279Z" fill="url(#paint7_linear_3764_6037)"/>
<defs>
<linearGradient id="paint0_linear_3764_6037" x1="50" y1="6" x2="50" y2="94" gradientUnits="userSpaceOnUse">
<stop stop-color="#6861EC"/>
<stop offset="1" stop-color="#7870F4"/>
</linearGradient>
<linearGradient id="paint1_linear_3764_6037" x1="50" y1="6" x2="50" y2="94" gradientUnits="userSpaceOnUse">
<stop stop-color="#6861EC"/>
<stop offset="1" stop-color="#7870F4"/>
</linearGradient>
<linearGradient id="paint2_linear_3764_6037" x1="50" y1="6" x2="50" y2="94" gradientUnits="userSpaceOnUse">
<stop stop-color="#6861EC"/>
<stop offset="1" stop-color="#7870F4"/>
</linearGradient>
<linearGradient id="paint3_linear_3764_6037" x1="50" y1="6" x2="50" y2="94" gradientUnits="userSpaceOnUse">
<stop stop-color="#6861EC"/>
<stop offset="1" stop-color="#7870F4"/>
</linearGradient>
<linearGradient id="paint4_linear_3764_6037" x1="50" y1="6" x2="50" y2="94" gradientUnits="userSpaceOnUse">
<stop stop-color="#6861EC"/>
<stop offset="1" stop-color="#7870F4"/>
</linearGradient>
<linearGradient id="paint5_linear_3764_6037" x1="50" y1="6" x2="50" y2="94" gradientUnits="userSpaceOnUse">
<stop stop-color="#6861EC"/>
<stop offset="1" stop-color="#7870F4"/>
</linearGradient>
<linearGradient id="paint6_linear_3764_6037" x1="50" y1="6" x2="50" y2="94" gradientUnits="userSpaceOnUse">
<stop stop-color="#6861EC"/>
<stop offset="1" stop-color="#7870F4"/>
</linearGradient>
<linearGradient id="paint7_linear_3764_6037" x1="50" y1="6" x2="50" y2="94" gradientUnits="userSpaceOnUse">
<stop stop-color="#6861EC"/>
<stop offset="1" stop-color="#7870F4"/>
</linearGradient>
</defs>
</svg>
