<svg viewBox="0 0 100 100" fill="none" xmlns="http://www.w3.org/2000/svg">
<path d="M59.6583 37.5C59.0458 37.5 58.4333 37.3208 57.9 36.9583L50 31.5833L42.1 36.9583C41.0292 37.6917 39.6125 37.6833 38.55 36.9333C37.4875 36.1917 36.9917 34.8667 37.3125 33.6042L39.8 23.8L32.3458 17.4375C31.375 16.6042 31.0042 15.2708 31.4167 14.0625C31.825 12.85 32.925 12.0125 34.2 11.9375L43.6375 11.4042L47.0708 2.05C47.5167 0.816667 48.6917 0 50 0C51.3083 0 52.4833 0.816667 52.9333 2.05L56.3667 11.4042L65.8042 11.9375C67.0792 12.0125 68.1792 12.85 68.5875 14.0625C68.9958 15.2708 68.6292 16.6042 67.6583 17.4375L60.2042 23.8042L62.6917 33.6083C63.0125 34.8708 62.5167 36.1917 61.4542 36.9375C60.9125 37.3125 60.2833 37.5 59.6583 37.5Z" fill="url(#paint0_linear_3764_6034)"/>
<path d="M96.875 79.1667H77.0833V96.875C77.0833 97.9583 76.875 99.0417 76.5417 100H96.875C98.5833 100 100 98.5833 100 96.875V82.2917C100 80.5833 98.5833 79.1667 96.875 79.1667Z" fill="url(#paint1_linear_3764_6034)"/>
<path d="M22.9167 70.8333H3.125C1.41667 70.8333 0 72.25 0 73.9583V96.875C0 98.5833 1.41667 100 3.125 100H23.4583C23.125 99.0417 22.9167 97.9583 22.9167 96.875V70.8333Z" fill="url(#paint2_linear_3764_6034)"/>
<path d="M67.7083 45.8333H32.2917C30.5667 45.8333 29.1667 47.2333 29.1667 48.9583V96.875C29.1667 98.6 30.5667 100 32.2917 100H67.7083C69.4333 100 70.8333 98.6 70.8333 96.875V48.9583C70.8333 47.2333 69.4333 45.8333 67.7083 45.8333Z" fill="url(#paint3_linear_3764_6034)"/>
<defs>
<linearGradient id="paint0_linear_3764_6034" x1="50" y1="0" x2="50" y2="100" gradientUnits="userSpaceOnUse">
<stop stop-color="#6861EC"/>
<stop offset="1" stop-color="#7870F4"/>
</linearGradient>
<linearGradient id="paint1_linear_3764_6034" x1="50" y1="0" x2="50" y2="100" gradientUnits="userSpaceOnUse">
<stop stop-color="#6861EC"/>
<stop offset="1" stop-color="#7870F4"/>
</linearGradient>
<linearGradient id="paint2_linear_3764_6034" x1="50" y1="0" x2="50" y2="100" gradientUnits="userSpaceOnUse">
<stop stop-color="#6861EC"/>
<stop offset="1" stop-color="#7870F4"/>
</linearGradient>
<linearGradient id="paint3_linear_3764_6034" x1="50" y1="0" x2="50" y2="100" gradientUnits="userSpaceOnUse">
<stop stop-color="#6861EC"/>
<stop offset="1" stop-color="#7870F4"/>
</linearGradient>
</defs>
</svg>
