<svg  viewBox="0 0 100 100" fill="none" xmlns="http://www.w3.org/2000/svg">
<path d="M66.3988 46.8432V40.4838H75.43C76.7113 40.4838 77.8363 39.765 78.3363 38.5932C78.8519 37.4213 78.6332 36.1244 77.7582 35.1869L49.3207 4.5152C47.5035 2.48817 44.1029 2.50176 42.2738 4.51504L13.8363 35.1868C11.9483 37.0986 13.484 40.5921 16.1799 40.4838H25.2111V79.5463C25.2111 81.2807 26.633 82.7025 28.383 82.7025H39.6957C32.6836 65.2196 47.5346 45.0682 66.3988 46.8432Z" fill="url(#paint0_linear_3764_6041)"/>
<path d="M64.555 49.89C51.6332 49.89 41.1175 60.4057 41.1175 73.3275C42.4072 104.42 86.7075 104.411 87.9925 73.3274C87.9925 60.4057 77.4769 49.89 64.555 49.89ZM51.2738 65.515C51.4629 58.3038 62.0233 58.3052 62.2113 65.5152C62.0222 72.7263 51.4618 72.7249 51.2738 65.515ZM56.2738 83.8119C54.8216 85.2377 52.6325 83.0468 54.0707 81.5932L72.8205 62.8433C74.2627 61.4066 76.4907 63.6179 75.0236 65.0621L56.2738 83.8119ZM72.3675 86.6088C65.1563 86.4197 65.1577 75.8591 72.3677 75.6713C79.5788 75.8602 79.5774 86.4208 72.3675 86.6088Z" fill="url(#paint1_linear_3764_6041)"/>
<path d="M59.0863 65.515C59.0261 62.4333 54.4482 62.436 54.3988 65.5152C54.4486 68.5944 59.0265 68.5963 59.0863 65.515Z" fill="url(#paint2_linear_3764_6041)"/>
<path d="M72.3675 78.7963C69.286 78.8455 69.2865 83.4349 72.3677 83.4838C75.4458 83.4261 75.4454 78.8533 72.3675 78.7963Z" fill="url(#paint3_linear_3764_6041)"/>
<defs>
<linearGradient id="paint0_linear_3764_6041" x1="50.4963" y1="3" x2="50.4963" y2="96.6436" gradientUnits="userSpaceOnUse">
<stop stop-color="#6861EC"/>
<stop offset="1" stop-color="#7870F4"/>
</linearGradient>
<linearGradient id="paint1_linear_3764_6041" x1="50.4963" y1="3" x2="50.4963" y2="96.6436" gradientUnits="userSpaceOnUse">
<stop stop-color="#6861EC"/>
<stop offset="1" stop-color="#7870F4"/>
</linearGradient>
<linearGradient id="paint2_linear_3764_6041" x1="50.4963" y1="3" x2="50.4963" y2="96.6436" gradientUnits="userSpaceOnUse">
<stop stop-color="#6861EC"/>
<stop offset="1" stop-color="#7870F4"/>
</linearGradient>
<linearGradient id="paint3_linear_3764_6041" x1="50.4963" y1="3" x2="50.4963" y2="96.6436" gradientUnits="userSpaceOnUse">
<stop stop-color="#6861EC"/>
<stop offset="1" stop-color="#7870F4"/>
</linearGradient>
</defs>
</svg>
