<svg viewBox="0 0 218 130" fill="none" xmlns="http://www.w3.org/2000/svg">
<rect width="218" height="130" rx="9" fill="url(#paint0_linear_8536_112741)" fill-opacity="0.15"/>
<path d="M0 9C0 4.02944 4.02944 0 9 0H209C213.971 0 218 4.02944 218 9V13H0V9Z" fill="url(#paint1_linear_8536_112741)" fill-opacity="0.15"/>
<path d="M16 41.5C16 37.9101 18.9101 35 22.5 35H87.5C91.0899 35 94 37.9101 94 41.5C94 45.0899 91.0899 48 87.5 48H22.5C18.9101 48 16 45.0899 16 41.5Z" fill="url(#paint2_linear_8536_112741)" fill-opacity="0.15"/>
<path d="M16 65C16 63.8954 16.8954 63 18 63H77C78.1046 63 79 63.8954 79 65C79 66.1046 78.1046 67 77 67H18C16.8954 67 16 66.1046 16 65Z" fill="url(#paint3_linear_8536_112741)" fill-opacity="0.15"/>
<path d="M16 78C16 76.8954 16.8954 76 18 76H77C78.1046 76 79 76.8954 79 78C79 79.1046 78.1046 80 77 80H18C16.8954 80 16 79.1046 16 78Z" fill="url(#paint4_linear_8536_112741)" fill-opacity="0.15"/>
<path d="M16 91C16 89.8954 16.8954 89 18 89H77C78.1046 89 79 89.8954 79 91C79 92.1046 78.1046 93 77 93H18C16.8954 93 16 92.1046 16 91Z" fill="url(#paint5_linear_8536_112741)" fill-opacity="0.15"/>
<path d="M16 104C16 102.895 16.8954 102 18 102H58C59.1046 102 60 102.895 60 104C60 105.105 59.1046 106 58 106H18C16.8954 106 16 105.105 16 104Z" fill="url(#paint6_linear_8536_112741)" fill-opacity="0.15"/>
<rect x="153" y="22" width="56" height="98" rx="4" fill="#4552C2" fill-opacity="0.15"/>
<path d="M153 26C153 23.7909 154.791 22 157 22H205C207.209 22 209 23.7909 209 26V28H153V26Z" fill="url(#paint7_linear_8536_112741)" fill-opacity="0.15"/>
<rect x="161" y="30" width="38" height="10" rx="2" fill="url(#paint8_linear_8536_112741)" fill-opacity="0.15"/>
<rect x="161" y="42" width="44" height="10" rx="2" fill="url(#paint9_linear_8536_112741)" fill-opacity="0.15"/>
<rect x="161" y="54" width="30" height="8" rx="2" fill="url(#paint10_linear_8536_112741)" fill-opacity="0.15"/>
<rect x="161" y="64" width="40" height="10" rx="2" fill="url(#paint11_linear_8536_112741)" fill-opacity="0.15"/>
<rect x="161" y="76" width="40" height="10" rx="2" fill="url(#paint12_linear_8536_112741)" fill-opacity="0.15"/>
<rect x="161" y="100" width="40" height="10" rx="2" fill="url(#paint13_linear_8536_112741)" fill-opacity="0.15"/>
<rect x="155" y="112" width="52" height="6" rx="3" fill="url(#paint14_linear_8536_112741)" fill-opacity="0.15"/>
<rect x="167" y="88" width="40" height="10" rx="2" fill="url(#paint15_linear_8536_112741)" fill-opacity="0.4"/>
<rect x="155" y="30" width="5" height="5" rx="2.5" fill="url(#paint16_linear_8536_112741)" fill-opacity="0.15"/>
<rect x="155" y="42" width="5" height="5" rx="2.5" fill="url(#paint17_linear_8536_112741)" fill-opacity="0.15"/>
<rect x="155" y="54" width="5" height="5" rx="2.5" fill="url(#paint18_linear_8536_112741)" fill-opacity="0.15"/>
<rect x="155" y="64" width="5" height="5" rx="2.5" fill="url(#paint19_linear_8536_112741)" fill-opacity="0.15"/>
<rect x="155" y="76" width="5" height="5" rx="2.5" fill="url(#paint20_linear_8536_112741)" fill-opacity="0.15"/>
<rect x="155" y="100" width="5" height="5" rx="2.5" fill="url(#paint21_linear_8536_112741)" fill-opacity="0.15"/>
<path d="M146 21.8125L150.817 19.8179L152.812 15.0001L154.946 19.8179L159.625 21.8125L154.946 23.9469L152.812 28.6249L150.817 23.9469L146 21.8125Z" fill="#87B3EF"/>
<path d="M205 119.513L207.484 118.484L208.513 116L209.613 118.484L212.026 119.513L209.613 120.613L208.513 123.026L207.484 120.613L205 119.513Z" fill="#87B3EF"/>
<defs>
<linearGradient id="paint0_linear_8536_112741" x1="17" y1="-2.64704e-06" x2="224" y2="130" gradientUnits="userSpaceOnUse">
<stop stop-color="white"/>
<stop offset="1" stop-color="white" stop-opacity="0.31"/>
</linearGradient>
<linearGradient id="paint1_linear_8536_112741" x1="17" y1="-2.64704e-07" x2="24.1374" y2="44.8243" gradientUnits="userSpaceOnUse">
<stop stop-color="white"/>
<stop offset="1" stop-color="white" stop-opacity="0.31"/>
</linearGradient>
<linearGradient id="paint2_linear_8536_112741" x1="22.0826" y1="35" x2="39.1552" y2="73.3629" gradientUnits="userSpaceOnUse">
<stop stop-color="white"/>
<stop offset="1" stop-color="white" stop-opacity="0.31"/>
</linearGradient>
<linearGradient id="paint3_linear_8536_112741" x1="20.9128" y1="63" x2="23.2434" y2="76.7467" gradientUnits="userSpaceOnUse">
<stop stop-color="white"/>
<stop offset="1" stop-color="white" stop-opacity="0.31"/>
</linearGradient>
<linearGradient id="paint4_linear_8536_112741" x1="20.9128" y1="76" x2="23.2434" y2="89.7467" gradientUnits="userSpaceOnUse">
<stop stop-color="white"/>
<stop offset="1" stop-color="white" stop-opacity="0.31"/>
</linearGradient>
<linearGradient id="paint5_linear_8536_112741" x1="20.9128" y1="89" x2="23.2434" y2="102.747" gradientUnits="userSpaceOnUse">
<stop stop-color="white"/>
<stop offset="1" stop-color="white" stop-opacity="0.31"/>
</linearGradient>
<linearGradient id="paint6_linear_8536_112741" x1="19.4312" y1="102" x2="22.673" y2="115.355" gradientUnits="userSpaceOnUse">
<stop stop-color="white"/>
<stop offset="1" stop-color="white" stop-opacity="0.31"/>
</linearGradient>
<linearGradient id="paint7_linear_8536_112741" x1="157.367" y1="22" x2="162.977" y2="41.6078" gradientUnits="userSpaceOnUse">
<stop stop-color="white"/>
<stop offset="1" stop-color="white" stop-opacity="0.31"/>
</linearGradient>
<linearGradient id="paint8_linear_8536_112741" x1="163.963" y1="30" x2="180.594" y2="53.6681" gradientUnits="userSpaceOnUse">
<stop stop-color="white"/>
<stop offset="1" stop-color="white" stop-opacity="0.31"/>
</linearGradient>
<linearGradient id="paint9_linear_8536_112741" x1="164.431" y1="42" x2="180.112" y2="67.8386" gradientUnits="userSpaceOnUse">
<stop stop-color="white"/>
<stop offset="1" stop-color="white" stop-opacity="0.31"/>
</linearGradient>
<linearGradient id="paint10_linear_8536_112741" x1="163.339" y1="54" x2="176.703" y2="72.768" gradientUnits="userSpaceOnUse">
<stop stop-color="white"/>
<stop offset="1" stop-color="white" stop-opacity="0.31"/>
</linearGradient>
<linearGradient id="paint11_linear_8536_112741" x1="164.119" y1="64" x2="180.445" y2="88.4563" gradientUnits="userSpaceOnUse">
<stop stop-color="white"/>
<stop offset="1" stop-color="white" stop-opacity="0.31"/>
</linearGradient>
<linearGradient id="paint12_linear_8536_112741" x1="164.119" y1="76" x2="180.445" y2="100.456" gradientUnits="userSpaceOnUse">
<stop stop-color="white"/>
<stop offset="1" stop-color="white" stop-opacity="0.31"/>
</linearGradient>
<linearGradient id="paint13_linear_8536_112741" x1="164.119" y1="100" x2="180.445" y2="124.456" gradientUnits="userSpaceOnUse">
<stop stop-color="white"/>
<stop offset="1" stop-color="white" stop-opacity="0.31"/>
</linearGradient>
<linearGradient id="paint14_linear_8536_112741" x1="159.055" y1="112" x2="165.024" y2="131.374" gradientUnits="userSpaceOnUse">
<stop stop-color="white"/>
<stop offset="1" stop-color="white" stop-opacity="0.31"/>
</linearGradient>
<linearGradient id="paint15_linear_8536_112741" x1="170.119" y1="88" x2="186.445" y2="112.456" gradientUnits="userSpaceOnUse">
<stop stop-color="#BFA8FF"/>
<stop offset="1" stop-color="#9A77FD" stop-opacity="0.85"/>
</linearGradient>
<linearGradient id="paint16_linear_8536_112741" x1="155.39" y1="30" x2="161.196" y2="32.1744" gradientUnits="userSpaceOnUse">
<stop stop-color="white"/>
<stop offset="1" stop-color="white" stop-opacity="0.31"/>
</linearGradient>
<linearGradient id="paint17_linear_8536_112741" x1="155.39" y1="42" x2="161.196" y2="44.1744" gradientUnits="userSpaceOnUse">
<stop stop-color="white"/>
<stop offset="1" stop-color="white" stop-opacity="0.31"/>
</linearGradient>
<linearGradient id="paint18_linear_8536_112741" x1="155.39" y1="54" x2="161.196" y2="56.1744" gradientUnits="userSpaceOnUse">
<stop stop-color="white"/>
<stop offset="1" stop-color="white" stop-opacity="0.31"/>
</linearGradient>
<linearGradient id="paint19_linear_8536_112741" x1="155.39" y1="64" x2="161.196" y2="66.1744" gradientUnits="userSpaceOnUse">
<stop stop-color="white"/>
<stop offset="1" stop-color="white" stop-opacity="0.31"/>
</linearGradient>
<linearGradient id="paint20_linear_8536_112741" x1="155.39" y1="76" x2="161.196" y2="78.1744" gradientUnits="userSpaceOnUse">
<stop stop-color="white"/>
<stop offset="1" stop-color="white" stop-opacity="0.31"/>
</linearGradient>
<linearGradient id="paint21_linear_8536_112741" x1="155.39" y1="100" x2="161.196" y2="102.174" gradientUnits="userSpaceOnUse">
<stop stop-color="white"/>
<stop offset="1" stop-color="white" stop-opacity="0.31"/>
</linearGradient>
</defs>
</svg>
