<svg viewBox="0 0 62 82" fill="none" xmlns="http://www.w3.org/2000/svg">
<g clip-path="url(#clip0_2414_5686)">
<path d="M0 11C0 4.92487 4.92487 0 11 0H51C57.0751 0 62 4.92487 62 11V99C62 105.075 57.0751 110 51 110H11C4.92487 110 0 105.075 0 99V11Z" fill="#E2E8F0" fill-opacity="0.5"/>
<path fill-rule="evenodd" clip-rule="evenodd" d="M51 1.4H11C5.69807 1.4 1.4 5.69807 1.4 11V99C1.4 104.302 5.69807 108.6 11 108.6H51C56.3019 108.6 60.6 104.302 60.6 99V11C60.6 5.69807 56.3019 1.4 51 1.4ZM11 0C4.92487 0 0 4.92487 0 11V99C0 105.075 4.92487 110 11 110H51C57.0751 110 62 105.075 62 99V11C62 4.92487 57.0751 0 51 0H11Z" fill="#94A3B8"/>
<path d="M22 7C22 5.34315 23.3431 4 25 4H37C38.6569 4 40 5.34315 40 7C40 8.65685 38.6569 10 37 10H25C23.3431 10 22 8.65685 22 7Z" fill="#94A3B8"/>
<path d="M9 45C9 43.8954 9.89543 43 11 43H26C27.1046 43 28 43.8954 28 45C28 46.1046 27.1046 47 26 47H11C9.89543 47 9 46.1046 9 45Z" fill="#CBD5E1"/>
<path d="M31 45C31 43.8954 31.8954 43 33 43H48C49.1046 43 50 43.8954 50 45C50 46.1046 49.1046 47 48 47H33C31.8954 47 31 46.1046 31 45Z" fill="#CBD5E1"/>
<path d="M9 52C9 50.8954 9.89543 50 11 50H23C24.1046 50 25 50.8954 25 52C25 53.1046 24.1046 54 23 54H11C9.89543 54 9 53.1046 9 52Z" fill="#CBD5E1"/>
<path d="M28 52C28 50.8954 28.8954 50 30 50H41C42.1046 50 43 50.8954 43 52C43 53.1046 42.1046 54 41 54H30C28.8954 54 28 53.1046 28 52Z" fill="#CBD5E1"/>
<path d="M9 59C9 57.8954 9.89543 57 11 57H26C27.1046 57 28 57.8954 28 59C28 60.1046 27.1046 61 26 61H11C9.89543 61 9 60.1046 9 59Z" fill="#CBD5E1"/>
<path d="M31 59C31 57.8954 31.8954 57 33 57H52C53.1046 57 54 57.8954 54 59C54 60.1046 53.1046 61 52 61H33C31.8954 61 31 60.1046 31 59Z" fill="#CBD5E1"/>
<path fill-rule="evenodd" clip-rule="evenodd" d="M24.5 33.4C26.1016 33.4 27.4 32.1016 27.4 30.5C27.4 28.8984 26.1016 27.6 24.5 27.6C22.8984 27.6 21.6 28.8984 21.6 30.5C21.6 32.1016 22.8984 33.4 24.5 33.4ZM24.5 35C26.9853 35 29 32.9853 29 30.5C29 28.0147 26.9853 26 24.5 26C22.0147 26 20 28.0147 20 30.5C20 32.9853 22.0147 35 24.5 35Z" fill="#94A3B8"/>
<path fill-rule="evenodd" clip-rule="evenodd" d="M35.2 31.3H28V30.5V29.7H41.5C41.9418 29.7 42.3 30.0582 42.3 30.5C42.3 30.9418 41.9418 31.3 41.5 31.3H40.3V34C40.3 34.4418 39.9418 34.8 39.5 34.8C39.0582 34.8 38.7 34.4418 38.7 34V31.3H36.8V33C36.8 33.4418 36.4418 33.8 36 33.8C35.5582 33.8 35.2 33.4418 35.2 33V31.3Z" fill="#94A3B8"/>
</g>
<defs>
<clipPath id="clip0_2414_5686">
<rect width="62" height="99" fill="white"/>
</clipPath>
</defs>
</svg>
