<svg viewBox="0 0 330 135" fill="none" xmlns="http://www.w3.org/2000/svg">
<g clip-path="url(#clip0_1876_10990)">
<rect x="0.5" y="0.5" width="329" height="134" rx="15.5" fill="#334155" fill-opacity="0.4" stroke="#475569"/>
<g filter="url(#filter0_d_1876_10990)">
<rect x="37" y="39" width="138" height="57" rx="8" fill="#334155"/>
</g>
<rect x="91" y="53" width="72" height="6" rx="3" fill="#64748B"/>
<rect x="91" y="64" width="53" height="6" rx="3" fill="#64748B"/>
<rect x="91" y="75" width="64" height="6" rx="3" fill="#64748B"/>
<g filter="url(#filter1_d_1876_10990)">
<rect x="216" y="29" width="76" height="76" rx="8" fill="#334155"/>
</g>
<rect x="226" y="39" width="56" height="56" rx="8" fill="#475569"/>
<g clip-path="url(#clip1_1876_10990)">
<path d="M268.902 60.4562C267.44 58.9941 265.061 58.9941 263.599 60.4562L254.225 69.8305C252.675 71.3808 251.709 73.3597 251.438 75.4999H250.287C249.771 74.0449 248.381 72.9999 246.751 72.9999C244.683 72.9999 243.001 74.6822 243.001 76.7499C243.001 77.4403 243.56 77.9999 244.251 77.9999C244.941 77.9999 245.501 77.4403 245.501 76.7499C245.501 76.0607 246.062 75.4999 246.751 75.4999C247.44 75.4999 248.001 76.0607 248.001 76.7499C248.001 77.4403 248.56 77.9999 249.251 77.9999H252.609C255.223 77.9999 257.68 76.982 259.528 75.1338C260.067 74.5949 268.367 66.2954 268.903 65.7594C270.365 64.2974 270.365 61.9183 268.902 60.4562ZM257.76 73.3661C256.715 74.4111 255.409 75.0995 253.988 75.3704C254.259 73.9499 254.948 72.6434 255.993 71.5984L261.447 66.1434L263.215 67.9112L257.76 73.3661ZM267.135 63.9917L264.983 66.1434L263.215 64.3755L265.367 62.2239C265.854 61.7365 266.647 61.7365 267.135 62.2239C267.623 62.7124 267.623 63.5031 267.135 63.9917Z" fill="#94A3B8"/>
<path d="M261.751 76.9459C261.061 76.9459 260.501 77.5055 260.501 78.1959V79.25C260.501 79.9393 259.94 80.5 259.251 80.5H241.751C241.062 80.5 240.501 79.9393 240.501 79.25V54.75C240.501 54.0608 241.062 53.5 241.751 53.5H255.716C256.05 53.5 256.363 53.6301 256.6 53.8661L260.135 57.4017C260.286 57.5522 260.396 57.7402 260.454 57.9452C260.642 58.6094 261.333 58.9955 261.997 58.8074C262.661 58.6194 263.048 57.9285 262.859 57.2642C262.685 56.6494 262.355 56.0856 261.903 55.6339L258.367 52.0984C257.659 51.3901 256.717 51 255.716 51H241.751C239.683 51 238.001 52.6823 238.001 54.75V79.25C238.001 81.3177 239.683 83 241.751 83H259.251C261.319 83 263.001 81.3177 263.001 79.25V78.1959C263.001 77.5055 262.442 76.9459 261.751 76.9459Z" fill="#94A3B8"/>
<path d="M251.751 61H244.251C243.56 61 243.001 60.4404 243.001 59.75C243.001 59.0596 243.56 58.5 244.251 58.5H251.751C252.441 58.5 253.001 59.0596 253.001 59.75C253.001 60.4404 252.441 61 251.751 61Z" fill="#94A3B8"/>
<path d="M251.751 66H244.251C243.56 66 243.001 65.4404 243.001 64.75C243.001 64.0596 243.56 63.5 244.251 63.5H251.751C252.441 63.5 253.001 64.0596 253.001 64.75C253.001 65.4404 252.441 66 251.751 66Z" fill="#94A3B8"/>
</g>
<rect x="47" y="48" width="38" height="38" rx="6" fill="#64748B"/>
<path d="M175 67.5H216" stroke="url(#paint0_linear_1876_10990)"/>
</g>
<defs>
<filter id="filter0_d_1876_10990" x="14.1" y="20.1" width="183.8" height="102.8" filterUnits="userSpaceOnUse" color-interpolation-filters="sRGB">
<feFlood flood-opacity="0" result="BackgroundImageFix"/>
<feColorMatrix in="SourceAlpha" type="matrix" values="0 0 0 0 0 0 0 0 0 0 0 0 0 0 0 0 0 0 127 0" result="hardAlpha"/>
<feOffset dy="4"/>
<feGaussianBlur stdDeviation="11.45"/>
<feComposite in2="hardAlpha" operator="out"/>
<feColorMatrix type="matrix" values="0 0 0 0 0 0 0 0 0 0 0 0 0 0 0 0 0 0 0.1 0"/>
<feBlend mode="normal" in2="BackgroundImageFix" result="effect1_dropShadow_1876_10990"/>
<feBlend mode="normal" in="SourceGraphic" in2="effect1_dropShadow_1876_10990" result="shape"/>
</filter>
<filter id="filter1_d_1876_10990" x="193.1" y="10.1" width="121.8" height="121.8" filterUnits="userSpaceOnUse" color-interpolation-filters="sRGB">
<feFlood flood-opacity="0" result="BackgroundImageFix"/>
<feColorMatrix in="SourceAlpha" type="matrix" values="0 0 0 0 0 0 0 0 0 0 0 0 0 0 0 0 0 0 127 0" result="hardAlpha"/>
<feOffset dy="4"/>
<feGaussianBlur stdDeviation="11.45"/>
<feComposite in2="hardAlpha" operator="out"/>
<feColorMatrix type="matrix" values="0 0 0 0 0 0 0 0 0 0 0 0 0 0 0 0 0 0 0.1 0"/>
<feBlend mode="normal" in2="BackgroundImageFix" result="effect1_dropShadow_1876_10990"/>
<feBlend mode="normal" in="SourceGraphic" in2="effect1_dropShadow_1876_10990" result="shape"/>
</filter>
<linearGradient id="paint0_linear_1876_10990" x1="217" y1="67" x2="175" y2="67" gradientUnits="userSpaceOnUse">
<stop stop-color="#CBD5E1" stop-opacity="0.54"/>
<stop offset="1" stop-color="#CBD5E1" stop-opacity="0"/>
</linearGradient>
<clipPath id="clip0_1876_10990">
<rect width="330" height="135" fill="white"/>
</clipPath>
<clipPath id="clip1_1876_10990">
<rect width="32" height="32" fill="white" transform="translate(238 51)"/>
</clipPath>
</defs>
</svg>
