<svg viewBox="0 0 330 135" fill="none" xmlns="http://www.w3.org/2000/svg">
<g clip-path="url(#clip0_1125_2962)">
<rect x="0.5" y="0.5" width="329" height="134" rx="15.5" fill="#334155" fill-opacity="0.4" stroke="#475569"/>
<g filter="url(#filter0_d_1125_2962)">
<rect x="37" y="39" width="138" height="57" rx="8" fill="#334155"/>
</g>
<rect x="91" y="53" width="72" height="6" rx="3" fill="#64748B"/>
<rect x="91" y="64" width="53" height="6" rx="3" fill="#64748B"/>
<rect x="91" y="75" width="64" height="6" rx="3" fill="#64748B"/>
<g filter="url(#filter1_d_1125_2962)">
<rect x="216" y="29" width="76" height="76" rx="8" fill="#334155"/>
</g>
<rect x="225" y="39" width="57" height="57" rx="8" fill="#475569"/>
<rect x="47" y="48" width="38" height="38" rx="6" fill="#64748B"/>
<path d="M175 67.5H216" stroke="url(#paint0_linear_1125_2962)"/>
<g clip-path="url(#clip1_1125_2962)">
<path d="M266.718 56.224C266.447 56.224 266.177 56.128 265.961 55.93C262.65 52.912 258.402 51.25 253.998 51.25C249.594 51.25 245.346 52.912 242.036 55.9315C241.575 56.35 240.864 56.3155 240.446 55.858C240.027 55.399 240.06 54.6865 240.519 54.268C244.247 50.8705 249.033 49 253.998 49C258.963 49 263.75 50.8705 267.477 54.268C267.936 54.6865 267.969 55.3975 267.551 55.858C267.329 56.101 267.024 56.224 266.718 56.224Z" fill="#94A3B8"/>
<path d="M268.626 63.5755C268.264 63.5755 267.907 63.4015 267.691 63.0775C264.568 58.4275 259.45 55.651 254.001 55.651C248.551 55.651 243.433 58.4275 240.31 63.0775C239.964 63.595 239.263 63.7315 238.749 63.385C238.233 63.0385 238.095 62.3395 238.441 61.8235C241.983 56.551 247.8 53.4025 254.001 53.4025C260.202 53.4025 266.019 56.551 269.56 61.825C269.907 62.341 269.77 63.04 269.253 63.3865C269.061 63.514 268.843 63.5755 268.626 63.5755Z" fill="#94A3B8"/>
<path d="M250.447 85C250.157 85 249.868 84.889 249.647 84.667C249.401 84.4195 243.637 78.535 243.637 72.8695C243.637 66.9895 248.285 62.206 254 62.206C259.715 62.206 264.364 66.9895 264.364 72.8695C264.364 73.4905 263.86 73.9945 263.239 73.9945C262.618 73.9945 262.114 73.4905 262.114 72.8695C262.114 68.23 258.475 64.456 254 64.456C249.526 64.456 245.887 68.23 245.887 72.8695C245.887 77.62 251.192 83.029 251.246 83.083C251.684 83.524 251.681 84.2365 251.239 84.6745C251.02 84.892 250.733 85 250.447 85Z" fill="#94A3B8"/>
<path d="M257.555 85C254.849 85 248.576 79.852 247.969 74.119C247.754 72.0925 248.399 70.0195 249.692 68.5735C250.817 67.3165 252.336 66.619 253.97 66.61H254.001C255.594 66.61 257.1 67.2355 258.246 68.374C259.443 69.5635 260.102 71.161 260.102 72.871V73.6045C260.102 75.412 261.509 76.882 263.24 76.882C264.971 76.882 266.38 75.412 266.38 73.6045V73.348C266.38 66.343 261.305 60.5155 254.827 60.0835C251.45 59.854 248.208 61.021 245.708 63.358C243.113 65.785 241.625 69.253 241.625 72.871C241.625 75.847 242.633 78.7465 244.463 81.0355C244.85 81.5215 244.772 82.228 244.286 82.6165C243.801 83.005 243.093 82.927 242.705 82.4395C240.558 79.753 239.375 76.354 239.375 72.8695C239.375 68.6305 241.124 64.564 244.17 61.714C247.13 58.945 250.968 57.5665 254.975 57.8365C262.631 58.348 268.63 65.161 268.63 73.3465V73.603C268.63 76.651 266.212 79.1305 263.24 79.1305C260.268 79.1305 257.852 76.651 257.852 73.603V72.8695C257.852 71.7625 257.429 70.7335 256.661 69.9685C255.941 69.2515 254.998 68.8585 254.003 68.8585C253.996 68.8585 253.99 68.8585 253.982 68.8585C252.715 68.8645 251.861 69.523 251.369 70.0735C250.491 71.053 250.056 72.478 250.205 73.882C250.701 78.559 256.076 82.7515 257.555 82.7515C258.176 82.7515 258.68 83.2555 258.68 83.8765C258.68 84.4975 258.176 85 257.555 85Z" fill="#94A3B8"/>
<path d="M261.727 82.7995C257.701 82.7995 252.785 77.8795 252.785 72.136C252.785 71.515 253.289 71.011 253.91 71.011C254.531 71.011 255.035 71.515 255.035 72.136C255.035 76.588 258.778 80.5495 261.727 80.5495C262.348 80.5495 262.852 81.0535 262.852 81.6745C262.852 82.2955 262.348 82.7995 261.727 82.7995Z" fill="#94A3B8"/>
</g>
</g>
<defs>
<filter id="filter0_d_1125_2962" x="14.1" y="20.1" width="183.8" height="102.8" filterUnits="userSpaceOnUse" color-interpolation-filters="sRGB">
<feFlood flood-opacity="0" result="BackgroundImageFix"/>
<feColorMatrix in="SourceAlpha" type="matrix" values="0 0 0 0 0 0 0 0 0 0 0 0 0 0 0 0 0 0 127 0" result="hardAlpha"/>
<feOffset dy="4"/>
<feGaussianBlur stdDeviation="11.45"/>
<feComposite in2="hardAlpha" operator="out"/>
<feColorMatrix type="matrix" values="0 0 0 0 0 0 0 0 0 0 0 0 0 0 0 0 0 0 0.1 0"/>
<feBlend mode="normal" in2="BackgroundImageFix" result="effect1_dropShadow_1125_2962"/>
<feBlend mode="normal" in="SourceGraphic" in2="effect1_dropShadow_1125_2962" result="shape"/>
</filter>
<filter id="filter1_d_1125_2962" x="193.1" y="10.1" width="121.8" height="121.8" filterUnits="userSpaceOnUse" color-interpolation-filters="sRGB">
<feFlood flood-opacity="0" result="BackgroundImageFix"/>
<feColorMatrix in="SourceAlpha" type="matrix" values="0 0 0 0 0 0 0 0 0 0 0 0 0 0 0 0 0 0 127 0" result="hardAlpha"/>
<feOffset dy="4"/>
<feGaussianBlur stdDeviation="11.45"/>
<feComposite in2="hardAlpha" operator="out"/>
<feColorMatrix type="matrix" values="0 0 0 0 0 0 0 0 0 0 0 0 0 0 0 0 0 0 0.1 0"/>
<feBlend mode="normal" in2="BackgroundImageFix" result="effect1_dropShadow_1125_2962"/>
<feBlend mode="normal" in="SourceGraphic" in2="effect1_dropShadow_1125_2962" result="shape"/>
</filter>
<linearGradient id="paint0_linear_1125_2962" x1="217" y1="67" x2="175" y2="67" gradientUnits="userSpaceOnUse">
<stop stop-color="#CBD5E1" stop-opacity="0.54"/>
<stop offset="1" stop-color="#CBD5E1" stop-opacity="0"/>
</linearGradient>
<clipPath id="clip0_1125_2962">
<rect width="330" height="135" fill="white"/>
</clipPath>
<clipPath id="clip1_1125_2962">
<rect width="36" height="36" fill="white" transform="translate(236 49)"/>
</clipPath>
</defs>
</svg>
