<svg xmlns="http://www.w3.org/2000/svg" xmlns:xlink="http://www.w3.org/1999/xlink" viewBox="100 100 200 200" preserveAspectRatio="xMidYMid meet" style="width: 100%; height: 100%; transform: translate3d(0px, 0px, 0px); content-visibility: visible;"><defs><clipPath id="__lottie_element_2"><rect width="400" height="400" x="0" y="0"></rect></clipPath></defs><g clip-path="url(#__lottie_element_2)"><g transform="matrix(0.05382096394896507,-1.0262798070907593,1.0262798070907593,0.05382096394896507,-234.040283203125,626.9835205078125)" opacity="1" style="display: block;"><g opacity="1" transform="matrix(1,0,0,1,400.0509948730469,400.1650085449219)"><path fill="rgb(241,186,78)" fill-opacity="1" d=" M5.822999954223633,5.464000225067139 C5.822999954223633,5.464000225067139 -1.8200000524520874,-7.775000095367432 -1.8200000524520874,-7.775000095367432 C-1.8200000524520874,-7.775000095367432 -5.822999954223633,-5.464000225067139 -5.822999954223633,-5.464000225067139 C-5.822999954223633,-5.464000225067139 1.8209999799728394,7.775000095367432 1.8209999799728394,7.775000095367432 C1.8209999799728394,7.775000095367432 5.822999954223633,5.464000225067139 5.822999954223633,5.464000225067139z"></path></g></g><g transform="matrix(0.05382096394896507,-1.0262798070907593,1.0262798070907593,0.05382096394896507,-234.040283203125,626.9835205078125)" opacity="1" style="display: block;"><g opacity="1" transform="matrix(1,0,0,1,400.0509948730469,400.1650085449219)"><path fill="rgb(241,186,78)" fill-opacity="1" d=" M5.822999954223633,5.464000225067139 C5.822999954223633,5.464000225067139 -1.8200000524520874,-7.775000095367432 -1.8200000524520874,-7.775000095367432 C-1.8200000524520874,-7.775000095367432 -5.822999954223633,-5.464000225067139 -5.822999954223633,-5.464000225067139 C-5.822999954223633,-5.464000225067139 1.8209999799728394,7.775000095367432 1.8209999799728394,7.775000095367432 C1.8209999799728394,7.775000095367432 5.822999954223633,5.464000225067139 5.822999954223633,5.464000225067139z"></path></g></g><g transform="matrix(0.05382096394896507,-1.0262798070907593,1.0262798070907593,0.05382096394896507,-234.040283203125,626.9835205078125)" opacity="1" style="display: block;"><g opacity="1" transform="matrix(1,0,0,1,400.0509948730469,400.1650085449219)"><path fill="rgb(241,186,78)" fill-opacity="1" d=" M5.822999954223633,5.464000225067139 C5.822999954223633,5.464000225067139 -1.8200000524520874,-7.775000095367432 -1.8200000524520874,-7.775000095367432 C-1.8200000524520874,-7.775000095367432 -5.822999954223633,-5.464000225067139 -5.822999954223633,-5.464000225067139 C-5.822999954223633,-5.464000225067139 1.8209999799728394,7.775000095367432 1.8209999799728394,7.775000095367432 C1.8209999799728394,7.775000095367432 5.822999954223633,5.464000225067139 5.822999954223633,5.464000225067139z"></path></g></g><g transform="matrix(0.05382096394896507,-1.0262798070907593,1.0262798070907593,0.05382096394896507,-234.040283203125,626.9835205078125)" opacity="1" style="display: block;"><g opacity="1" transform="matrix(1,0,0,1,400.0509948730469,400.1650085449219)"><path fill="rgb(241,186,78)" fill-opacity="1" d=" M5.822999954223633,5.464000225067139 C5.822999954223633,5.464000225067139 -1.8200000524520874,-7.775000095367432 -1.8200000524520874,-7.775000095367432 C-1.8200000524520874,-7.775000095367432 -5.822999954223633,-5.464000225067139 -5.822999954223633,-5.464000225067139 C-5.822999954223633,-5.464000225067139 1.8209999799728394,7.775000095367432 1.8209999799728394,7.775000095367432 C1.8209999799728394,7.775000095367432 5.822999954223633,5.464000225067139 5.822999954223633,5.464000225067139z"></path></g></g><g transform="matrix(0.1252439171075821,1.0200297832489014,-1.0200297832489014,0.1252439171075821,555.9143676757812,-220.1094970703125)" opacity="1" style="display: block;"><g opacity="1" transform="matrix(1,0,0,1,400.0509948730469,400.1650085449219)"><path fill="rgb(241,186,78)" fill-opacity="1" d=" M5.822999954223633,5.464000225067139 C5.822999954223633,5.464000225067139 -1.8200000524520874,-7.775000095367432 -1.8200000524520874,-7.775000095367432 C-1.8200000524520874,-7.775000095367432 -5.822999954223633,-5.464000225067139 -5.822999954223633,-5.464000225067139 C-5.822999954223633,-5.464000225067139 1.8209999799728394,7.775000095367432 1.8209999799728394,7.775000095367432 C1.8209999799728394,7.775000095367432 5.822999954223633,5.464000225067139 5.822999954223633,5.464000225067139z"></path></g></g><g transform="matrix(-0.6575173735618591,0.7898213267326355,-0.7898213267326355,-0.6575173735618591,776.9354858398438,185.0784149169922)" opacity="1" style="display: block;"><g opacity="1" transform="matrix(1,0,0,1,400.0509948730469,400.1650085449219)"><path fill="rgb(241,186,78)" fill-opacity="1" d=" M5.822999954223633,5.464000225067139 C5.822999954223633,5.464000225067139 -1.8200000524520874,-7.775000095367432 -1.8200000524520874,-7.775000095367432 C-1.8200000524520874,-7.775000095367432 -5.822999954223633,-5.464000225067139 -5.822999954223633,-5.464000225067139 C-5.822999954223633,-5.464000225067139 1.8209999799728394,7.775000095367432 1.8209999799728394,7.775000095367432 C1.8209999799728394,7.775000095367432 5.822999954223633,5.464000225067139 5.822999954223633,5.464000225067139z"></path></g></g><g transform="matrix(0.5598254203796387,0.8618249893188477,-0.8618249893188477,0.5598254203796387,318.7998352050781,-330.66015625)" opacity="1" style="display: block;"><g opacity="1" transform="matrix(1,0,0,1,400.0509948730469,400.1650085449219)"><path fill="rgb(241,186,78)" fill-opacity="1" d=" M5.822999954223633,5.464000225067139 C5.822999954223633,5.464000225067139 -1.8200000524520874,-7.775000095367432 -1.8200000524520874,-7.775000095367432 C-1.8200000524520874,-7.775000095367432 -5.822999954223633,-5.464000225067139 -5.822999954223633,-5.464000225067139 C-5.822999954223633,-5.464000225067139 1.8209999799728394,7.775000095367432 1.8209999799728394,7.775000095367432 C1.8209999799728394,7.775000095367432 5.822999954223633,5.464000225067139 5.822999954223633,5.464000225067139z"></path></g></g><g transform="matrix(0.5598254203796387,0.8618249893188477,-0.8618249893188477,0.5598254203796387,318.7998352050781,-330.66015625)" opacity="1" style="display: block;"><g opacity="1" transform="matrix(1,0,0,1,400.0509948730469,400.1650085449219)"><path fill="rgb(76,102,192)" fill-opacity="1" d=" M5.822999954223633,5.464000225067139 C5.822999954223633,5.464000225067139 -1.8200000524520874,-7.775000095367432 -1.8200000524520874,-7.775000095367432 C-1.8200000524520874,-7.775000095367432 -5.822999954223633,-5.464000225067139 -5.822999954223633,-5.464000225067139 C-5.822999954223633,-5.464000225067139 1.8209999799728394,7.775000095367432 1.8209999799728394,7.775000095367432 C1.8209999799728394,7.775000095367432 5.822999954223633,5.464000225067139 5.822999954223633,5.464000225067139z"></path></g></g><g transform="matrix(-0.6575173735618591,0.7898213267326355,-0.7898213267326355,-0.6575173735618591,776.9354858398438,185.0784149169922)" opacity="1" style="display: block;"><g opacity="1" transform="matrix(1,0,0,1,400.0509948730469,400.1650085449219)"><path fill="rgb(76,102,192)" fill-opacity="1" d=" M5.822999954223633,5.464000225067139 C5.822999954223633,5.464000225067139 -1.8200000524520874,-7.775000095367432 -1.8200000524520874,-7.775000095367432 C-1.8200000524520874,-7.775000095367432 -5.822999954223633,-5.464000225067139 -5.822999954223633,-5.464000225067139 C-5.822999954223633,-5.464000225067139 1.8209999799728394,7.775000095367432 1.8209999799728394,7.775000095367432 C1.8209999799728394,7.775000095367432 5.822999954223633,5.464000225067139 5.822999954223633,5.464000225067139z"></path></g></g><g transform="matrix(0.1252439171075821,1.0200297832489014,-1.0200297832489014,0.1252439171075821,555.9143676757812,-220.1094970703125)" opacity="1" style="display: block;"><g opacity="1" transform="matrix(1,0,0,1,400.0509948730469,400.1650085449219)"><path fill="rgb(76,102,192)" fill-opacity="1" d=" M5.822999954223633,5.464000225067139 C5.822999954223633,5.464000225067139 -1.8200000524520874,-7.775000095367432 -1.8200000524520874,-7.775000095367432 C-1.8200000524520874,-7.775000095367432 -5.822999954223633,-5.464000225067139 -5.822999954223633,-5.464000225067139 C-5.822999954223633,-5.464000225067139 1.8209999799728394,7.775000095367432 1.8209999799728394,7.775000095367432 C1.8209999799728394,7.775000095367432 5.822999954223633,5.464000225067139 5.822999954223633,5.464000225067139z"></path></g></g><g transform="matrix(0.05382096394896507,-1.0262798070907593,1.0262798070907593,0.05382096394896507,-234.040283203125,626.9835205078125)" opacity="1" style="display: block;"><g opacity="1" transform="matrix(1,0,0,1,400.0509948730469,400.1650085449219)"><path fill="rgb(76,102,192)" fill-opacity="1" d=" M5.822999954223633,5.464000225067139 C5.822999954223633,5.464000225067139 -1.8200000524520874,-7.775000095367432 -1.8200000524520874,-7.775000095367432 C-1.8200000524520874,-7.775000095367432 -5.822999954223633,-5.464000225067139 -5.822999954223633,-5.464000225067139 C-5.822999954223633,-5.464000225067139 1.8209999799728394,7.775000095367432 1.8209999799728394,7.775000095367432 C1.8209999799728394,7.775000095367432 5.822999954223633,5.464000225067139 5.822999954223633,5.464000225067139z"></path></g></g><g transform="matrix(0.05382096394896507,-1.0262798070907593,1.0262798070907593,0.05382096394896507,-234.040283203125,626.9835205078125)" opacity="1" style="display: block;"><g opacity="1" transform="matrix(1,0,0,1,400.0509948730469,400.1650085449219)"><path fill="rgb(76,102,192)" fill-opacity="1" d=" M5.822999954223633,5.464000225067139 C5.822999954223633,5.464000225067139 -1.8200000524520874,-7.775000095367432 -1.8200000524520874,-7.775000095367432 C-1.8200000524520874,-7.775000095367432 -5.822999954223633,-5.464000225067139 -5.822999954223633,-5.464000225067139 C-5.822999954223633,-5.464000225067139 1.8209999799728394,7.775000095367432 1.8209999799728394,7.775000095367432 C1.8209999799728394,7.775000095367432 5.822999954223633,5.464000225067139 5.822999954223633,5.464000225067139z"></path></g></g><g transform="matrix(0.05382096394896507,-1.0262798070907593,1.0262798070907593,0.05382096394896507,-234.040283203125,626.9835205078125)" opacity="1" style="display: block;"><g opacity="1" transform="matrix(1,0,0,1,400.0509948730469,400.1650085449219)"><path fill="rgb(76,102,192)" fill-opacity="1" d=" M5.822999954223633,5.464000225067139 C5.822999954223633,5.464000225067139 -1.8200000524520874,-7.775000095367432 -1.8200000524520874,-7.775000095367432 C-1.8200000524520874,-7.775000095367432 -5.822999954223633,-5.464000225067139 -5.822999954223633,-5.464000225067139 C-5.822999954223633,-5.464000225067139 1.8209999799728394,7.775000095367432 1.8209999799728394,7.775000095367432 C1.8209999799728394,7.775000095367432 5.822999954223633,5.464000225067139 5.822999954223633,5.464000225067139z"></path></g></g><g transform="matrix(0.05382096394896507,-1.0262798070907593,1.0262798070907593,0.05382096394896507,-234.040283203125,626.9835205078125)" opacity="1" style="display: block;"><g opacity="1" transform="matrix(1,0,0,1,400.0509948730469,400.1650085449219)"><path fill="rgb(76,102,192)" fill-opacity="1" d=" M5.822999954223633,5.464000225067139 C5.822999954223633,5.464000225067139 -1.8200000524520874,-7.775000095367432 -1.8200000524520874,-7.775000095367432 C-1.8200000524520874,-7.775000095367432 -5.822999954223633,-5.464000225067139 -5.822999954223633,-5.464000225067139 C-5.822999954223633,-5.464000225067139 1.8209999799728394,7.775000095367432 1.8209999799728394,7.775000095367432 C1.8209999799728394,7.775000095367432 5.822999954223633,5.464000225067139 5.822999954223633,5.464000225067139z"></path></g></g><g transform="matrix(1.0276899337768555,0,0,1.0276899337768555,-213.07598876953125,-173.07598876953125)" opacity="1" style="display: block;"><g opacity="1" transform="matrix(1,0,0,1,400.1310119628906,343.7040100097656)"><path fill="rgb(85,122,213)" fill-opacity="1" d=" M-87.76599884033203,0.8539999723434448 C-87.76599884033203,0.8539999723434448 -4.466000080108643,-15.925999641418457 -4.466000080108643,-15.925999641418457 C-4.466000080108643,-15.925999641418457 87.76599884033203,-2.1689999103546143 87.76599884033203,-2.1689999103546143 C87.76599884033203,-2.1689999103546143 15.125,15.927000045776367 15.125,15.927000045776367 C15.125,15.927000045776367 -87.76599884033203,0.8539999723434448 -87.76599884033203,0.8539999723434448z"></path></g><g opacity="1" transform="matrix(1,0,0,1,441.781005859375,388.5360107421875)"><path fill="rgb(43,78,164)" fill-opacity="1" d=" M-46.11600112915039,-60.75899887084961 C-46.11600112915039,-60.75899887084961 -43.75600051879883,47.06399917602539 -43.75600051879883,47.06399917602539 C-43.75600051879883,47.06399917602539 36.4640007019043,60.7599983215332 36.4640007019043,60.7599983215332 C36.4640007019043,60.7599983215332 46.1150016784668,-47.00199890136719 46.1150016784668,-47.00199890136719 C46.1150016784668,-47.00199890136719 -46.11600112915039,-60.75899887084961 -46.11600112915039,-60.75899887084961z"></path></g><g opacity="1" transform="matrix(1,0,0,1,363.80999755859375,408.8030090332031)"><path fill="rgb(67,98,200)" fill-opacity="1" d=" M51.44599914550781,64.24500274658203 C51.44599914550781,64.24500274658203 -39.38199996948242,43.14099884033203 -39.38199996948242,43.14099884033203 C-39.38199996948242,43.14099884033203 -51.44499969482422,-64.24500274658203 -51.44499969482422,-64.24500274658203 C-51.44499969482422,-64.24500274658203 51.44599914550781,-49.17300033569336 51.44599914550781,-49.17300033569336 C51.44599914550781,-49.17300033569336 51.44599914550781,64.24500274658203 51.44599914550781,64.24500274658203z"></path></g><g opacity="1" transform="matrix(1,0,0,1,451.57598876953125,407.2909851074219)"><path fill="rgb(85,122,213)" fill-opacity="1" d=" M-36.31999969482422,-47.6609992980957 C-36.31999969482422,-47.6609992980957 36.31999969482422,-65.75700378417969 36.31999969482422,-65.75700378417969 C36.31999969482422,-65.75700378417969 26.667999267578125,42.005001068115234 26.667999267578125,42.005001068115234 C26.667999267578125,42.005001068115234 -36.31999969482422,65.75700378417969 -36.31999969482422,65.75700378417969 C-36.31999969482422,65.75700378417969 -36.31999969482422,-47.6609992980957 -36.31999969482422,-47.6609992980957z"></path></g><g opacity="1" transform="matrix(1,0,0,1,454.4169921875,404.9159851074219)"><path fill="rgb(235,175,42)" fill-opacity="1" d=" M-13.875,58.59700012207031 C-13.875,58.59700012207031 1.5989999771118164,52.76300048828125 1.5989999771118164,52.76300048828125 C1.5989999771118164,52.76300048828125 13.87399959564209,-58.59700012207031 13.87399959564209,-58.59700012207031 C13.87399959564209,-58.59700012207031 -2.078000068664551,-54.52399826049805 -2.078000068664551,-54.52399826049805 C-2.078000068664551,-54.52399826049805 -13.875,58.59700012207031 -13.875,58.59700012207031z"></path></g><g opacity="1" transform="matrix(1,0,0,1,355.1679992675781,405.5469970703125)"><path fill="rgb(235,175,42)" fill-opacity="1" d=" M-2.249000072479248,53.018001556396484 C-2.249000072479248,53.018001556396484 -13.934000015258789,-56.77799987792969 -13.934000015258789,-56.77799987792969 C-13.934000015258789,-56.77799987792969 5.807000160217285,-53.86800003051758 5.807000160217285,-53.86800003051758 C5.807000160217285,-53.86800003051758 13.934000015258789,56.77799987792969 13.934000015258789,56.77799987792969 C13.934000015258789,56.77799987792969 -2.249000072479248,53.018001556396484 -2.249000072479248,53.018001556396484z"></path></g></g><g transform="matrix(1.0276899337768555,0,0,1.0276899337768555,-214.07598876953125,-267.5199890136719)" opacity="1" style="display: block;"><g opacity="1" transform="matrix(1,0,0,1,458.47100830078125,434.85101318359375)"><path fill="rgb(67,98,200)" fill-opacity="1" d=" M33.99300003051758,-25.222000122070312 C33.99300003051758,-25.222000122070312 -33.992000579833984,0.7509999871253967 -33.992000579833984,0.7509999871253967 C-33.992000579833984,0.7509999871253967 -32.6619987487793,25.22100067138672 -32.6619987487793,25.22100067138672 C-32.6619987487793,25.22100067138672 32.91699981689453,-2.253999948501587 32.91699981689453,-2.253999948501587 C32.91699981689453,-2.253999948501587 33.99300003051758,-25.222000122070312 33.99300003051758,-25.222000122070312z"></path></g><g opacity="1" transform="matrix(1,0,0,1,399.875,419.4620056152344)"><path fill="rgb(124,169,238)" fill-opacity="1" d=" M92.58899688720703,-9.833000183105469 C92.58899688720703,-9.833000183105469 21.343000411987305,-14.5600004196167 21.343000411987305,-14.5600004196167 C21.343000411987305,-14.5600004196167 -2.494999885559082,-16.141000747680664 -2.494999885559082,-16.141000747680664 C-2.494999885559082,-16.141000747680664 -92.58899688720703,12.182000160217285 -92.58899688720703,12.182000160217285 C-92.58899688720703,12.182000160217285 24.604000091552734,16.141000747680664 24.604000091552734,16.141000747680664 C24.604000091552734,16.141000747680664 92.58899688720703,-9.833000183105469 92.58899688720703,-9.833000183105469z"></path></g><g opacity="1" transform="matrix(1,0,0,1,366.5469970703125,445.8590087890625)"><path fill="rgb(85,122,213)" fill-opacity="1" d=" M-54.025001525878906,7.495999813079834 C-54.025001525878906,7.495999813079834 59.26100158691406,14.21500015258789 59.26100158691406,14.21500015258789 C59.26100158691406,14.21500015258789 57.930999755859375,-10.256999969482422 57.930999755859375,-10.256999969482422 C57.930999755859375,-10.256999969482422 -59.26100158691406,-14.21500015258789 -59.26100158691406,-14.21500015258789 C-59.26100158691406,-14.21500015258789 -54.025001525878906,7.495999813079834 -54.025001525878906,7.495999813079834z"></path></g><g opacity="1" transform="matrix(1,0,0,1,349.82000732421875,444.4849853515625)"><path fill="rgb(235,175,42)" fill-opacity="1" d=" M-14.362000465393066,-11.934000015258789 C-14.362000465393066,-11.934000015258789 9.29699993133545,-10.869000434875488 9.29699993133545,-10.869000434875488 C9.29699993133545,-10.869000434875488 14.361000061035156,11.934000015258789 14.361000061035156,11.934000015258789 C14.361000061035156,11.934000015258789 -6.5879998207092285,10.690999984741211 -6.5879998207092285,10.690999984741211 C-6.5879998207092285,10.690999984741211 -14.362000465393066,-11.934000015258789 -14.362000465393066,-11.934000015258789z"></path></g><g opacity="1" transform="matrix(1,0,0,1,388.26800537109375,419.260009765625)"><path fill="rgb(241,186,78)" fill-opacity="1" d=" M-52.810001373291016,13.291999816894531 C-52.810001373291016,13.291999816894531 32.94900131225586,-14.355999946594238 32.94900131225586,-14.355999946594238 C32.94900131225586,-14.355999946594238 52.81100082397461,-13.038999557495117 52.81100082397461,-13.038999557495117 C52.81100082397461,-13.038999557495117 -29.150999069213867,14.355999946594238 -29.150999069213867,14.355999946594238 C-29.150999069213867,14.355999946594238 -52.810001373291016,13.291999816894531 -52.810001373291016,13.291999816894531z"></path></g><g opacity="1" transform="matrix(1,0,0,1,464.6400146484375,432.1820068359375)"><path fill="rgb(235,175,42)" fill-opacity="1" d=" M-6.749000072479248,-9.057999610900879 C-6.749000072479248,-9.057999610900879 -8.121000289916992,15.024999618530273 -8.121000289916992,15.024999618530273 C-8.121000289916992,15.024999618530273 6.550000190734863,8.878999710083008 6.550000190734863,8.878999710083008 C6.550000190734863,8.878999710083008 8.121000289916992,-15.024999618530273 8.121000289916992,-15.024999618530273 C8.121000289916992,-15.024999618530273 -6.749000072479248,-9.057999610900879 -6.749000072479248,-9.057999610900879z"></path></g><g opacity="1" transform="matrix(1,0,0,1,412,417.8179931640625)"><path fill="rgb(241,186,78)" fill-opacity="1" d=" M60.76100158691406,-0.6610000133514404 C60.76100158691406,-0.6610000133514404 -43.854000091552734,-5.306000232696533 -43.854000091552734,-5.306000232696533 C-43.854000091552734,-5.306000232696533 -60.76100158691406,0.008999999612569809 -60.76100158691406,0.008999999612569809 C-60.76100158691406,0.008999999612569809 45.89099884033203,5.306000232696533 45.89099884033203,5.306000232696533 C45.89099884033203,5.306000232696533 60.76100158691406,-0.6610000133514404 60.76100158691406,-0.6610000133514404z"></path></g><g opacity="1" transform="matrix(1,0,0,1,368.0509948730469,383.37298583984375)"><path fill="rgb(232,154,35)" fill-opacity="1" d=" M-34.73899841308594,1.7640000581741333 C-34.73899841308594,1.7640000581741333 -8.178999900817871,32.56700134277344 23.909000396728516,33.6609992980957 C31.35700035095215,32.86899948120117 34.73899841308594,30.67799949645996 34.73899841308594,30.67799949645996 C34.73899841308594,30.67799949645996 -11.560999870300293,0.6430000066757202 -11.560999870300293,0.6430000066757202 C-9.295000076293945,-9.321999549865723 -4.243000030517578,-18.43899917602539 3.005000114440918,-25.645000457763672 C6.035999774932861,-28.656999588012695 2.759999990463257,-33.6609992980957 -1.2139999866485596,-32.08700180053711 C-1.2139999866485596,-32.08700180053711 -14.479999542236328,-26.83300018310547 -14.479999542236328,-26.83300018310547 C-14.479999542236328,-26.83300018310547 -28.09000015258789,-13.565999984741211 -28.09000015258789,-13.565999984741211 C-28.09000015258789,-13.565999984741211 -34.73899841308594,1.7640000581741333 -34.73899841308594,1.7640000581741333z"></path></g><g opacity="1" transform="matrix(1,0,0,1,369.8529968261719,380.45599365234375)"><path fill="rgb(241,186,78)" fill-opacity="1" d=" M29.55500030517578,35.7859992980957 C29.55500030517578,35.7859992980957 3.4860000610351562,-11.067000389099121 3.4860000610351562,-11.067000389099121 C2.947999954223633,-12.032999992370605 1.9930000305175781,-12.687999725341797 0.8989999890327454,-12.847999572753906 C-2.4049999713897705,-13.331000328063965 -9.973999977111816,-13.800999641418457 -19.031999588012695,-10.204000473022461 C-31.243999481201172,-5.354000091552734 -36.54100036621094,4.682000160217285 -36.54100036621094,4.682000160217285 C-36.54100036621094,4.682000160217285 -29.892000198364258,-10.64900016784668 -29.892000198364258,-10.64900016784668 C-28.003000259399414,-15.003000259399414 -25.25200080871582,-18.93000030517578 -21.804000854492188,-22.19300079345703 C-15.404999732971191,-28.249000549316406 -7.370999813079834,-32.29499816894531 1.3040000200271606,-33.83000183105469 C1.3040000200271606,-33.83000183105469 9.109000205993652,-35.21200180053711 9.109000205993652,-35.21200180053711 C12.352999687194824,-35.7859992980957 15.52299976348877,-33.87900161743164 16.534000396728516,-30.743999481201172 C16.534000396728516,-30.743999481201172 36.54100036621094,31.259000778198242 36.54100036621094,31.259000778198242 C36.54100036621094,31.259000778198242 29.55500030517578,35.7859992980957 29.55500030517578,35.7859992980957z"></path></g><g opacity="1" transform="matrix(1,0,0,1,433.63800048828125,379.9639892578125)"><path fill="rgb(232,154,35)" fill-opacity="1" d=" M30.927000045776367,-8.770000457763672 C30.927000045776367,-8.770000457763672 11.430999755859375,26.926000595092773 -19.711000442504883,34.736000061035156 C-27.159000396728516,35.527000427246094 -30.927000045776367,34.09400177001953 -30.927000045776367,34.09400177001953 C-30.927000045776367,34.09400177001953 8.029999732971191,-4.997000217437744 8.029999732971191,-4.997000217437744 C3.7209999561309814,-14.263999938964844 -3.134000062942505,-22.115999221801758 -11.732999801635742,-27.63800048828125 C-15.329999923706055,-29.94700050354004 -13.177000045776367,-35.527000427246094 -8.961999893188477,-34.823001861572266 C-8.961999893188477,-34.823001861572266 5.111999988555908,-32.472999572753906 5.111999988555908,-32.472999572753906 C5.111999988555908,-32.472999572753906 21.20400047302246,-22.361000061035156 21.20400047302246,-22.361000061035156 C21.20400047302246,-22.361000061035156 30.927000045776367,-8.770000457763672 30.927000045776367,-8.770000457763672z"></path></g><g opacity="1" transform="matrix(1,0,0,1,431.6300048828125,378.33099365234375)"><path fill="rgb(241,186,78)" fill-opacity="1" d=" M-25.152000427246094,37.15999984741211 C-25.152000427246094,37.15999984741211 -9.508000373840332,-14.125 -9.508000373840332,-14.125 C-9.1850004196167,-15.182999610900879 -8.388999938964844,-16.02400016784668 -7.353000164031982,-16.40999984741211 C-4.2230000495910645,-17.576000213623047 3.0769999027252197,-19.625999450683594 12.689000129699707,-18.01099967956543 C25.64699935913086,-15.836000442504883 32.933998107910156,-7.13700008392334 32.933998107910156,-7.13700008392334 C32.933998107910156,-7.13700008392334 23.211999893188477,-20.72800064086914 23.211999893188477,-20.72800064086914 C20.45199966430664,-24.589000701904297 16.93600082397461,-27.850000381469727 12.880000114440918,-30.31599998474121 C5.3520002365112305,-34.891998291015625 -3.3529999256134033,-37.15999984741211 -12.156999588012695,-36.8390007019043 C-12.156999588012695,-36.8390007019043 -20.07900047302246,-36.54999923706055 -20.07900047302246,-36.54999923706055 C-23.371000289916992,-36.43000030517578 -26.069000244140625,-33.89899826049805 -26.39900016784668,-30.621000289916992 C-26.39900016784668,-30.621000289916992 -32.933998107910156,34.20000076293945 -32.933998107910156,34.20000076293945 C-32.933998107910156,34.20000076293945 -25.152000427246094,37.15999984741211 -25.152000427246094,37.15999984741211z"></path></g></g></g></svg>