<svg viewBox="0 0 62 55" fill="none" xmlns="http://www.w3.org/2000/svg">
<path d="M4.5 4C4.5 2.067 6.067 0.5 8 0.5H54C55.933 0.5 57.5 2.067 57.5 4V39.5H4.5V4Z" fill="#334155" stroke="#64748B"/>
<path d="M3.91198 40.3613C4.15939 39.8356 4.68817 39.5 5.26921 39.5H56.7308C57.3118 39.5 57.8406 39.8356 58.088 40.3613L60.2057 44.8613C60.6738 45.8562 59.948 47 58.8484 47H3.15156C2.05204 47 1.32616 45.8562 1.79434 44.8613L3.91198 40.3613Z" fill="#475569" stroke="#64748B"/>
<path d="M23 0H39V1C39 2.10457 38.1046 3 37 3H25C23.8954 3 23 2.10457 23 1V0Z" fill="#64748B"/>
<rect x="19" y="9" width="24" height="24" rx="3" fill="#475569"/>
<path d="M41 23.3046V25.5312C41 25.9627 40.6503 26.3124 40.2188 26.3124H38.0312C37.5997 26.3124 37.25 25.9627 37.25 25.5312C37.25 25.0997 37.5997 24.7499 38.0312 24.7499H39.4375V23.3046C39.4375 22.8731 39.7872 22.5234 40.2188 22.5234C40.6503 22.5234 41 22.8731 41 23.3046ZM30.2188 19.4765C30.6503 19.4765 31 19.1268 31 18.6952V16.9374H31.7812C32.2128 16.9374 32.5625 16.5877 32.5625 16.1562V11.7812C32.5625 11.3402 32.1972 10.9847 31.7527 11.0004C31.3294 11.0155 31 11.3762 31 11.7999V12.4062H30.2188C29.7872 12.4062 29.4375 12.7559 29.4375 13.1874C29.4375 13.6189 29.7872 13.9687 30.2188 13.9687H31V15.3749H30.2188C29.7872 15.3749 29.4375 15.7247 29.4375 16.1562V18.6952C29.4375 19.1268 29.7872 19.4765 30.2188 19.4765ZM21.7812 22.5234C22.2128 22.5234 22.5625 22.1736 22.5625 21.7421V20.9609H23.3828C23.8143 20.9609 24.1641 20.6111 24.1641 20.1796C24.1641 19.7481 23.8143 19.3984 23.3828 19.3984H21.7812C21.3497 19.3984 21 19.7481 21 20.1796V21.7421C21 22.1736 21.3497 22.5234 21.7812 22.5234ZM33.3438 20.9609H35.4531V23.2858C35.4531 23.7096 35.7826 24.0703 36.2058 24.0854C36.6503 24.1011 37.0156 23.7456 37.0156 23.3046V22.5234H37.8359C38.2675 22.5234 38.6172 22.1736 38.6172 21.7421C38.6172 21.3106 38.2675 20.9609 37.8359 20.9609H37.0156V20.1796C37.0156 19.7481 36.6659 19.3984 36.2344 19.3984H33.3438C32.9122 19.3984 32.5625 19.7481 32.5625 20.1796C32.5625 20.6111 32.9122 20.9609 33.3438 20.9609ZM40.2188 19.3984C39.7872 19.3984 39.4375 19.7481 39.4375 20.1796C39.4375 20.6111 39.7872 20.9609 40.2188 20.9609C40.6503 20.9609 41 20.6111 41 20.1796C41 19.7481 40.6503 19.3984 40.2188 19.3984ZM33.3438 22.5234C32.9122 22.5234 32.5625 22.8731 32.5625 23.3046V24.7499H32.1719C31.7404 24.7499 31.3906 25.0997 31.3906 25.5312C31.3906 25.9627 31.7404 26.3124 32.1719 26.3124H33.3438C33.7753 26.3124 34.125 25.9627 34.125 25.5312V23.3046C34.125 22.8731 33.7753 22.5234 33.3438 22.5234ZM33.3438 29.4374H32.5625V28.6562C32.5625 28.2247 32.2128 27.8749 31.7812 27.8749H31V27.0937C31 26.6622 30.6503 26.3124 30.2188 26.3124C29.7872 26.3124 29.4375 26.6622 29.4375 27.0937V28.6562C29.4375 29.0877 29.7872 29.4374 30.2188 29.4374H31V30.2187C31 30.6502 31.3497 30.9999 31.7812 30.9999H33.3438C33.7753 30.9999 34.125 30.6502 34.125 30.2187C34.125 29.7872 33.7753 29.4374 33.3438 29.4374ZM36.4688 27.8749C36.4688 27.4434 36.119 27.0937 35.6875 27.0937H35.2969C34.8654 27.0937 34.5156 27.4434 34.5156 27.8749C34.5156 28.3064 34.8654 28.6562 35.2969 28.6562H35.6875C36.119 28.6562 36.4688 28.3064 36.4688 27.8749ZM40.2188 29.4374H39.5938V28.6562C39.5938 28.2247 39.244 27.8749 38.8125 27.8749C38.381 27.8749 38.0312 28.2247 38.0312 28.6562V29.4374H36.4688C36.0372 29.4374 35.6875 29.7872 35.6875 30.2187C35.6875 30.6502 36.0372 30.9999 36.4688 30.9999H40.2188C40.6503 30.9999 41 30.6502 41 30.2187C41 29.7872 40.6503 29.4374 40.2188 29.4374ZM30.2188 23.9687C30.6503 23.9687 31 23.6189 31 23.1874V21.7421C31 21.3106 30.6503 20.9609 30.2188 20.9609H27.4062V20.1984C27.4062 19.7746 27.0768 19.4139 26.6535 19.3988C26.209 19.3831 25.8438 19.7386 25.8438 20.1796V20.9609H25.4531C25.0216 20.9609 24.6719 21.3106 24.6719 21.7421C24.6719 22.1736 25.0216 22.5234 25.4531 22.5234H29.4375V23.1874C29.4375 23.6189 29.7872 23.9687 30.2188 23.9687ZM21 15.6874V13.3437C21 12.0513 22.0513 10.9999 23.3438 10.9999H25.6875C26.9799 10.9999 28.0312 12.0513 28.0312 13.3437V15.6874C28.0312 16.9798 26.9799 18.0312 25.6875 18.0312H23.3438C22.0513 18.0312 21 16.9798 21 15.6874ZM22.5625 15.6874C22.5625 16.1182 22.913 16.4687 23.3438 16.4687H25.6875C26.1183 16.4687 26.4688 16.1182 26.4688 15.6874V13.3437C26.4688 12.9129 26.1183 12.5624 25.6875 12.5624H23.3438C22.913 12.5624 22.5625 12.9129 22.5625 13.3437V15.6874ZM24.5156 15.2968C24.9471 15.2968 25.2969 14.9471 25.2969 14.5155C25.2969 14.084 24.9471 13.7343 24.5156 13.7343C24.0841 13.7343 23.7344 14.084 23.7344 14.5155C23.7344 14.9471 24.0841 15.2968 24.5156 15.2968ZM41 13.3437V15.6874C41 16.9798 39.9487 18.0312 38.6562 18.0312H36.3125C35.0201 18.0312 33.9688 16.9798 33.9688 15.6874V13.3437C33.9688 12.0513 35.0201 10.9999 36.3125 10.9999H38.6562C39.9487 10.9999 41 12.0513 41 13.3437ZM39.4375 13.3437C39.4375 12.9129 39.087 12.5624 38.6562 12.5624H36.3125C35.8817 12.5624 35.5312 12.9129 35.5312 13.3437V15.6874C35.5312 16.1182 35.8817 16.4687 36.3125 16.4687H38.6562C39.087 16.4687 39.4375 16.1182 39.4375 15.6874V13.3437ZM37.4844 13.7343C37.0529 13.7343 36.7031 14.084 36.7031 14.5155C36.7031 14.9471 37.0529 15.2968 37.4844 15.2968C37.9159 15.2968 38.2656 14.9471 38.2656 14.5155C38.2656 14.084 37.9159 13.7343 37.4844 13.7343ZM28.0312 26.3124V28.6562C28.0312 29.9486 26.9799 30.9999 25.6875 30.9999H23.3438C22.0513 30.9999 21 29.9486 21 28.6562V26.3124C21 25.02 22.0513 23.9687 23.3438 23.9687H25.6875C26.9799 23.9687 28.0312 25.02 28.0312 26.3124ZM26.4688 26.3124C26.4688 25.8817 26.1183 25.5312 25.6875 25.5312H23.3438C22.913 25.5312 22.5625 25.8817 22.5625 26.3124V28.6562C22.5625 29.0869 22.913 29.4374 23.3438 29.4374H25.6875C26.1183 29.4374 26.4688 29.0869 26.4688 28.6562V26.3124ZM24.5156 26.703C24.0841 26.703 23.7344 27.0528 23.7344 27.4843C23.7344 27.9158 24.0841 28.2655 24.5156 28.2655C24.9471 28.2655 25.2969 27.9158 25.2969 27.4843C25.2969 27.0528 24.9471 26.703 24.5156 26.703Z" fill="#94A3B8"/>
<rect x="38.5" y="9.5" width="23" height="45" rx="4.5" fill="#475569"/>
<rect x="38.5" y="9.5" width="23" height="45" rx="4.5" stroke="#64748B"/>
<path d="M47 12C47 11.4477 47.4477 11 48 11H52C52.5523 11 53 11.4477 53 12C53 12.5523 52.5523 13 52 13H48C47.4477 13 47 12.5523 47 12Z" fill="#64748B"/>
<path d="M43.5 29C43.6326 29 43.7598 28.9473 43.8536 28.8536C43.9473 28.7598 44 28.6326 44 28.5V26C44 25.8674 44.0527 25.7402 44.1464 25.6464C44.2402 25.5527 44.3674 25.5 44.5 25.5H47.25C47.3826 25.5 47.5098 25.4473 47.6036 25.3536C47.6973 25.2598 47.75 25.1326 47.75 25C47.75 24.8674 47.6973 24.7402 47.6036 24.6464C47.5098 24.5527 47.3826 24.5 47.25 24.5H44.5C44.1022 24.5 43.7206 24.658 43.4393 24.9393C43.158 25.2206 43 25.6022 43 26V28.5C43 28.6326 43.0527 28.7598 43.1464 28.8536C43.2402 28.9473 43.3674 29 43.5 29Z" fill="#94A3B8"/>
<path d="M55.5 24.5H52.75C52.6174 24.5 52.4902 24.5527 52.3964 24.6464C52.3027 24.7402 52.25 24.8674 52.25 25C52.25 25.1326 52.3027 25.2598 52.3964 25.3536C52.4902 25.4473 52.6174 25.5 52.75 25.5H55.5C55.6326 25.5 55.7598 25.5527 55.8536 25.6464C55.9473 25.7402 56 25.8674 56 26V28.5C56 28.6326 56.0527 28.7598 56.1464 28.8536C56.2402 28.9473 56.3674 29 56.5 29C56.6326 29 56.7598 28.9473 56.8536 28.8536C56.9473 28.7598 57 28.6326 57 28.5V26C57 25.6022 56.842 25.2206 56.5607 24.9393C56.2794 24.658 55.8978 24.5 55.5 24.5Z" fill="#94A3B8"/>
<path d="M56.5 34C56.3674 34 56.2402 34.0527 56.1464 34.1464C56.0527 34.2402 56 34.3674 56 34.5V37C56 37.1326 55.9473 37.2598 55.8536 37.3536C55.7598 37.4473 55.6326 37.5 55.5 37.5H52.75C52.6174 37.5 52.4902 37.5527 52.3964 37.6464C52.3027 37.7402 52.25 37.8674 52.25 38C52.25 38.1326 52.3027 38.2598 52.3964 38.3536C52.4902 38.4473 52.6174 38.5 52.75 38.5H55.5C55.8978 38.5 56.2794 38.342 56.5607 38.0607C56.842 37.7794 57 37.3978 57 37V34.5C57 34.3674 56.9473 34.2402 56.8536 34.1464C56.7598 34.0527 56.6326 34 56.5 34Z" fill="#94A3B8"/>
<path d="M47.25 37.5H44.5C44.3674 37.5 44.2402 37.4473 44.1464 37.3536C44.0527 37.2598 44 37.1326 44 37V34.5C44 34.3674 43.9473 34.2402 43.8536 34.1464C43.7598 34.0527 43.6326 34 43.5 34C43.3674 34 43.2402 34.0527 43.1464 34.1464C43.0527 34.2402 43 34.3674 43 34.5V37C43 37.3978 43.158 37.7794 43.4393 38.0607C43.7206 38.342 44.1022 38.5 44.5 38.5H47.25C47.3826 38.5 47.5098 38.4473 47.6036 38.3536C47.6973 38.2598 47.75 38.1326 47.75 38C47.75 37.8674 47.6973 37.7402 47.6036 37.6464C47.5098 37.5527 47.3826 37.5 47.25 37.5Z" fill="#94A3B8"/>
<path d="M56.5 31H43.5C43.3674 31 43.2402 31.0527 43.1464 31.1464C43.0527 31.2402 43 31.3674 43 31.5C43 31.6326 43.0527 31.7598 43.1464 31.8536C43.2402 31.9473 43.3674 32 43.5 32H56.5C56.6326 32 56.7598 31.9473 56.8536 31.8536C56.9473 31.7598 57 31.6326 57 31.5C57 31.3674 56.9473 31.2402 56.8536 31.1464C56.7598 31.0527 56.6326 31 56.5 31Z" fill="#94A3B8"/>
</svg>
