<svg width="20" height="20" viewBox="0 0 20 20" fill="none" xmlns="http://www.w3.org/2000/svg">
<g id="Frame">
<path id="Vector" d="M2.33124 13.6628C3.63437 14.7909 5.70624 16.2409 7.52187 15.9659C7.71249 15.9378 7.89999 15.8878 8.08437 15.8253C7.79687 15.4409 7.54374 15.0628 7.32812 14.7191C6.64374 13.6253 6.42812 12.3691 6.51874 11.1691C5.87499 11.2972 5.29374 11.5753 4.80937 11.9628C4.60624 12.1253 4.29999 12.0034 4.34687 11.7441C4.54687 10.6972 5.37812 9.84095 6.47812 9.6722C6.55937 9.6597 6.64374 9.65032 6.72499 9.6472L7.33124 5.54407C7.39374 5.11282 7.58124 4.5222 8.11249 4.10969C8.69374 3.66282 9.70312 3.15657 11.35 3.00657C11.325 2.98469 11.3 2.96282 11.275 2.94094C10.6437 2.45344 9.01249 1.64094 5.49062 2.17532C1.96874 2.70969 0.640618 3.96907 0.178118 4.6222C-7.03335e-06 4.8722 -0.025007 5.18782 0.018743 5.49407L0.774993 10.6284C0.946868 11.7941 1.44687 12.8972 2.33124 13.6659V13.6628ZM5.07187 6.80032C5.20937 6.70345 5.40937 6.73782 5.44062 6.90344C5.44374 6.91907 5.44687 6.93782 5.44999 6.95344C5.54999 7.6347 5.08749 8.26595 4.41562 8.36907C3.74374 8.4722 3.11874 8.00032 3.01874 7.3222C3.01562 7.30657 3.01562 7.28782 3.01249 7.27219C2.99374 7.10345 3.17499 7.0097 3.33437 7.06282C3.61562 7.15657 3.92187 7.18469 4.23124 7.13782C4.54062 7.09094 4.82812 6.9722 5.06874 6.80032H5.07187ZM8.17499 14.1878C9.09374 15.6534 10.6594 17.6534 12.475 17.9284C14.2906 18.2034 16.3656 16.7566 17.6656 15.6253C18.55 14.8597 19.05 13.7566 19.2219 12.5878L19.9781 7.45344C20.0219 7.14719 19.9969 6.83157 19.8187 6.58157C19.3562 5.92845 18.0281 4.66907 14.5062 4.1347C10.9844 3.60032 9.35624 4.41282 8.72499 4.90032C8.48124 5.08782 8.36562 5.38157 8.32187 5.68782L7.56562 10.8222C7.39374 11.9878 7.55312 13.1909 8.17812 14.1878H8.17499ZM12.6406 9.35345C12.4 9.18157 12.1156 9.06282 11.8031 9.01595C11.4906 8.96907 11.1844 8.9972 10.9062 9.09095C10.7469 9.14407 10.5656 9.05032 10.5844 8.88157C10.5875 8.86595 10.5875 8.8472 10.5906 8.83157C10.6906 8.15032 11.3156 7.68157 11.9875 7.7847C12.6594 7.88782 13.1219 8.51907 13.0219 9.20032C13.0187 9.21595 13.0156 9.2347 13.0125 9.25032C12.9812 9.41595 12.7812 9.45032 12.6437 9.35345H12.6406ZM16.8969 9.83782C16.8656 10.0034 16.6656 10.0378 16.5281 9.94095C16.2875 9.76907 16.0031 9.65032 15.6906 9.60345C15.3781 9.55657 15.0719 9.5847 14.7937 9.67845C14.6344 9.73157 14.4531 9.63782 14.4719 9.46907C14.475 9.45345 14.475 9.4347 14.4781 9.41907C14.5781 8.73782 15.2031 8.26907 15.875 8.3722C16.5469 8.47532 17.0094 9.10657 16.9094 9.78782C16.9062 9.80345 16.9031 9.8222 16.9 9.83782H16.8969ZM16.5625 12.9441C15.95 14.3409 14.475 15.2097 12.9125 14.9722C11.35 14.7347 10.1906 13.4659 10.0062 11.9503C9.97499 11.6909 10.2844 11.5722 10.4812 11.7409C11.2281 12.3909 12.1562 12.8441 13.2 13.0003C14.2437 13.1566 15.2656 13.0034 16.1656 12.6003C16.4031 12.4941 16.6656 12.7003 16.5594 12.9409L16.5625 12.9441Z" fill="#94A3B8"/>
</g>
</svg>
