<svg width="1em" height="1em" viewBox="0 0 46 47" fill="none" xmlns="http://www.w3.org/2000/svg">
<circle cx="23" cy="23.5" r="22.75" fill="#F8FAFC" stroke="#D9D9D9" stroke-width="0.5"/>
<path fill-rule="evenodd" clip-rule="evenodd" d="M14.089 14.5552C14.6752 14.1332 15.3555 14 15.8205 14H29.4969C29.9218 14 30.2662 14.3444 30.2662 14.7692C30.2662 15.1941 29.9218 15.5385 29.4969 15.5385H15.8205C15.6017 15.5385 15.2564 15.6104 14.9879 15.8037C14.7587 15.9688 14.5385 16.2507 14.5385 16.8205C14.5385 17.3903 14.7587 17.6722 14.9879 17.8373C15.2564 18.0306 15.6017 18.1026 15.8205 18.1026H29.4969C30.2746 18.1026 31.1293 18.3963 31.7985 18.9425C32.4832 19.5014 33 20.3501 33 21.4359V30.6667C33 31.626 32.6545 32.4778 32.0055 33.0867C31.361 33.6913 30.478 34 29.4969 34H15.8205C15.3151 34 14.611 33.8181 14.0239 33.2897C13.4121 32.7391 13 31.8784 13 30.6667V16.8205C13 15.7493 13.4636 15.0055 14.089 14.5552ZM14.5385 19.3492V30.6667C14.5385 31.5062 14.8101 31.9275 15.053 32.1462C15.3206 32.387 15.6422 32.4615 15.8205 32.4615H29.4969C30.1569 32.4615 30.6409 32.2574 30.953 31.9646C31.2606 31.676 31.4615 31.2458 31.4615 30.6667V21.4359C31.4615 20.8807 31.2091 20.4473 30.8257 20.1344C30.4268 19.8088 29.9146 19.641 29.4969 19.641H15.8205C15.471 19.641 14.9999 19.5658 14.5385 19.3492Z" fill="url(#paint0_linear_9192_122338)"/>
<path fill-rule="evenodd" clip-rule="evenodd" d="M26.5368 27.077C27.1032 27.077 27.5624 26.6179 27.5624 26.0514C27.5624 25.485 27.1032 25.0258 26.5368 25.0258C25.9703 25.0258 25.5111 25.485 25.5111 26.0514C25.5111 26.6179 25.9703 27.077 26.5368 27.077ZM26.5368 28.6155C27.9529 28.6155 29.1009 27.4675 29.1009 26.0514C29.1009 24.6353 27.9529 23.4873 26.5368 23.4873C25.1206 23.4873 23.9727 24.6353 23.9727 26.0514C23.9727 27.4675 25.1206 28.6155 26.5368 28.6155Z" fill="url(#paint1_linear_9192_122338)"/>
<defs>
<linearGradient id="paint0_linear_9192_122338" x1="13.4762" y1="14.6667" x2="36.8113" y2="26.4562" gradientUnits="userSpaceOnUse">
<stop stop-color="#F10184"/>
<stop offset="1" stop-color="#BD09F1"/>
</linearGradient>
<linearGradient id="paint1_linear_9192_122338" x1="24.0948" y1="23.6582" x2="30.0781" y2="26.6812" gradientUnits="userSpaceOnUse">
<stop stop-color="#F10184"/>
<stop offset="1" stop-color="#BD09F1"/>
</linearGradient>
</defs>
</svg>
