<svg width="20" height="20" viewBox="0 0 20 20" fill="none" xmlns="http://www.w3.org/2000/svg">
<path d="M18.4137 14.152C17.659 13.341 16.2469 12.1211 16.2469 8.125C16.2469 5.08984 14.1188 2.66016 11.2492 2.06406V1.25C11.2492 0.559766 10.6899 0 10 0C9.31018 0 8.75081 0.559766 8.75081 1.25V2.06406C5.88128 2.66016 3.75315 5.08984 3.75315 8.125C3.75315 12.1211 2.34104 13.341 1.58636 14.152C1.35198 14.4039 1.24807 14.7051 1.25003 15C1.25432 15.6406 1.75706 16.25 2.50393 16.25H17.4961C18.243 16.25 18.7461 15.6406 18.75 15C18.752 14.7051 18.6481 14.4035 18.4137 14.152ZM3.88792 14.375C4.71682 13.2824 5.62307 11.4715 5.62737 8.14766C5.62737 8.13984 5.62503 8.13281 5.62503 8.125C5.62503 5.70859 7.58362 3.75 10 3.75C12.4164 3.75 14.375 5.70859 14.375 8.125C14.375 8.13281 14.3727 8.13984 14.3727 8.14766C14.377 11.4719 15.2832 13.2828 16.1121 14.375H3.88792ZM10 20C11.3797 20 12.4989 18.8809 12.4989 17.5H7.5012C7.5012 18.8809 8.62034 20 10 20Z" fill="currentColor"/>
</svg>
