<svg width="20" height="20" viewBox="0 0 20 20" fill="none" xmlns="http://www.w3.org/2000/svg">
<g id="bell 1">
<g id="Group">
<path id="Vector" d="M17.8171 14.0942C16.5571 13.0292 15.8346 11.4725 15.8346 9.82333V7.5C15.8346 4.5675 13.6563 2.14 10.8346 1.73333V0.833333C10.8346 0.3725 10.4613 0 10.0013 0C9.5413 0 9.16797 0.3725 9.16797 0.833333V1.73333C6.34547 2.14 4.16797 4.5675 4.16797 7.5V9.82333C4.16797 11.4725 3.44547 13.0292 2.17797 14.1008C1.8538 14.3783 1.66797 14.7817 1.66797 15.2083C1.66797 16.0125 2.32214 16.6667 3.1263 16.6667H16.8763C17.6805 16.6667 18.3346 16.0125 18.3346 15.2083C18.3346 14.7817 18.1488 14.3783 17.8171 14.0942Z" fill="currentColor"/>
<path id="Vector_2" d="M10.0031 20C11.5122 20 12.7747 18.9242 13.0647 17.5H6.94141C7.23141 18.9242 8.49391 20 10.0031 20Z" fill="currentColor"/>
</g>
</g>
</svg>
