<svg width="1em" height="1em" viewBox="0 0 20 21" fill="none" xmlns="http://www.w3.org/2000/svg">
<g clip-path="url(#clip0_9972_133679)">
<path d="M17.8152 14.5942C16.5552 13.5292 15.8327 11.9725 15.8327 10.3233V8C15.8327 5.0675 13.6543 2.64 10.8327 2.23333V1.33333C10.8327 0.8725 10.4593 0.5 9.99935 0.5C9.53935 0.5 9.16602 0.8725 9.16602 1.33333V2.23333C6.34352 2.64 4.16602 5.0675 4.16602 8V10.3233C4.16602 11.9725 3.44352 13.5292 2.17602 14.6008C1.85185 14.8783 1.66602 15.2817 1.66602 15.7083C1.66602 16.5125 2.32018 17.1667 3.12435 17.1667H16.8743C17.6785 17.1667 18.3327 16.5125 18.3327 15.7083C18.3327 15.2817 18.1468 14.8783 17.8152 14.5942Z" fill="currentColor"/>
<path d="M9.99917 20.5C11.5083 20.5 12.7708 19.4242 13.0608 18H6.9375C7.2275 19.4242 8.49 20.5 9.99917 20.5Z" fill="currentColor"/>
</g>
<defs>
<clipPath id="clip0_9972_133679">
<rect width="20" height="20" fill="currentColor" transform="translate(0 0.5)"/>
</clipPath>
</defs>
</svg>
