<svg width="1em" height="1em" viewBox="0 0 24 24" fill="none" xmlns="http://www.w3.org/2000/svg">
<g id="bubble-chat 1" clip-path="url(#clip0_10303_134227)">
<g id="Group 128">
<path id="Vector" d="M22.5024 16.8785C24.8216 13.6246 24.4671 9.16652 21.2994 6.26256C19.852 4.93577 18.0069 4.10978 16.0137 3.87911C16.0013 3.86383 15.9886 3.84869 15.9747 3.8342C14.2407 2.03303 11.7496 1 9.14006 1C4.17417 1 0 4.69998 0 9.4375C0 11.0985 0.515953 12.6908 1.49606 14.066L0.126891 18.3647C0.0408281 18.6349 0.125484 18.9302 0.341531 19.1139C0.557953 19.2978 0.86325 19.3331 1.11548 19.2048L5.27925 17.0876C6.13434 17.4558 7.04109 17.6974 7.98009 17.8074C9.79144 19.7122 12.296 20.6875 14.8584 20.6875C16.1904 20.6875 17.5176 20.416 18.7191 19.9001L22.883 22.0174C22.9838 22.0687 23.093 22.0938 23.2015 22.0938C23.676 22.0938 24.0162 21.6313 23.8716 21.1772L22.5024 16.8785ZM5.56303 15.6729C5.36611 15.5793 5.13703 15.5824 4.94273 15.6813L1.97709 17.1892L2.94553 14.1486C3.01603 13.9272 2.97267 13.6854 2.82961 13.5023C1.89839 12.3103 1.40616 10.9047 1.40616 9.4375C1.40616 5.56047 4.87556 2.40625 9.14006 2.40625C10.8574 2.40625 12.5106 2.92652 13.8517 3.86341C9.33535 4.31753 5.71838 7.84506 5.71838 12.25C5.71838 13.6201 6.06956 14.939 6.73167 16.1207C6.3308 16.0014 5.94038 15.8521 5.56303 15.6729ZM19.0558 18.4937C18.8643 18.3963 18.635 18.3905 18.4355 18.4854C17.3393 19.006 16.1024 19.2812 14.8584 19.2812C10.5939 19.2812 7.12453 16.127 7.12453 12.25C7.12453 8.37297 10.5939 5.21875 14.8584 5.21875C19.1229 5.21875 22.5923 8.37297 22.5923 12.25C22.5923 13.7172 22.1001 15.1228 21.1688 16.3148C21.0258 16.4978 20.9825 16.7397 21.0529 16.9611L22.0214 20.0017L19.0558 18.4937Z" fill="currentColor"/>
<path id="Vector_2" d="M12 12.9531C12.3883 12.9531 12.7031 12.6383 12.7031 12.25C12.7031 11.8617 12.3883 11.5469 12 11.5469C11.6117 11.5469 11.2969 11.8617 11.2969 12.25C11.2969 12.6383 11.6117 12.9531 12 12.9531Z" fill="currentColor"/>
<path id="Vector_3" d="M14.8125 12.9531C15.2008 12.9531 15.5156 12.6383 15.5156 12.25C15.5156 11.8617 15.2008 11.5469 14.8125 11.5469C14.4242 11.5469 14.1094 11.8617 14.1094 12.25C14.1094 12.6383 14.4242 12.9531 14.8125 12.9531Z" fill="currentColor"/>
<path id="Vector_4" d="M17.623 12.9531C18.0114 12.9531 18.3262 12.6383 18.3262 12.25C18.3262 11.8617 18.0114 11.5469 17.623 11.5469C17.2347 11.5469 16.9199 11.8617 16.9199 12.25C16.9199 12.6383 17.2347 12.9531 17.623 12.9531Z" fill="currentColor"/>
</g>
</g>
<defs>
<clipPath id="clip0_10303_134227">
<rect width="24" height="24" fill="white"/>
</clipPath>
</defs>
</svg>
