<svg width="24" height="24" viewBox="0 0 24 24" fill="none" xmlns="http://www.w3.org/2000/svg">
<g id="Frame" clip-path="url(#clip0_3671_5294)">
<path id="Vector" d="M12 24C15.1826 24 18.2348 22.7357 20.4853 20.4853C22.7357 18.2348 24 15.1826 24 12C24 8.8174 22.7357 5.76516 20.4853 3.51472C18.2348 1.26428 15.1826 0 12 0C8.8174 0 5.76516 1.26428 3.51472 3.51472C1.26428 5.76516 0 8.8174 0 12C0 15.1826 1.26428 18.2348 3.51472 20.4853C5.76516 22.7357 8.8174 24 12 24ZM17.2969 9.79688L11.2969 15.7969C10.8562 16.2375 10.1438 16.2375 9.70781 15.7969L6.70781 12.7969C6.26719 12.3562 6.26719 11.6438 6.70781 11.2078C7.14844 10.7719 7.86094 10.7672 8.29688 11.2078L10.5 13.4109L15.7031 8.20312C16.1437 7.7625 16.8562 7.7625 17.2922 8.20312C17.7281 8.64375 17.7328 9.35625 17.2922 9.79219L17.2969 9.79688Z" fill="url(#paint0_linear_3671_5294)"/>
</g>
<defs>
<linearGradient id="paint0_linear_3671_5294" x1="12" y1="0" x2="12" y2="24" gradientUnits="userSpaceOnUse">
<stop stop-color="#4ADE80"/>
<stop offset="1" stop-color="#287845"/>
</linearGradient>
<clipPath id="clip0_3671_5294">
<rect width="24" height="24" fill="white"/>
</clipPath>
</defs>
</svg>
