<svg width="1em" height="1em" viewBox="0 0 16 16" fill="none" xmlns="http://www.w3.org/2000/svg">
<g id="Mask group">
<mask id="mask0_10293_135581" style="mask-type:luminance" maskUnits="userSpaceOnUse" x="0" y="0" width="16" height="16">
<g id="Group">
<path id="bg" d="M16 0H0V16H16V0Z" fill="currentColor"/>
</g>
</mask>
<g mask="url(#mask0_10293_135581)">
<g id="Group_2">
<g id="g1895">
<g id="g1897">
<g id="Clip path group">
<mask id="mask1_10293_135581" style="mask-type:luminance" maskUnits="userSpaceOnUse" x="0" y="0" width="16" height="16">
<g id="clipPath1903">
<path id="path1901" d="M0 2.22524e-06H16V16H0V2.22524e-06Z" fill="currentColor"/>
</g>
</mask>
<g mask="url(#mask1_10293_135581)">
<g id="g1899">
<g id="g1905">
<path id="path1907 (Stroke)" fill-rule="evenodd" clip-rule="evenodd" d="M2.6875 7.46289C2.6875 9.22329 4.1146 10.6504 5.875 10.6504C7.6354 10.6504 9.0625 9.22329 9.0625 7.46289C9.0625 5.70249 7.6354 4.27539 5.875 4.27539C4.1146 4.27539 2.6875 5.70249 2.6875 7.46289ZM5.875 9.40039C4.80496 9.40039 3.9375 8.53293 3.9375 7.46289C3.9375 6.39285 4.80496 5.52539 5.875 5.52539C6.94504 5.52539 7.8125 6.39285 7.8125 7.46289C7.8125 8.53293 6.94504 9.40039 5.875 9.40039Z" fill="currentColor"/>
</g>
<g id="g1909">
<path id="path1911 (Stroke)" fill-rule="evenodd" clip-rule="evenodd" d="M0.0914347 13.5505C-0.2979 14.7609 0.60478 16 1.87651 16H7.31401C7.65919 16 7.93901 15.7202 7.93901 15.375C7.93901 15.0298 7.65919 14.75 7.31401 14.75H1.87651C1.45267 14.75 1.15154 14.3369 1.28139 13.9332L1.2814 13.9332C1.88601 12.0533 3.75482 10.6712 5.86282 10.6712C6.86302 10.6712 7.78856 10.9827 8.5502 11.5139C8.83332 11.7114 9.22291 11.642 9.42038 11.3589C9.61785 11.0758 9.54842 10.6862 9.26531 10.4887C8.3007 9.81588 7.12694 9.42122 5.86282 9.42122C3.22419 9.42122 0.866001 11.1422 0.0914347 13.5505Z" fill="currentColor"/>
</g>
<g id="g1913">
<path id="path1915 (Stroke)" fill-rule="evenodd" clip-rule="evenodd" d="M9.15625 3.1875C9.15625 4.9479 10.5834 6.375 12.3438 6.375C14.1041 6.375 15.5312 4.9479 15.5312 3.1875C15.5312 1.4271 14.1041 7.15256e-07 12.3438 7.15256e-07C10.5834 7.15256e-07 9.15625 1.4271 9.15625 3.1875ZM12.3438 5.125C11.2737 5.125 10.4062 4.25754 10.4062 3.1875C10.4062 2.11746 11.2737 1.25 12.3438 1.25C13.4138 1.25 14.2812 2.11746 14.2812 3.1875C14.2812 4.25754 13.4138 5.125 12.3438 5.125Z" fill="currentColor"/>
</g>
<g id="g1917">
<path id="path1919 (Stroke)" fill-rule="evenodd" clip-rule="evenodd" d="M8.02766 7.89166C8.27849 8.1288 8.67406 8.1177 8.9112 7.86687C9.76947 6.95904 10.9832 6.39387 12.3299 6.39387C13.3301 6.39387 14.2556 6.70534 15.0173 7.23659C15.3004 7.43406 15.69 7.36463 15.8875 7.08152C16.0849 6.79841 16.0155 6.40882 15.7324 6.21135C14.7678 5.53853 13.594 5.14387 12.3299 5.14387C10.6254 5.14387 9.08741 5.86096 8.00287 7.00813C7.76573 7.25896 7.77683 7.65453 8.02766 7.89166Z" fill="currentColor"/>
</g>
<g id="g1921">
<path id="path1923 (Stroke)" fill-rule="evenodd" clip-rule="evenodd" d="M13.0312 16C13.3764 16 13.6562 15.7202 13.6562 15.375V10.6875C13.6562 10.3423 13.3764 10.0625 13.0312 10.0625C12.6861 10.0625 12.4062 10.3423 12.4062 10.6875V15.375C12.4062 15.7202 12.6861 16 13.0312 16Z" fill="currentColor"/>
</g>
<g id="g1925">
<path id="path1927 (Stroke)" fill-rule="evenodd" clip-rule="evenodd" d="M10.0625 13.0313C10.0625 13.3764 10.3423 13.6562 10.6875 13.6562H15.375C15.7202 13.6562 16 13.3764 16 13.0313C16 12.6861 15.7202 12.4063 15.375 12.4063H10.6875C10.3423 12.4063 10.0625 12.6861 10.0625 13.0313Z" fill="currentColor"/>
</g>
</g>
</g>
</g>
</g>
</g>
</g>
</g>
</g>
</svg>
