<svg width="21" height="20" viewBox="0 0 21 20" fill="none" xmlns="http://www.w3.org/2000/svg">
<g id="Frame" clip-path="url(#clip0_664_17899)">
<path id="Vector (Stroke)" fill-rule="evenodd" clip-rule="evenodd" d="M1.72039 12.8871C2.50179 12.1057 3.5616 11.6667 4.66667 11.6667H10.5C11.6051 11.6667 12.6649 12.1057 13.4463 12.8871C14.2277 13.6685 14.6667 14.7283 14.6667 15.8334V17.5C14.6667 17.9603 14.2936 18.3334 13.8333 18.3334C13.3731 18.3334 13 17.9603 13 17.5V15.8334C13 15.1703 12.7366 14.5344 12.2678 14.0656C11.7989 13.5967 11.163 13.3334 10.5 13.3334H4.66667C4.00363 13.3334 3.36774 13.5967 2.8989 14.0656C2.43006 14.5344 2.16667 15.1703 2.16667 15.8334V17.5C2.16667 17.9603 1.79357 18.3334 1.33333 18.3334C0.873096 18.3334 0.5 17.9603 0.5 17.5V15.8334C0.5 14.7283 0.938987 13.6685 1.72039 12.8871Z" fill="currentColor"/>
<path id="Vector (Stroke)_2" fill-rule="evenodd" clip-rule="evenodd" d="M7.58464 3.33335C6.20392 3.33335 5.08464 4.45264 5.08464 5.83335C5.08464 7.21407 6.20392 8.33335 7.58464 8.33335C8.96535 8.33335 10.0846 7.21407 10.0846 5.83335C10.0846 4.45264 8.96535 3.33335 7.58464 3.33335ZM3.41797 5.83335C3.41797 3.53217 5.28345 1.66669 7.58464 1.66669C9.88582 1.66669 11.7513 3.53217 11.7513 5.83335C11.7513 8.13454 9.88582 10 7.58464 10C5.28345 10 3.41797 8.13454 3.41797 5.83335Z" fill="currentColor"/>
<path id="Vector (Stroke)_3" fill-rule="evenodd" clip-rule="evenodd" d="M17.1654 5.83331C17.6256 5.83331 17.9987 6.20641 17.9987 6.66665V11.6666C17.9987 12.1269 17.6256 12.5 17.1654 12.5C16.7051 12.5 16.332 12.1269 16.332 11.6666V6.66665C16.332 6.20641 16.7051 5.83331 17.1654 5.83331Z" fill="currentColor"/>
<path id="Vector (Stroke)_4" fill-rule="evenodd" clip-rule="evenodd" d="M13.832 9.16665C13.832 8.70641 14.2051 8.33331 14.6654 8.33331H19.6654C20.1256 8.33331 20.4987 8.70641 20.4987 9.16665C20.4987 9.62688 20.1256 9.99998 19.6654 9.99998H14.6654C14.2051 9.99998 13.832 9.62688 13.832 9.16665Z" fill="currentColor"/>
</g>
<defs>
<clipPath id="clip0_664_17899">
<rect width="20" height="20" fill="white" transform="translate(0.5)"/>
</clipPath>
</defs>
</svg>
