<svg width="21" height="20" viewBox="0 0 21 20" fill="none" xmlns="http://www.w3.org/2000/svg">
<g clip-path="url(#clip0_9665_126726)">
<path d="M0.5 14.6381V16.8817C0.5 17.9714 1.42949 19.0932 3.44872 19.0932H12.6795C14.4423 19.0932 15.3397 17.9073 15.3397 16.8817V14.6381C15.3397 12.1701 12.7115 9.57397 10.1795 9.57397H5.66026C2.45513 9.57397 0.5 12.8432 0.5 14.6381Z" fill="currentColor"/>
<path d="M7.90385 0.599609C2.80769 0.599609 2.67949 8.51627 7.90385 8.51627C13.2885 8.51627 12.9679 0.599602 7.90385 0.599609Z" fill="currentColor"/>
<path d="M15.8846 6.42818C15.8846 4.92177 15.8846 4.02434 16.9744 4.02434C18.2053 4.02434 18.1282 5 18.1282 6.42818C19.5 6.42818 20.5 6.33203 20.5 7.54998C20.5 8.76793 19.6026 8.67177 18.1282 8.67177C18.1282 9.85767 18.1923 11.1077 16.9744 11.1077C15.8846 11.1077 15.8846 9.88972 15.8846 8.67177C14.6672 8.67177 13.4487 8.79998 13.4487 7.54998C13.4487 6.29998 14.6667 6.42818 15.8846 6.42818Z" fill="currentColor"/>
</g>
<defs>
<clipPath id="clip0_9665_126726">
<rect width="20" height="20" fill="white" transform="translate(0.5)"/>
</clipPath>
</defs>
</svg>
