<svg width="20" height="20" viewBox="0 0 20 20" fill="none" xmlns="http://www.w3.org/2000/svg">
<path fill-rule="evenodd" clip-rule="evenodd" d="M10 18.125C14.4873 18.125 18.125 14.4873 18.125 10C18.125 5.51269 14.4873 1.875 10 1.875C5.51269 1.875 1.875 5.51269 1.875 10C1.875 14.4873 5.51269 18.125 10 18.125ZM10 20C15.5228 20 20 15.5228 20 10C20 4.47715 15.5228 0 10 0C4.47715 0 0 4.47715 0 10C0 15.5228 4.47715 20 10 20Z" fill="#A3ACBE"/>
<path fill-rule="evenodd" clip-rule="evenodd" d="M10.0016 4.92383L15.0774 9.99965L10.0016 15.0755L4.92578 9.99965L10.0016 4.92383ZM7.57743 9.99965L10.0016 12.4238L12.4258 9.99965L10.0016 7.57548L7.57743 9.99965Z" fill="#A3ACBE"/>
</svg>
