<svg width="1em" height="1em" viewBox="0 0 20 20" fill="none" xmlns="http://www.w3.org/2000/svg">
<g id="ethereum 1">
<path id="Vector" d="M2.88384 10.827L9.75884 13.7018C9.83576 13.7341 9.91815 13.75 9.99991 13.75C10.0817 13.75 10.1641 13.7341 10.241 13.7018L17.116 10.827C17.2918 10.7538 17.4242 10.6043 17.4761 10.4212C17.528 10.2387 17.4938 10.0415 17.3833 9.88708L10.5084 0.26186C10.3912 0.0977503 10.1958 8.4213e-05 10.0002 5.43451e-08C9.8045 -8.41043e-05 9.60875 0.097582 9.49151 0.26186L2.61651 9.88708C2.50605 10.0415 2.47184 10.2387 2.52373 10.4212C2.57561 10.6043 2.70808 10.7538 2.88384 10.827ZM10.625 12.1862V2.57546L15.9112 9.9762L10.625 12.1862ZM9.37495 2.57546V12.1862L4.0887 9.9762L9.37495 2.57546Z" fill="currentColor"/>
<path id="Vector_2" d="M17.4031 12.8308C17.2395 12.5745 16.9142 12.4744 16.6341 12.5891L10.0001 15.3626L3.36621 12.5891C3.08545 12.4726 2.76073 12.5738 2.59716 12.8308C2.43419 13.0884 2.47997 13.4259 2.7064 13.6298L9.5814 19.8389C9.7004 19.9463 9.84995 20 10.0001 20C10.1502 20 10.2998 19.9463 10.4188 19.8389L17.2938 13.6298C17.5203 13.4259 17.566 13.0884 17.4031 12.8308ZM10.0001 18.5327L6.25748 15.1532L9.75906 16.6169C9.91286 16.6816 10.0875 16.6816 10.2413 16.6169L13.7428 15.1532C13.7428 15.1532 10.0001 18.5327 10.0001 18.5327Z" fill="currentColor"/>
</g>
</svg>
