<svg width="20" height="20" viewBox="0 0 20 20" fill="none" xmlns="http://www.w3.org/2000/svg">
<g id="Frame">
<g id="Vector">
<path fill-rule="evenodd" clip-rule="evenodd" d="M2.4002 3.23223C2.86904 2.76339 3.50493 2.5 4.16797 2.5H10.0013C10.6643 2.5 11.3002 2.76339 11.7691 3.23223C12.2379 3.70107 12.5013 4.33696 12.5013 5V6.66667C12.5013 7.1269 12.1282 7.5 11.668 7.5C11.2077 7.5 10.8346 7.1269 10.8346 6.66667V5C10.8346 4.77899 10.7468 4.56702 10.5906 4.41074C10.4343 4.25446 10.2223 4.16667 10.0013 4.16667H4.16797C3.94695 4.16667 3.73499 4.25446 3.57871 4.41074C3.42243 4.56702 3.33464 4.77899 3.33464 5V15C3.33464 15.221 3.42243 15.433 3.57871 15.5893C3.73499 15.7455 3.94696 15.8333 4.16797 15.8333H10.0013C10.2223 15.8333 10.4343 15.7455 10.5906 15.5893C10.7468 15.433 10.8346 15.221 10.8346 15V13.3333C10.8346 12.8731 11.2077 12.5 11.668 12.5C12.1282 12.5 12.5013 12.8731 12.5013 13.3333V15C12.5013 15.663 12.2379 16.2989 11.7691 16.7678C11.3002 17.2366 10.6643 17.5 10.0013 17.5H4.16797C3.50493 17.5 2.86904 17.2366 2.4002 16.7678C1.93136 16.2989 1.66797 15.663 1.66797 15V5C1.66797 4.33696 1.93136 3.70107 2.4002 3.23223Z" fill="currentColor"/>
<path fill-rule="evenodd" clip-rule="evenodd" d="M14.412 6.91074C14.7375 6.58531 15.2651 6.58531 15.5906 6.91074L18.0906 9.41074C18.3289 9.64908 18.4002 10.0075 18.2712 10.3189C18.1422 10.6303 17.8384 10.8333 17.5013 10.8333H7.5013C7.04107 10.8333 6.66797 10.4602 6.66797 10C6.66797 9.53976 7.04107 9.16667 7.5013 9.16667H15.4895L14.412 8.08926C14.0866 7.76382 14.0866 7.23618 14.412 6.91074Z" fill="currentColor"/>
<path fill-rule="evenodd" clip-rule="evenodd" d="M18.0906 9.41074C18.416 9.73618 18.416 10.2638 18.0906 10.5893L15.5906 13.0893C15.2651 13.4147 14.7375 13.4147 14.412 13.0893C14.0866 12.7638 14.0866 12.2362 14.412 11.9107L16.912 9.41074C17.2375 9.08531 17.7651 9.08531 18.0906 9.41074Z" fill="currentColor"/>
</g>
</g>
</svg>
