<svg width="13" height="13" viewBox="0 0 13 13" fill="none" xmlns="http://www.w3.org/2000/svg">
<path d="M0.434315 11.4343C0.121895 11.7467 0.121895 12.2533 0.434315 12.5657C0.746734 12.8781 1.25327 12.8781 1.56569 12.5657L0.434315 11.4343ZM12.8 0.999999C12.8 0.558171 12.4418 0.199999 12 0.199999L4.8 0.199999C4.35817 0.199999 4 0.558171 4 0.999999C4 1.44183 4.35817 1.8 4.8 1.8L11.2 1.8L11.2 8.2C11.2 8.64183 11.5582 9 12 9C12.4418 9 12.8 8.64183 12.8 8.2L12.8 0.999999ZM1.56569 12.5657L12.5657 1.56568L11.4343 0.434314L0.434315 11.4343L1.56569 12.5657Z" fill="#6665B4"/>
</svg>
