<svg width="176" height="176" viewBox="0 0 176 176" fill="none" xmlns="http://www.w3.org/2000/svg">
<g clip-path="url(#clip0_65_16)">
<path d="M88.2967 138.648C93.01 138.648 96.8308 134.827 96.8308 130.114C96.8308 125.4 93.01 121.58 88.2967 121.58C83.5835 121.58 79.7627 125.4 79.7627 130.114C79.7627 134.827 83.5835 138.648 88.2967 138.648Z" fill="white" fill-opacity="0.1"/>
<path d="M88.2969 0.908203C39.9996 0.908203 0.908203 39.9931 0.908203 88.2969C0.908203 136.594 39.9931 175.686 88.2969 175.686C136.594 175.686 175.686 136.601 175.686 88.2969C175.686 39.9996 136.601 0.908203 88.2969 0.908203ZM88.2969 162.031C47.5461 162.031 14.5627 129.053 14.5627 88.2969C14.5627 47.5461 47.5406 14.5627 88.2969 14.5627C129.048 14.5627 162.031 47.5406 162.031 88.2969C162.031 129.048 129.053 162.031 88.2969 162.031Z" fill="white" fill-opacity="0.1"/>
<path d="M88.2972 44.7734C73.2391 44.7734 60.9883 57.0242 60.9883 72.0824C60.9883 75.8531 64.0448 78.9096 67.8155 78.9096C71.5862 78.9096 74.6428 75.8531 74.6428 72.0824C74.6428 64.5533 80.7682 58.4279 88.2972 58.4279C95.8263 58.4279 101.952 64.5533 101.952 72.0824C101.952 79.6115 95.8263 85.7369 88.2972 85.7369C84.5266 85.7369 81.47 88.7934 81.47 92.5641V109.632C81.47 113.403 84.5266 116.459 88.2972 116.459C92.0679 116.459 95.1245 113.403 95.1245 109.632V98.5274C106.89 95.4882 115.606 84.7841 115.606 72.0824C115.606 57.0242 103.355 44.7734 88.2972 44.7734Z" fill="white" fill-opacity="0.1"/>
</g>
<defs>
<clipPath id="clip0_65_16">
<rect width="174.777" height="174.777" fill="white" transform="translate(0.908203 0.908203)"/>
</clipPath>
</defs>
</svg>
