<svg width="1em" height="1em" viewBox="0 0 20 20" fill="none" xmlns="http://www.w3.org/2000/svg">
<path d="M17.3291 15.9458V15.4388C17.3291 15.1843 17.1204 14.9813 16.8589 14.9635V7.02107H17.3677L18 4.97744H15.0704V3H4.74126V4.97744L2 4.97794L2.63182 7.02107H3.14104V14.9636C2.8789 14.9813 2.67013 15.1844 2.67013 15.4389V15.9459C2.37291 15.92 2.10361 16.1375 2.10558 16.4278V17H7.44556V16.4278C7.44753 16.1375 7.17823 15.9201 6.88101 15.9459V15.4389C6.87301 15.1808 6.55721 15.0139 6.32092 14.9713L6.33089 10.5872C6.49585 8.84016 8.03315 7.47066 9.90579 7.47066C11.7779 7.47066 13.3157 8.84016 13.4807 10.5872L13.4905 14.978C13.2772 15.0343 13.1189 15.2174 13.1189 15.4388V15.9458C12.8212 15.9199 12.5518 16.1374 12.5538 16.4277V16.9999H17.8938V16.4277C17.8958 16.1374 17.6269 15.92 17.3291 15.9458Z" fill="currentColor"/>
</svg>
