<svg width="20" height="20" viewBox="0 0 20 20" fill="none" xmlns="http://www.w3.org/2000/svg">
<g clip-path="url(#clip0_10038_133803)">
<path d="M17.5615 6.94523L15.6011 6.23167C16.3099 5.64597 16.6125 4.71695 16.3956 3.83413C15.9691 2.09964 13.8543 1.4412 12.5182 2.62234L11.1646 3.8189L10.8968 2.02437C10.6321 0.25761 8.58665 -0.59239 7.1477 0.460344C6.42821 0.986711 6.04548 1.89409 6.2152 2.81542L4.36684 2.14269C3.45747 1.81163 2.44813 2.28226 2.11708 3.19175L1.31669 5.39085C1.20618 5.69448 1.36274 6.03027 1.66641 6.14073C1.78958 6.18554 10.6798 9.42132 10.8103 9.46882C10.4403 9.46882 2.33755 9.46882 1.98106 9.46882C1.65794 9.46882 1.39599 9.73077 1.39599 10.0539V18.2448C1.39599 19.2126 2.18337 20 3.15118 20H7.83173H10.172H14.8525C15.8204 20 16.6077 19.2126 16.6077 18.2448V11.5789L17.0604 11.7437C17.3626 11.8538 17.6992 11.6989 17.8102 11.394L18.6107 9.19491C18.9416 8.28542 18.471 7.27624 17.5615 6.94523ZM7.24661 18.8299H3.15114C2.82852 18.8299 2.56606 18.5675 2.56606 18.2448V10.639H7.24661V18.8299ZM9.58688 18.8299H8.41677V10.639H9.58688V18.8299ZM13.2932 3.49905C13.9719 2.89902 15.0434 3.23562 15.2592 4.11355C15.4894 5.0496 14.5847 5.86124 13.6791 5.53218C12.9089 5.25183 12.5479 5.12046 11.7766 4.83972L13.2932 3.49905ZM7.83856 1.4048C8.56981 0.869875 9.60563 1.30394 9.73966 2.19788L10.0397 4.20745C9.82372 4.12886 8.34974 3.59234 8.13735 3.51507C7.23173 3.18527 7.06067 1.97378 7.83856 1.4048ZM8.11419 7.2423L2.61638 5.24124L3.21669 3.59195C3.32704 3.28878 3.66349 3.13198 3.96661 3.24226C4.58184 3.46616 8.72485 4.97409 8.91458 5.04316L8.11419 7.2423ZM10.3133 8.04277L9.21376 7.64253L10.0142 5.44343L11.1138 5.84366L10.3133 8.04277ZM15.4375 18.2448C15.4375 18.5675 15.1751 18.8299 14.8525 18.8299H10.757V10.639H14.0252L15.4376 11.153V18.2448H15.4375ZM17.511 8.79464L16.9107 10.444L11.4129 8.44292L12.2133 6.24382L17.1613 8.04472C17.4645 8.15507 17.6213 8.49152 17.511 8.79464Z" fill="currentColor"/>
</g>
<defs>
<clipPath id="clip0_10038_133803">
<rect width="20" height="20" fill="white"/>
</clipPath>
</defs>
</svg>
