<svg width="20" height="20" viewBox="0 0 20 20" fill="none" xmlns="http://www.w3.org/2000/svg">
<path d="M18.9992 7.85295L17.8973 13.334C17.2732 16.4395 15.6019 16.7014 13.4899 16.7199C12.5533 16.7199 12.1491 16.6828 11.4697 16.4395C9.94542 15.8222 9.39488 17.2251 7.35648 16.7199C6.52988 16.5144 5.51977 15.8972 4.58323 16.8134C5.29908 15.9528 6.32818 16.0648 7.22754 16.1961C9.06425 16.458 9.48664 14.4 7.7235 14.587C6.45632 14.7175 6.23563 15.9207 4.50967 15.0601C3.46317 14.5364 3.19049 13.6161 1.86837 13.8331C1.29885 13.9266 0.808402 14.3384 0 13.8896C0.877288 14.1559 1.06485 13.8472 1.72613 13.6224C3.06687 13.1736 3.31605 13.6371 4.12445 14.0868C5.53876 14.8724 6.01573 14.3057 6.25461 13.782C6.64062 12.9214 6.01573 11.9673 4.50967 12.2663C3.95913 12.3783 2.26955 12.9214 1.53472 12.0229C2.28775 12.7522 3.62849 12.1728 4.27078 11.948C6.05212 11.3308 6.58446 11.8731 7.7235 12.6023C9.39488 13.6684 10.1289 12.6958 10.3496 11.7796C10.6431 10.5636 10.3496 10.4702 9.39488 10.5451C8.7518 10.6015 8.1277 10.5266 7.39286 9.81586C6.36456 8.8054 5.39084 9.32917 4.91387 9.75946C5.55695 9.10435 6.36456 8.71193 7.76068 9.42264C10.2579 10.695 11.4705 6.99076 9.39488 6.87875C7.53999 6.78528 7.13579 7.73934 5.17094 8.16963C4.39972 8.33804 3.49122 8.35015 2.4819 7.41463C3.82265 8.46216 6.2783 7.87443 6.35186 6.47074C6.42542 4.95504 4.50676 4.16932 1.58521 6.18757C3.18982 4.68846 3.89774 4.44137 5.26638 4.53576C6.53088 4.68289 7.08121 5.38159 8.25663 5.66281C9.68914 5.99963 11.5986 5.58787 11.9664 4.72729C12.2971 3.96017 11.3423 3.51135 9.87265 4.12858C8.77078 4.59594 8.07312 4.72729 6.73238 3.96017C8.42195 4.82076 9.28493 3.88523 10.2033 3.38C12.04 2.36954 13.0683 3.69829 14.886 3.66042C15.3638 3.62335 15.8779 3.62335 16.4103 3.62335H18.5776L18.0453 6.22364H16.9434L17.2369 4.74582C15.0331 4.74582 14.409 5.04477 14.0048 7.02782L13.4543 9.68452L12.7748 13.0519C12.2971 15.4274 12.4624 15.5958 13.4907 15.5958C14.3173 15.5958 14.8496 15.4653 15.2902 13.3138L16.1714 8.97381H15.1249V7.85134H19L18.9992 7.85295Z" fill="#64748B" fill-opacity="0.8"/>
</svg>
