<svg width="1em" height="1em" viewBox="0 0 16 16" fill="none" xmlns="http://www.w3.org/2000/svg">
<g id="Frame 68">
<path id="Vector" d="M15.9994 6.50851L15.1581 10.4711C14.6815 12.7162 13.4053 12.9056 11.7927 12.919C11.0776 12.919 10.7689 12.8922 10.2501 12.7162C9.08626 12.27 8.66589 13.2842 7.10943 12.919C6.47828 12.7704 5.70699 12.3242 4.99188 12.9866C5.53848 12.3644 6.32426 12.4454 7.01098 12.5403C8.41342 12.7296 8.73595 11.2418 7.38968 11.3769C6.42211 11.4713 5.73478 12.4186 4.4169 11.7964C3.61783 11.4177 3.09901 10.6738 2.07527 10.8224C1.64041 10.8899 0.617266 11.4171 0 11.0927C0.658941 11.3769 1.44411 10.8357 1.94904 10.6732C2.97278 10.3487 3.50549 10.7676 4.12276 11.0927C5.20267 11.6607 6.08569 11.1736 6.26809 10.795C6.56283 10.1728 6.08569 9.48305 4.93571 9.69918C4.51534 9.78015 3.22525 10.1728 2.66415 9.52325C3.23914 10.0505 4.26288 9.6316 4.75331 9.46907C6.11347 9.02283 6.51995 9.41489 7.38968 9.94211C8.66589 10.7128 9.22638 10.0097 9.39489 9.34731C9.61897 8.46823 9.39489 8.40066 8.66589 8.45483C8.17485 8.49561 7.69831 8.44144 7.13722 7.92762C6.35204 7.19709 5.60855 7.57575 5.24435 7.88684C5.73538 7.41322 6.35204 7.12951 7.41807 7.64333C9.32483 8.56319 10.2507 5.88517 8.66589 5.8042C7.24956 5.73662 6.94092 6.42637 5.44064 6.73745C4.85176 6.85921 3.78574 6.87261 3.01506 6.19626C4.03881 6.95358 6.12797 6.54812 6.18414 5.53331C6.24031 4.43751 3.94036 3.76175 1.76724 5.60088C2.97339 4.47829 4.26288 4.05885 5.41286 4.14041C6.49277 4.22138 6.89925 4.7218 7.79676 4.92512C8.89057 5.16862 10.3486 4.87094 10.6294 4.24876C10.8819 3.69417 10.1529 3.36968 9.03069 3.81592C8.18935 4.15381 7.65664 4.24877 6.63289 3.69417C7.92299 4.31634 8.58193 3.63999 9.28315 3.27473C10.6856 2.5442 11.4708 3.50484 12.8587 3.47746C13.2235 3.45066 13.6161 3.45066 14.0226 3.45066H15.6775L15.271 5.33058H14.4297L14.6537 4.26216C12.971 4.26216 12.4945 4.47829 12.1859 5.91197L11.7655 7.83266L11.2467 10.2672C10.8819 11.9846 11.0081 12.1063 11.7933 12.1063C12.4244 12.1063 12.8309 12.0119 13.1673 10.4565L13.8402 7.31885H13.0411V6.50734H16L15.9994 6.50851Z" fill="currentColor"/>
</g>
</svg>
