<svg width="20" height="20" viewBox="0 0 20 20" fill="none" xmlns="http://www.w3.org/2000/svg">
<path d="M19.9993 8.13564L18.9476 13.0889C18.3519 15.8952 16.7566 16.132 14.7409 16.1487C13.847 16.1487 13.4611 16.1152 12.8126 15.8952C11.3578 15.3375 10.8324 16.6052 8.88679 16.1487C8.09785 15.963 7.13374 15.4052 6.23985 16.2332C6.9231 15.4555 7.90533 15.5567 8.76373 15.6754C10.5168 15.912 10.9199 14.0522 9.2371 14.2211C8.02764 14.3391 7.16848 15.5232 5.52113 14.7455C4.52229 14.2721 3.87376 13.3422 2.59409 13.528C2.05051 13.6124 0.771582 14.2714 0 13.8659C0.823676 14.2211 1.80514 13.5446 2.4363 13.3415C3.71598 12.9359 4.38186 13.4595 5.15345 13.8659C6.50334 14.5759 7.60711 13.967 7.83511 13.4937C8.20354 12.716 7.60711 11.8538 6.16964 12.124C5.64417 12.2252 4.03156 12.716 3.33019 11.9041C4.04892 12.5631 5.3286 12.0395 5.94164 11.8363C7.64184 11.2785 8.14994 11.7686 9.2371 12.4276C10.8324 13.391 11.533 12.5121 11.7436 11.6841C12.0237 10.5853 11.7436 10.5008 10.8324 10.5685C10.2186 10.6195 9.62289 10.5518 8.92152 9.90952C7.94005 8.99636 7.01069 9.46969 6.55544 9.85855C7.16922 9.26652 7.94005 8.91189 9.27259 9.55416C11.656 10.704 12.8134 7.35646 10.8324 7.25525C9.06195 7.17077 8.67615 8.03296 6.8008 8.42181C6.0647 8.57401 4.73217 8.59076 3.76882 7.74532C5.04851 8.69197 7.65996 8.18515 7.73018 6.91664C7.80039 5.54689 4.92545 4.70219 2.20905 7.0011C3.71674 5.59786 5.3286 5.07356 6.76607 5.17551C8.11596 5.27672 8.62406 5.90225 9.74595 6.1564C11.1132 6.46077 12.9358 6.08867 13.2868 5.31096C13.6024 4.61771 12.6911 4.2121 11.2884 4.7699C10.2367 5.19226 9.5708 5.31096 8.29111 4.61771C9.90374 5.39542 10.7274 4.54999 11.6039 4.09341C13.357 3.18025 14.3385 4.38105 16.0734 4.34682C16.5294 4.31332 17.0201 4.31332 17.5283 4.31332H19.5969L19.0887 6.66322H18.0371L18.3171 5.3277C16.2137 5.3277 15.6181 5.59786 15.2324 7.38996L14.7069 9.79082L14.0584 12.834C13.6024 14.9807 13.7601 15.1329 14.7416 15.1329C15.5305 15.1329 16.0386 15.0149 16.4591 13.0706L17.3003 9.14856H16.3014V8.13417H20L19.9993 8.13564Z" fill="#A3ACBE"/>
</svg>
