<svg width="1em" height="1em" viewBox="0 0 20 21" fill="none" xmlns="http://www.w3.org/2000/svg">
<g id="connection 1" clip-path="url(#clip0_10326_28737)">
<g id="Group">
<g id="Group_2">
<path id="Vector" d="M17.834 12.4134C16.9892 11.9257 15.9571 12.0473 15.2499 12.6411L13.544 11.6562C13.79 10.9045 13.7902 10.096 13.544 9.34379L15.2504 8.35867C15.961 8.95508 16.992 9.07277 17.8341 8.58656C18.9156 7.96227 19.2856 6.58156 18.6611 5.5C18.0368 4.41852 16.6561 4.0484 15.5745 4.67293C14.7128 5.17039 14.3195 6.13324 14.4786 7.02531L12.7724 8.01039C12.2536 7.4334 11.5578 7.01879 10.7712 6.85281V4.88379C11.639 4.56812 12.2604 3.73516 12.2604 2.75957C12.2604 1.51363 11.2468 0.5 10.0008 0.5C8.75489 0.5 7.7413 1.51363 7.7413 2.75953C7.7413 3.73512 8.36274 4.56809 9.23056 4.88375V6.85285C8.44395 7.01883 7.74817 7.4334 7.22931 8.01043L5.5231 7.02535C5.58052 6.70344 5.56712 6.3702 5.47997 6.045C5.32376 5.46199 4.94993 4.97473 4.4272 4.67297C3.34579 4.04859 1.96509 4.41832 1.34063 5.5C0.71626 6.58141 1.08599 7.96211 2.16767 8.58656C3.00962 9.07277 4.04056 8.95508 4.75134 8.35859L6.45767 9.34379C6.21169 10.0956 6.21157 10.9039 6.45767 11.6562L4.75185 12.6411C4.04454 12.0473 3.01239 11.9256 2.16767 12.4134C1.08618 13.0377 0.716104 14.4184 1.34063 15.5C1.96372 16.5794 3.34337 16.9529 4.4272 16.327C5.28884 15.8296 5.68224 14.8668 5.5231 13.9746L7.22931 12.9896C7.74817 13.5666 8.44392 13.9812 9.23056 14.1471V16.1163C8.36274 16.4319 7.7413 17.2649 7.7413 18.2405C7.7413 19.4864 8.75489 20.5 10.0008 20.5C11.2468 20.5 12.2604 19.4864 12.2604 18.2405C12.2604 17.2649 11.6389 16.4319 10.7711 16.1163V14.1471C11.5577 13.9812 12.2535 13.5666 12.7724 12.9896L14.4786 13.9746C14.3195 14.8662 14.7123 15.8293 15.5745 16.327C16.6544 16.9506 18.0357 16.5833 18.661 15.5C19.2855 14.4186 18.9158 13.0379 17.834 12.4134ZM16.3448 6.00707C16.6887 5.80848 17.1282 5.92605 17.3269 6.27023C17.5256 6.6143 17.4079 7.05367 17.0638 7.25238C16.7205 7.45066 16.2799 7.33254 16.0816 6.98922C15.8829 6.64523 16.0006 6.20582 16.3448 6.00707ZM3.92009 6.9893C3.72181 7.33258 3.28138 7.45074 2.93794 7.25242C2.59388 7.05379 2.47603 6.61453 2.67478 6.27027C2.87267 5.92754 3.31134 5.80766 3.65692 6.00715C4.00099 6.20578 4.11884 6.64508 3.92009 6.9893ZM3.65692 14.9929C3.3136 15.1912 2.87392 15.0747 2.67478 14.7298C2.47614 14.3857 2.59376 13.9463 2.93794 13.7476C3.28122 13.5494 3.72185 13.6675 3.92009 14.0108C4.1188 14.3548 4.00114 14.7942 3.65692 14.9929ZM10.0008 2.04055C10.3973 2.04055 10.7198 2.36309 10.7198 2.75953C10.7198 3.15602 10.3973 3.47852 10.0008 3.47852C9.60438 3.47852 9.28185 3.15598 9.28185 2.75953C9.28185 2.36309 9.60446 2.04055 10.0008 2.04055ZM10.0008 18.9595C9.60438 18.9595 9.28185 18.6369 9.28185 18.2405C9.28185 17.844 9.60438 17.5215 10.0008 17.5215C10.3973 17.5215 10.7198 17.844 10.7198 18.2405C10.7198 18.6369 10.3973 18.9595 10.0008 18.9595ZM10.0008 12.6871C8.79489 12.6871 7.81376 11.7059 7.81376 10.5C7.81376 9.29406 8.79485 8.31293 10.0008 8.31293C11.2068 8.31293 12.1879 9.29406 12.1879 10.5C12.1879 11.7059 11.2068 12.6871 10.0008 12.6871ZM17.3269 14.7297C17.1283 15.0738 16.6891 15.1916 16.3448 14.9929C16.0007 14.7942 15.8829 14.3549 16.0816 14.0107C16.2798 13.6675 16.7203 13.5493 17.0638 13.7475C17.4079 13.9462 17.5256 14.3855 17.3269 14.7297Z" fill="currentColor"/>
</g>
</g>
</g>
<defs>
<clipPath id="clip0_10326_28737">
<rect width="20" height="20" fill="currentColor" transform="translate(0 0.5)"/>
</clipPath>
</defs>
</svg>
