<svg width="1em" height="1em" viewBox="0 0 32 32" fill="none" xmlns="http://www.w3.org/2000/svg">
<path fill-rule="evenodd" clip-rule="evenodd" d="M25.9289 0C26.7671 0 27.4466 0.676861 27.4466 1.51181V4.59843H30.4822C31.3205 4.59843 32 5.27529 32 6.11024C32 6.94519 31.3205 7.62205 30.4822 7.62205H27.4466V10.7087C27.4466 11.5436 26.7671 12.2205 25.9289 12.2205C25.0906 12.2205 24.4111 11.5436 24.4111 10.7087V7.62205H21.1225C20.2843 7.62205 19.6047 6.94519 19.6047 6.11024C19.6047 5.27529 20.2843 4.59843 21.1225 4.59843H24.4111V1.51181C24.4111 0.676861 25.0906 0 25.9289 0ZM0 5.54331C0 3.31677 1.8121 1.51181 4.04743 1.51181H15.6838C16.522 1.51181 17.2016 2.18867 17.2016 3.02362C17.2016 3.85857 16.522 4.53543 15.6838 4.53543H4.04743C3.4886 4.53543 3.03557 4.98667 3.03557 5.54331V27.9685C3.03557 28.5251 3.4886 28.9764 4.04743 28.9764H5.31598L18.893 15.4528C20.4736 13.8784 23.0363 13.8784 24.6169 15.4528L27.3202 18.1454V16.126C27.3202 15.291 27.9997 14.6142 28.8379 14.6142C29.6762 14.6142 30.3557 15.291 30.3557 16.126V27.9685C30.3557 30.195 28.5436 32 26.3083 32H4.04743C1.8121 32 0 30.195 0 27.9685V5.54331ZM27.3202 22.4215L22.4704 17.5909C22.0753 17.1973 21.4346 17.1973 21.0395 17.5909L9.60892 28.9764H26.3083C26.8671 28.9764 27.3202 28.5251 27.3202 27.9685V22.4215ZM7.61384 8.38743C8.53084 7.64759 9.66317 7.30709 10.6245 7.30709C11.3944 7.30709 12.5154 7.52471 13.4876 8.22193C14.5372 8.97466 15.3043 10.2159 15.3043 11.9685C15.3043 13.6971 14.5783 14.9433 13.5287 15.7083C12.5551 16.4179 11.4243 16.6299 10.6245 16.6299C9.57493 16.6299 8.41413 16.3104 7.48955 15.5252C6.52599 14.7069 5.94466 13.4867 5.94466 11.9685C5.94466 10.3749 6.64882 9.16602 7.61384 8.38743ZM9.5245 10.737C9.2247 10.9789 8.98024 11.3448 8.98024 11.9685C8.98024 12.6676 9.22104 13.0222 9.45906 13.2244C9.73607 13.4596 10.1563 13.6063 10.6245 13.6063C10.963 13.6063 11.4133 13.5034 11.7361 13.2681C11.983 13.0882 12.2688 12.7596 12.2688 11.9685C12.2688 11.2014 11.9819 10.8679 11.7139 10.6757C11.3686 10.428 10.9086 10.3307 10.6245 10.3307C10.321 10.3307 9.87233 10.4563 9.5245 10.737Z" fill="currentColor"/>
</svg>
