<svg width="20" height="20" viewBox="0 0 20 20" fill="none" xmlns="http://www.w3.org/2000/svg">
<path fill-rule="evenodd" clip-rule="evenodd" d="M5.92 2.45996L4.805 6.54621L4.7875 6.61871C2.64125 6.95996 1.25 7.50746 1.25 8.12496C1.25 9.15996 5.1675 9.99996 10 9.99996C14.8325 9.99996 18.75 9.15996 18.75 8.12496C18.75 7.50746 17.3587 6.95996 15.2125 6.61871C15.2074 6.59438 15.2015 6.57021 15.195 6.54621L14.08 2.45871C13.8975 1.79246 13.2075 1.39746 12.5312 1.54121C11.7637 1.70371 10.775 1.87496 10 1.87496C9.225 1.87496 8.23625 1.70496 7.46875 1.54121C6.7925 1.39746 6.1025 1.79121 5.92 2.45996ZM5.93875 7.29371C5.94281 7.25282 5.9549 7.21314 5.97432 7.17692C5.99374 7.14071 6.02011 7.10869 6.05193 7.08268C6.08374 7.05667 6.12037 7.03719 6.15972 7.02536C6.19907 7.01352 6.24037 7.00957 6.28125 7.01371C7.40625 7.12871 8.66875 7.19246 10 7.19246C11.2418 7.19536 12.483 7.1357 13.7188 7.01371C13.8013 7.00542 13.8838 7.03027 13.948 7.08278C14.0122 7.13529 14.053 7.21116 14.0612 7.29371C14.0695 7.37626 14.0447 7.45872 13.9922 7.52295C13.9397 7.58718 13.8638 7.62792 13.7812 7.63621C12.6337 7.75246 11.3512 7.81746 10 7.81746C8.64875 7.81746 7.36625 7.75246 6.21875 7.63621C6.17786 7.63215 6.13817 7.62006 6.10196 7.60064C6.06575 7.58122 6.03372 7.55485 6.00771 7.52304C5.98171 7.49122 5.96223 7.45459 5.95039 7.41524C5.93856 7.37589 5.9346 7.33459 5.93875 7.29371ZM4.375 12.5H6.875C7.04076 12.5 7.19973 12.5658 7.31694 12.683C7.43415 12.8002 7.5 12.9592 7.5 13.125V14.375C7.5 14.8722 7.30246 15.3492 6.95083 15.7008C6.59919 16.0524 6.12228 16.25 5.625 16.25C5.12772 16.25 4.65081 16.0524 4.29917 15.7008C3.94754 15.3492 3.75 14.8722 3.75 14.375V13.125C3.75 12.9592 3.81585 12.8002 3.93306 12.683C4.05027 12.5658 4.20924 12.5 4.375 12.5ZM2.5 13.125C2.5 12.9062 2.5375 12.695 2.60625 12.5H2.5C2.33424 12.5 2.17527 12.4341 2.05806 12.3169C1.94085 12.1997 1.875 12.0407 1.875 11.875C1.875 11.7092 1.94085 11.5502 2.05806 11.433C2.17527 11.3158 2.33424 11.25 2.5 11.25H6.875C7.33154 11.25 7.77238 11.4166 8.11483 11.7186C8.45727 12.0205 8.67778 12.437 8.735 12.89C9.55993 12.6408 10.4401 12.6408 11.265 12.89C11.3222 12.437 11.5427 12.0205 11.8852 11.7186C12.2276 11.4166 12.6685 11.25 13.125 11.25H17.5C17.6658 11.25 17.8247 11.3158 17.9419 11.433C18.0592 11.5502 18.125 11.7092 18.125 11.875C18.125 12.0407 18.0592 12.1997 17.9419 12.3169C17.8247 12.4341 17.6658 12.5 17.5 12.5H17.3937C17.4625 12.695 17.5 12.9062 17.5 13.125V14.375C17.5 15.2038 17.1708 15.9986 16.5847 16.5847C15.9987 17.1707 15.2038 17.5 14.375 17.5C13.5462 17.5 12.7513 17.1707 12.1653 16.5847C11.5792 15.9986 11.25 15.2038 11.25 14.375V14.2L10.9875 14.1125C10.3465 13.899 9.65352 13.899 9.0125 14.1125L8.75 14.2V14.375C8.75 15.2038 8.42076 15.9986 7.83471 16.5847C7.24866 17.1707 6.4538 17.5 5.625 17.5C4.7962 17.5 4.00134 17.1707 3.41529 16.5847C2.82924 15.9986 2.5 15.2038 2.5 14.375V13.125ZM13.125 12.5H15.625C15.7908 12.5 15.9497 12.5658 16.0669 12.683C16.1842 12.8002 16.25 12.9592 16.25 13.125V14.375C16.25 14.8722 16.0525 15.3492 15.7008 15.7008C15.3492 16.0524 14.8723 16.25 14.375 16.25C13.8777 16.25 13.4008 16.0524 13.0492 15.7008C12.6975 15.3492 12.5 14.8722 12.5 14.375V13.125C12.5 12.9592 12.5658 12.8002 12.6831 12.683C12.8003 12.5658 12.9592 12.5 13.125 12.5Z" fill="#A3ACBE"/>
</svg>
