<svg width="20" height="20" viewBox="0 0 20 20" fill="none" xmlns="http://www.w3.org/2000/svg">
<g id="Frame" clip-path="url(#clip0_658_17487)">
<path id="Vector (Stroke)" fill-rule="evenodd" clip-rule="evenodd" d="M9.9987 2.49998C5.85656 2.49998 2.4987 5.85784 2.4987 9.99998C2.4987 14.1421 5.85656 17.5 9.9987 17.5C14.1408 17.5 17.4987 14.1421 17.4987 9.99998C17.4987 5.85784 14.1408 2.49998 9.9987 2.49998ZM0.832031 9.99998C0.832031 4.93737 4.93609 0.833313 9.9987 0.833313C15.0613 0.833313 19.1654 4.93737 19.1654 9.99998C19.1654 15.0626 15.0613 19.1666 9.9987 19.1666C4.93609 19.1666 0.832031 15.0626 0.832031 9.99998Z" fill="currentColor"/>
<path id="Vector (Stroke)_2" fill-rule="evenodd" clip-rule="evenodd" d="M10.0013 9.16669C10.4615 9.16669 10.8346 9.53978 10.8346 10V13.3334C10.8346 13.7936 10.4615 14.1667 10.0013 14.1667C9.54106 14.1667 9.16797 13.7936 9.16797 13.3334V10C9.16797 9.53978 9.54106 9.16669 10.0013 9.16669Z" fill="currentColor"/>
<path id="Vector (Stroke)_3" fill-rule="evenodd" clip-rule="evenodd" d="M9.16797 6.66665C9.16797 6.20641 9.54106 5.83331 10.0013 5.83331H10.0096C10.4699 5.83331 10.843 6.20641 10.843 6.66665C10.843 7.12688 10.4699 7.49998 10.0096 7.49998H10.0013C9.54106 7.49998 9.16797 7.12688 9.16797 6.66665Z" fill="currentColor"/>
</g>
<defs>
<clipPath id="clip0_658_17487">
<rect width="20" height="20" fill="white"/>
</clipPath>
</defs>
</svg>
