<svg width="1em" height="1em" viewBox="0 0 16 17" fill="none" xmlns="http://www.w3.org/2000/svg">
<path id="Vector 110 (Stroke)" fill-rule="evenodd" clip-rule="evenodd" d="M3.47826 1.8913C2.32567 1.8913 1.3913 2.82567 1.3913 3.97826V13.0217C1.3913 14.1743 2.32567 15.1087 3.47826 15.1087H12.5217C13.6743 15.1087 14.6087 14.1743 14.6087 13.0217V3.97826C14.6087 2.82567 13.6743 1.8913 12.5217 1.8913H3.47826ZM0 3.97826C0 2.05727 1.55727 0.5 3.47826 0.5H12.5217C14.4427 0.5 16 2.05727 16 3.97826V13.0217C16 14.9427 14.4427 16.5 12.5217 16.5H3.47826C1.55727 16.5 0 14.9427 0 13.0217V3.97826ZM4.86957 4.67391C4.86957 4.28971 5.18102 3.97826 5.56522 3.97826H10.4348C10.819 3.97826 11.1304 4.28971 11.1304 4.67391C11.1304 5.05811 10.819 5.36957 10.4348 5.36957H5.56522C5.18102 5.36957 4.86957 5.05811 4.86957 4.67391ZM3.47826 8.15217C3.47826 7.76798 3.78971 7.45652 4.17391 7.45652H11.8261C12.2103 7.45652 12.5217 7.76798 12.5217 8.15217C12.5217 8.53637 12.2103 8.84783 11.8261 8.84783H4.17391C3.78971 8.84783 3.47826 8.53637 3.47826 8.15217ZM4.86957 11.6304C4.86957 11.2462 5.18102 10.9348 5.56522 10.9348H10.4348C10.819 10.9348 11.1304 11.2462 11.1304 11.6304C11.1304 12.0146 10.819 12.3261 10.4348 12.3261H5.56522C5.18102 12.3261 4.86957 12.0146 4.86957 11.6304Z" fill="currentColor"/>
</svg>
