<svg width="20" height="20" viewBox="0 0 20 20" fill="none" xmlns="http://www.w3.org/2000/svg">
<g id="Frame">
<path id="Vector (Stroke)" fill-rule="evenodd" clip-rule="evenodd" d="M13.6606 3.50269C13.0857 3.33616 12.4816 3.29545 11.8896 3.38333C11.2975 3.47121 10.7313 3.68561 10.2296 4.01195C9.72781 4.33829 9.30225 4.7689 8.98185 5.27447C8.66146 5.78004 8.45375 6.34871 8.37286 6.94176C8.29197 7.53482 8.33981 8.13834 8.51311 8.71124C8.60207 9.00533 8.52198 9.32452 8.30472 9.54178L3.33472 14.5118L3.33464 16.6667H5.0013V15.8334C5.0013 15.3731 5.3744 15 5.83464 15H6.66797V14.1667C6.66797 13.7065 7.04106 13.3334 7.5013 13.3334H8.82279L10.4595 11.6966C10.677 11.4791 10.9966 11.3991 11.2909 11.4885C11.9136 11.6775 12.572 11.7181 13.2133 11.6069C13.8545 11.4957 14.4608 11.2358 14.9835 10.8481C15.5062 10.4604 15.9309 9.95563 16.2234 9.37426C16.5158 8.79305 16.6681 8.15145 16.668 7.50083C16.6674 6.90228 16.5379 6.31089 16.2882 5.76689C16.0386 5.2229 15.6746 4.73908 15.2212 4.34837C14.7678 3.95766 14.2355 3.66922 13.6606 3.50269ZM8.33464 15V15.8334C8.33464 16.2936 7.96154 16.6667 7.5013 16.6667H6.66797V17.5C6.66797 17.9603 6.29487 18.3334 5.83464 18.3334H3.33464C2.89261 18.3334 2.46869 18.1578 2.15612 17.8452C1.84356 17.5326 1.66797 17.1087 1.66797 16.6667V14.5117C1.66806 14.0697 1.84369 13.6457 2.15621 13.3333C2.15618 13.3333 2.15624 13.3332 2.15621 13.3333L6.79133 8.69815C6.65539 8.04766 6.63134 7.37745 6.72148 6.71653C6.83472 5.88625 7.12552 5.09012 7.57407 4.38232C8.02262 3.67452 8.61841 3.07167 9.32086 2.61479C10.0233 2.15792 10.816 1.85775 11.6449 1.73472C12.4737 1.61169 13.3194 1.66869 14.1243 1.90183C14.9291 2.13497 15.6743 2.53878 16.3091 3.08578C16.944 3.63278 17.4535 4.31013 17.803 5.07172C18.1525 5.8333 18.3338 6.66126 18.3346 7.49922C18.3349 8.41036 18.1217 9.30945 17.7122 10.1234C17.3027 10.9373 16.7082 11.644 15.9764 12.1867C15.2446 12.7295 14.3958 13.0933 13.498 13.249C12.7689 13.3755 12.024 13.3618 11.3028 13.2104L9.75722 14.7559C9.60094 14.9122 9.38898 15 9.16797 15H8.33464ZM11.668 5.83336C11.668 5.37312 12.0411 5.00002 12.5013 5.00002C13.1643 5.00002 13.8002 5.26342 14.2691 5.73226C14.7379 6.2011 15.0013 6.83698 15.0013 7.50002C15.0013 7.96026 14.6282 8.33336 14.168 8.33336C13.7077 8.33336 13.3346 7.96026 13.3346 7.50002C13.3346 7.27901 13.2468 7.06705 13.0906 6.91077C12.9343 6.75449 12.7223 6.66669 12.5013 6.66669C12.0411 6.66669 11.668 6.29359 11.668 5.83336Z" fill="currentColor"/>
</g>
</svg>
