<svg width="20" height="20" viewBox="1 0 24 24" fill="none" xmlns="http://www.w3.org/2000/svg">
<path d="M12.316 4.69076L8.90089 7.09076L6.00781 5.05455V2.62802C6.00781 2.41392 6.21725 2.24023 6.47448 2.24023H8.8336L12.316 4.69076ZM17.6896 8.46887L15.7317 7.09266L12.3166 9.49266L15.3732 11.64L17.6896 13.2689V8.46887ZM8.78957 11.9735L7.12982 13.1407C6.58546 13.571 6.20848 14.1793 6.06442 14.8598L8.90089 16.8543L12.316 14.4543L8.78957 11.9735ZM15.7317 16.8543L12.3166 19.2543L14.9248 21.0859H17.2191C17.2859 21.0864 17.3521 21.074 17.4141 21.0493C17.4627 21.0322 17.5078 21.0065 17.5474 20.9735C17.5892 20.941 17.6233 20.8995 17.647 20.8521C17.6707 20.8046 17.6836 20.7525 17.6845 20.6994V18.2287L15.7317 16.8543Z" fill="#A3ACBE"/>
<path d="M16.4906 10.8556L16.4849 10.86L6 18.2325V23.0356L17.688 14.8169V8.46887C17.6882 8.93302 17.5799 9.39072 17.3719 9.80523C17.1639 10.2197 16.8621 10.5795 16.4906 10.8556Z" fill="#818A9D"/>
<path d="M17.688 2.54713V5.0526L7.1283 12.48C6.7766 12.7574 6.49228 13.1115 6.29682 13.5154C6.10135 13.9194 5.99986 14.3626 6 14.8118V8.47008L14.8679 2.2345H17.2453C17.466 2.24018 17.6491 2.37281 17.688 2.54713Z" fill="#818A9D"/>
</svg>
