<svg width="1em" height="1em" viewBox="0 0 24 24" fill="none" xmlns="http://www.w3.org/2000/svg">
<path d="M20.831 5.74813C20.5301 5.47619 20.1713 5.10477 19.5174 5.01191C18.9039 4.91905 18.2789 5.38997 17.8565 5.70169C17.434 6.01342 16.6354 6.92872 16.3056 7.20729C15.9757 7.48586 15.1308 7.74453 13.7708 8.67973C12.4109 9.61492 7.07523 13.5414 7.07523 13.5414L8.46412 13.5613L2.27199 17.2158H2.8912L2 17.9918C2 17.9918 2.78703 18.2306 3.44676 17.7531V17.972C3.44676 17.972 10.8194 14.6424 12.2431 15.5046L11.375 15.7965C11.4502 15.7965 12.8507 15.9026 12.8507 15.9026C12.8507 15.9026 12.897 16.9041 13.7419 17.5475C14.5868 18.1842 14.6042 18.5357 14.6042 18.5357C14.6042 18.5357 14.1644 18.7413 14.1644 19C14.1644 19 14.8125 18.7745 15.4144 18.7944C16.0162 18.8143 16.5428 19 16.5428 19C16.5428 19 16.4965 18.7214 15.912 18.5357C15.3218 18.3434 14.7488 17.6204 14.4653 17.2225C14.1817 16.8245 13.985 16.1148 14.228 15.4051C14.4306 14.8016 15.1366 14.47 16.5949 13.6077C18.3137 12.5863 18.7072 11.8302 18.9502 11.2399C19.1933 10.6496 19.5521 9.47563 19.7546 8.92513C20.0093 8.21545 20.3218 7.83738 20.5822 7.61187C20.8368 7.38637 22 6.88893 22 6.88893C22 6.88893 21.1146 6.0068 20.831 5.74813Z" fill="currentColor"/>
</svg>
