<svg width="20" height="20" viewBox="0 0 20 20" fill="none" xmlns="http://www.w3.org/2000/svg">
<g id="Frame" clip-path="url(#clip0_658_17503)">
<path id="Vector" d="M3.33464 15V14.4583C3.33464 14.175 3.46797 13.9083 3.6763 13.7833C5.08464 12.9416 6.69297 12.5 8.33464 12.5C8.35964 12.5 8.3763 12.5 8.4013 12.5083C8.48464 11.925 8.6513 11.3666 8.89297 10.8583C8.70964 10.8416 8.5263 10.8333 8.33464 10.8333C6.31797 10.8333 4.43464 11.3916 2.8263 12.35C2.09297 12.7833 1.66797 13.6 1.66797 14.4583V16.6666H9.38464C9.03464 16.1666 8.75964 15.6 8.5763 15H3.33464ZM8.33464 9.99998C10.1763 9.99998 11.668 8.50831 11.668 6.66665C11.668 4.82498 10.1763 3.33331 8.33464 3.33331C6.49297 3.33331 5.0013 4.82498 5.0013 6.66665C5.0013 8.50831 6.49297 9.99998 8.33464 9.99998ZM8.33464 4.99998C9.2513 4.99998 10.0013 5.74998 10.0013 6.66665C10.0013 7.58331 9.2513 8.33331 8.33464 8.33331C7.41797 8.33331 6.66797 7.58331 6.66797 6.66665C6.66797 5.74998 7.41797 4.99998 8.33464 4.99998ZM17.293 13.3333C17.293 13.15 17.268 12.9833 17.243 12.8083L18.193 11.9666L17.3596 10.525L16.1513 10.9333C15.8846 10.7083 15.5846 10.5333 15.2513 10.4083L15.0013 9.16665H13.3346L13.0846 10.4083C12.7513 10.5333 12.4513 10.7083 12.1846 10.9333L10.9763 10.525L10.143 11.9666L11.093 12.8083C11.068 12.9833 11.043 13.15 11.043 13.3333C11.043 13.5166 11.068 13.6833 11.093 13.8583L10.143 14.7L10.9763 16.1416L12.1846 15.7333C12.4513 15.9583 12.7513 16.1333 13.0846 16.2583L13.3346 17.5H15.0013L15.2513 16.2583C15.5846 16.1333 15.8846 15.9583 16.1513 15.7333L17.3596 16.1416L18.193 14.7L17.243 13.8583C17.268 13.6833 17.293 13.5166 17.293 13.3333ZM14.168 15C13.2513 15 12.5013 14.25 12.5013 13.3333C12.5013 12.4166 13.2513 11.6666 14.168 11.6666C15.0846 11.6666 15.8346 12.4166 15.8346 13.3333C15.8346 14.25 15.0846 15 14.168 15Z" fill="currentColor"/>
</g>
<defs>
<clipPath id="clip0_658_17503">
<rect width="20" height="20" fill="white"/>
</clipPath>
</defs>
</svg>
