<svg width="20" height="20" viewBox="0 0 20 20" fill="none" xmlns="http://www.w3.org/2000/svg">
<g clip-path="url(#clip0_599_24347)">
<path d="M8.33333 10C10.1743 10 11.6667 8.50766 11.6667 6.66671C11.6667 4.82576 10.1743 3.33337 8.33333 3.33337C6.49238 3.33337 5 4.82576 5 6.66671C5 8.50766 6.49238 10 8.33333 10Z" fill="#A3ACBE"/>
<path d="M8.89297 10.8498C8.70964 10.8415 8.5263 10.8332 8.33464 10.8332C6.31797 10.8332 4.43464 11.3915 2.8263 12.3498C2.09297 12.7832 1.66797 13.5998 1.66797 14.4582V16.6665H9.38464C8.79604 15.8269 8.44046 14.8463 8.35409 13.8245C8.26773 12.8028 8.45366 11.7764 8.89297 10.8498ZM17.293 13.3332C17.293 13.1498 17.268 12.9832 17.243 12.8082L18.193 11.9665L17.3596 10.5248L16.1513 10.9332C15.8846 10.7082 15.5846 10.5332 15.2513 10.4082L15.0013 9.1665H13.3346L13.0846 10.4082C12.7513 10.5332 12.4513 10.7082 12.1846 10.9332L10.9763 10.5248L10.143 11.9665L11.093 12.8082C11.068 12.9832 11.043 13.1498 11.043 13.3332C11.043 13.5165 11.068 13.6832 11.093 13.8582L10.143 14.6998L10.9763 16.1415L12.1846 15.7332C12.4513 15.9582 12.7513 16.1332 13.0846 16.2582L13.3346 17.4998H15.0013L15.2513 16.2582C15.5846 16.1332 15.8846 15.9582 16.1513 15.7332L17.3596 16.1415L18.193 14.6998L17.243 13.8582C17.268 13.6832 17.293 13.5165 17.293 13.3332ZM14.168 14.9998C13.2513 14.9998 12.5013 14.2498 12.5013 13.3332C12.5013 12.4165 13.2513 11.6665 14.168 11.6665C15.0846 11.6665 15.8346 12.4165 15.8346 13.3332C15.8346 14.2498 15.0846 14.9998 14.168 14.9998Z" fill="#A3ACBE"/>
</g>
<defs>
<clipPath id="clip0_599_24347">
<rect width="20" height="20" fill="white"/>
</clipPath>
</defs>
</svg>
