<svg width="1em" height="1em" viewBox="0 0 20 21" fill="none" xmlns="http://www.w3.org/2000/svg">
<path d="M18.2141 18.3567C18.6636 18.3567 19.0532 18.2082 19.3843 17.9151L13.718 12.2486C13.5821 12.3459 13.4503 12.4406 13.3258 12.5306C12.9018 12.843 12.5576 13.0868 12.2933 13.2615C12.0291 13.4366 11.6775 13.6151 11.2387 13.7973C10.7995 13.9797 10.3904 14.0707 10.0109 14.0707H9.99978H9.98867C9.60911 14.0707 9.19999 13.9798 8.76088 13.7973C8.32177 13.6151 7.9702 13.4366 7.70622 13.2615C7.44198 13.0868 7.09801 12.8431 6.67375 12.5306C6.55552 12.444 6.4244 12.3489 6.28264 12.2471L0.615234 17.9151C0.946356 18.2082 1.33616 18.3567 1.78569 18.3567H18.2141Z" fill="currentColor"/>
<path d="M1.12735 8.68107C0.703347 8.39838 0.327345 8.07463 0 7.70996V16.3311L4.99427 11.3369C3.99513 10.6393 2.7078 9.75508 1.12735 8.68107Z" fill="currentColor"/>
<path d="M18.884 8.68107C17.3639 9.70998 16.0718 10.5958 15.0078 11.3389L20.0001 16.3314V7.70996C19.68 8.0673 19.308 8.39083 18.884 8.68107Z" fill="currentColor"/>
<path d="M18.2139 2.64258H1.7856C1.21247 2.64258 0.77183 2.83612 0.463149 3.22279C0.154213 3.60965 0 4.09346 0 4.67368C0 5.14235 0.20465 5.65016 0.613767 6.19726C1.02289 6.74414 1.45822 7.1737 1.91955 7.48616C2.17246 7.66485 2.93514 8.19506 4.20759 9.07662C4.89449 9.55263 5.49184 9.96752 6.00517 10.3255C6.44272 10.6304 6.82007 10.8944 7.13162 11.1135C7.16739 11.1386 7.22363 11.1789 7.29829 11.2322C7.37872 11.29 7.4805 11.3633 7.60606 11.454C7.84786 11.6289 8.04873 11.7702 8.20872 11.8782C8.36849 11.9862 8.56206 12.1069 8.78915 12.2409C9.01606 12.3747 9.23008 12.4753 9.43095 12.5422C9.63186 12.6091 9.81784 12.6427 9.98894 12.6427H10.0001H10.0112C10.1822 12.6427 10.3682 12.6091 10.5692 12.5422C10.77 12.4753 10.9839 12.3749 11.211 12.2409C11.4378 12.1069 11.6312 11.986 11.7914 11.8782C11.9514 11.7702 12.1523 11.6289 12.3941 11.454C12.5194 11.3633 12.6212 11.29 12.7016 11.2324C12.7763 11.1788 12.8325 11.1388 12.8685 11.1135C13.1112 10.9447 13.4894 10.6817 13.9979 10.3286C14.9232 9.68574 16.2859 8.73951 18.0917 7.48616C18.6348 7.10682 19.0886 6.64904 19.4533 6.11349C19.8173 5.57793 19.9998 5.01617 19.9998 4.42836C19.9998 3.93725 19.8228 3.51702 19.4697 3.16702C19.1162 2.81745 18.6976 2.64258 18.2139 2.64258Z" fill="currentColor"/>
</svg>
