<svg width="1em" height="1em" viewBox="0 0 24 25" fill="none" xmlns="http://www.w3.org/2000/svg">
<g id="megaphone 1" clip-path="url(#clip0_10326_26655)">
<path id="Vector" d="M17.972 3.55413L5.606 8.50013H2.25C1.01 8.50013 0 9.51013 0 10.7501V13.5001C0 14.6781 0.925 15.5001 2.25 15.5001H3.1L4.008 21.8561C4.061 22.2261 4.377 22.5001 4.75 22.5001H7.75C7.964 22.5001 8.167 22.4091 8.31 22.2501C8.452 22.0911 8.52 21.8791 8.496 21.6661L7.906 16.4201L17.971 20.4461C18.062 20.4821 18.156 20.5001 18.25 20.5001C18.397 20.5001 18.545 20.4561 18.671 20.3711C18.877 20.2311 19 19.9991 19 19.7501V4.25013C19 4.00113 18.877 3.76913 18.671 3.62913C18.464 3.48913 18.202 3.46113 17.972 3.55413ZM1.5 13.5001V10.7501C1.5 10.3371 1.837 10.0001 2.25 10.0001H5V14.0001H2.25C1.908 14.0001 1.5 13.9131 1.5 13.5001ZM6.911 21.0001H5.4L4.615 15.5001H5.606L6.327 15.7881L6.911 21.0001ZM17.5 18.6431L7.324 14.5721C7.281 14.5521 7.24 14.5311 7.193 14.5191L6.5 14.2421V9.75813L17.5 5.35813V18.6431Z" fill="currentColor"/>
<path id="Vector_2" d="M21.2194 9.83524L23.7194 7.83523C24.0424 7.57623 24.0954 7.10423 23.8364 6.78023C23.5764 6.45823 23.1054 6.40623 22.7814 6.66323L20.2814 8.66323C19.9584 8.92223 19.9054 9.39423 20.1644 9.71823C20.3124 9.90223 20.5304 9.99923 20.7504 9.99923C20.9154 9.99923 21.0804 9.94524 21.2194 9.83524Z" fill="currentColor"/>
<path id="Vector_3" d="M21.2194 15.1632C20.8974 14.9062 20.4254 14.9582 20.1644 15.2802C19.9054 15.6032 19.9584 16.0762 20.2814 16.3352L22.7814 18.3352C22.9204 18.4452 23.0854 18.4992 23.2504 18.4992C23.4704 18.4992 23.6884 18.4022 23.8364 18.2182C24.0954 17.8952 24.0424 17.4222 23.7194 17.1632L21.2194 15.1632Z" fill="currentColor"/>
<path id="Vector_4" d="M23.25 11.75H20.75C20.336 11.75 20 12.086 20 12.5C20 12.914 20.336 13.25 20.75 13.25H23.25C23.664 13.25 24 12.914 24 12.5C24 12.086 23.664 11.75 23.25 11.75Z" fill="currentColor"/>
</g>
<defs>
<clipPath id="clip0_10326_26655">
<rect width="24" height="24" fill="white" transform="translate(0 0.5)"/>
</clipPath>
</defs>
</svg>
