<svg width="1em" height="1em" viewBox="0 0 18 20" fill="none" xmlns="http://www.w3.org/2000/svg">
<path d="M16.9263 2.89208L9.21797 0.03875C9.07797 -0.0129167 8.9238 -0.0129167 8.7838 0.03875L1.0763 2.89208C0.830469 2.98208 0.667969 3.21625 0.667969 3.47792V10.1454C0.667969 17.7313 8.75964 19.9571 8.8413 19.9788C8.8938 19.9921 8.94797 19.9996 9.0013 19.9996C9.05464 19.9996 9.1088 19.9921 9.1613 19.9788C9.24297 19.9571 17.3346 17.7304 17.3346 10.1454V3.47792C17.3346 3.21625 17.1721 2.98208 16.9263 2.89208ZM14.8255 7.53625L13.9196 12.8138C13.868 13.1138 13.608 13.3329 13.3038 13.3329H4.6988C4.39464 13.3329 4.13464 13.1138 4.08297 12.8138L3.17714 7.53625C3.13714 7.30542 3.23047 7.07125 3.41797 6.93042C3.60547 6.78958 3.8563 6.76625 4.06714 6.86875L6.4788 8.04292L8.45547 4.48708C8.67547 4.08958 9.32797 4.08958 9.54797 4.48708L11.5246 8.04292L13.9363 6.86875C14.1471 6.76625 14.3971 6.78958 14.5855 6.93042C14.7721 7.07125 14.8655 7.30542 14.8255 7.53625Z" fill="currentColor"/>
</svg>
