<svg width="20" height="20" viewBox="0 0 20 20" fill="none" xmlns="http://www.w3.org/2000/svg">
<g id="Frame" clip-path="url(#clip0_664_17925)">
<path id="Vector" d="M7.80834 4.59167C7.65782 5.13155 7.58211 5.68953 7.58334 6.25C7.58334 9.65 10.35 12.4167 13.75 12.4167C14.3167 12.4167 14.875 12.3417 15.4083 12.1917C14.9706 13.2673 14.2224 14.1881 13.2591 14.8367C12.2959 15.4853 11.1613 15.8322 10 15.8333C6.78334 15.8333 4.16667 13.2167 4.16667 10C4.16667 7.55833 5.675 5.45833 7.80834 4.59167ZM10 2.5C8.51664 2.5 7.0666 2.93987 5.83323 3.76398C4.59986 4.58809 3.63856 5.75943 3.07091 7.12987C2.50325 8.50032 2.35472 10.0083 2.64411 11.4632C2.9335 12.918 3.64781 14.2544 4.6967 15.3033C5.7456 16.3522 7.08197 17.0665 8.53683 17.3559C9.99168 17.6453 11.4997 17.4968 12.8701 16.9291C14.2406 16.3614 15.4119 15.4001 16.236 14.1668C17.0601 12.9334 17.5 11.4834 17.5 10C17.5 9.61667 17.4667 9.23333 17.4167 8.86667C17.0003 9.45055 16.4501 9.92622 15.8122 10.2539C15.1743 10.5815 14.4671 10.7517 13.75 10.75C12.796 10.75 11.8667 10.447 11.096 9.88472C10.3253 9.3224 9.75321 8.52984 9.46212 7.62134C9.17102 6.71284 9.17602 5.73536 9.47639 4.82988C9.77676 3.9244 10.357 3.13773 11.1333 2.58333C10.7667 2.53333 10.3833 2.5 10 2.5Z" fill="currentColor"/>
</g>
<defs>
<clipPath id="clip0_664_17925">
<rect width="20" height="20" fill="white"/>
</clipPath>
</defs>
</svg>
