<svg width="1em" height="1em" viewBox="0 0 20 20" fill="none" xmlns="http://www.w3.org/2000/svg">
<g clip-path="url(#clip0_9772_132225)">
<path fill-rule="evenodd" clip-rule="evenodd" d="M10.5879 1.75411C10.2226 1.54863 9.77658 1.54863 9.41128 1.75411L2.89528 5.12911C2.51743 5.34165 2.28359 5.74147 2.28359 6.175V13.3968C2.28359 13.8106 2.49674 14.1951 2.84759 14.4144L9.3636 18.1644C9.75272 18.4076 10.2465 18.4076 10.6356 18.1644L17.1516 14.4144C17.5025 14.1951 17.7156 13.8106 17.7156 13.3968V6.175C17.7156 5.74147 17.4818 5.34165 17.1039 5.12911L10.5879 1.75411ZM8.62686 0.359588C9.47922 -0.119863 10.52 -0.119862 11.3723 0.359589L17.8884 3.73459C18.77 4.23052 19.3156 5.16343 19.3156 6.175V13.3968C19.3156 14.3622 18.8183 15.2595 17.9996 15.7712L11.4836 19.5212C10.5756 20.0887 9.42356 20.0887 8.5156 19.5212L1.9996 15.7712C1.18093 15.2595 0.683594 14.3622 0.683594 13.3968V6.175C0.683594 5.16343 1.22921 4.23052 2.11086 3.73459L8.62686 0.359588Z" fill="#A3ACBE"/>
<path d="M7.88757 12.2731C7.82148 12.348 7.7247 12.4042 7.59724 12.4417C7.4745 12.4845 7.3258 12.5059 7.15113 12.5059C6.97646 12.5059 6.81123 12.4764 6.65544 12.4176C6.49966 12.3587 6.3722 12.2169 6.27306 11.9922L5.57202 10.371C5.50121 10.2052 5.43748 10.05 5.38083 9.90554C5.32418 9.75573 5.26281 9.58451 5.19672 9.39189L5.15423 9.39992C5.17312 9.68884 5.18256 9.98312 5.18256 10.2827C5.18728 10.5824 5.18964 10.8766 5.18964 11.1656V12.4096C5.13771 12.4256 5.05746 12.4417 4.94888 12.4577C4.84502 12.4738 4.74116 12.4818 4.63731 12.4818C4.53345 12.4818 4.44139 12.4738 4.36114 12.4577C4.28089 12.4417 4.2148 12.4096 4.16287 12.3614C4.11094 12.3132 4.07081 12.249 4.04249 12.1688C4.01416 12.0832 4 11.9735 4 11.8397V7.82689C4.06609 7.71988 4.16759 7.63962 4.30449 7.58612C4.44139 7.53261 4.58774 7.50586 4.74352 7.50586C4.91819 7.50586 5.08342 7.53796 5.23921 7.60217C5.39971 7.66102 5.52717 7.80013 5.62159 8.0195L6.32971 9.64069C6.40052 9.80655 6.46425 9.96439 6.5209 10.1142C6.57755 10.2587 6.63892 10.4272 6.70501 10.6198L6.74042 10.6118C6.72153 10.3229 6.70973 10.0339 6.70501 9.74502C6.70029 9.4561 6.69793 9.16718 6.69793 8.87825V7.57809C6.74986 7.56204 6.82775 7.54599 6.93161 7.52994C7.04019 7.51388 7.14641 7.50586 7.25026 7.50586C7.45798 7.50586 7.61612 7.54866 7.7247 7.63427C7.83328 7.71453 7.88757 7.88574 7.88757 8.14791V12.2731Z" fill="currentColor"/>
<path d="M11.6952 7.57809C11.7282 7.63695 11.7566 7.7172 11.7802 7.81886C11.8085 7.91517 11.8227 8.01683 11.8227 8.12384C11.8227 8.3325 11.7825 8.48232 11.7023 8.57327C11.6267 8.65888 11.5229 8.70169 11.3907 8.70169H9.90366V9.60859H11.4544C11.4922 9.66744 11.5229 9.74502 11.5465 9.84133C11.5748 9.93764 11.589 10.0393 11.589 10.1463C11.589 10.3496 11.5489 10.4968 11.4686 10.5877C11.3931 10.6733 11.2892 10.7161 11.157 10.7161H9.91782V12.4096C9.86589 12.4256 9.78328 12.4417 9.66998 12.4577C9.5614 12.4738 9.45282 12.4818 9.34425 12.4818C9.23567 12.4818 9.13889 12.4711 9.05392 12.4497C8.97366 12.4336 8.90521 12.4015 8.84856 12.3534C8.79191 12.3052 8.74943 12.2383 8.7211 12.1527C8.69278 12.0671 8.67861 11.9548 8.67861 11.8157V8.32448C8.67861 8.09441 8.73762 7.91249 8.85564 7.77873C8.97366 7.64497 9.13417 7.57809 9.33716 7.57809H11.6952Z" fill="currentColor"/>
<path d="M12.4665 8.70169C12.4334 8.64283 12.4028 8.56257 12.3744 8.46092C12.3461 8.35926 12.332 8.25225 12.332 8.13989C12.332 7.93122 12.3721 7.78141 12.4523 7.69045C12.5373 7.59949 12.6459 7.55401 12.7781 7.55401H15.8655C15.8985 7.61287 15.9292 7.69312 15.9575 7.79478C15.9858 7.89644 16 8.00345 16 8.11581C16 8.32448 15.9575 8.47429 15.8725 8.56525C15.7923 8.65621 15.6861 8.70169 15.5539 8.70169H14.7679V12.4096C14.7159 12.4256 14.6333 12.4417 14.52 12.4577C14.4115 12.4738 14.3029 12.4818 14.1943 12.4818C14.0857 12.4818 13.9889 12.4711 13.904 12.4497C13.8237 12.4336 13.7553 12.4015 13.6986 12.3534C13.642 12.3052 13.5995 12.2383 13.5712 12.1527C13.5428 12.0671 13.5287 11.9548 13.5287 11.8157V8.70169H12.4665Z" fill="currentColor"/>
</g>
<defs>
<clipPath id="clip0_9772_132225">
<rect width="20" height="20" fill="white"/>
</clipPath>
</defs>
</svg>
