<svg width="1em" height="1em" viewBox="0 0 24 24" fill="none" xmlns="http://www.w3.org/2000/svg" class="w-4 h-4 [&amp;_path]:fill-textTertiary [&amp;_path]:hover:fill-textSecondary"><path fill-rule="evenodd" clip-rule="evenodd" d="M21.4827 19.4776C20.3126 20.7589 18.8586 21.7482 17.2372 22.366C15.6158 22.9839 13.8722 23.2132 12.1462 23.0355C10.4202 22.8578 8.75987 22.2781 7.29837 21.3428C5.83688 20.4076 4.6149 19.1428 3.73046 17.65C2.84603 16.1572 2.32375 14.4779 2.20551 12.7469C2.08728 11.0158 2.37638 9.28106 3.04963 7.68187C3.72288 6.08269 4.76155 4.66355 6.08231 3.53827C7.40307 2.41299 8.96916 1.6129 10.655 1.20218L11.0076 2.64946C9.54793 3.00508 8.19194 3.69784 7.04836 4.67215C5.90479 5.64646 5.00547 6.87522 4.42254 8.25987C3.83961 9.64451 3.58929 11.1465 3.69166 12.6454C3.79404 14.1442 4.24625 15.5982 5.01204 16.8907C5.77782 18.1833 6.83586 19.2783 8.10129 20.0881C9.36671 20.8979 10.8043 21.3998 12.2988 21.5537C13.7932 21.7075 15.3029 21.509 16.7068 20.974C18.1107 20.4391 19.3696 19.5825 20.3827 18.4731L21.4827 19.4776ZM13.2833 20.6025C11.8356 20.6025 10.4112 20.2376 9.14192 19.5414C7.87259 18.8453 6.79924 17.8404 6.02106 16.6196C5.24288 15.3989 4.785 14.0016 4.68973 12.5571C4.59446 11.1125 4.86488 9.66725 5.47599 8.35486C6.0871 7.04247 7.01919 5.90531 8.18609 5.04848C9.353 4.19165 10.7171 3.64281 12.1522 3.45268C13.5874 3.26256 15.0473 3.43728 16.3971 3.9607C17.7468 4.48412 18.9429 5.33935 19.8746 6.44734L18.6772 7.45434C17.9147 6.54764 16.9359 5.84778 15.8314 5.41945C14.7268 4.99112 13.5321 4.84814 12.3577 5.00372C11.1833 5.15931 10.067 5.60844 9.11211 6.30961C8.15719 7.01078 7.39444 7.94135 6.89435 9.01531C6.39426 10.0893 6.17297 11.272 6.25093 12.4541C6.32889 13.6362 6.70359 14.7796 7.3404 15.7786C7.9772 16.7776 8.85556 17.5999 9.89429 18.1696C10.933 18.7393 12.0986 19.0379 13.2833 19.0379V20.6025ZM14.2446 18.0383C15.2973 17.871 16.2882 17.4318 17.1192 16.764L16.1605 15.571C15.5372 16.0718 14.794 16.4013 14.0043 16.5268C13.2146 16.6523 12.4059 16.5695 11.658 16.2866C10.9102 16.0037 10.2491 15.5305 9.74024 14.9137C9.23135 14.297 8.89227 13.5581 8.75652 12.7701C8.62078 11.9822 8.69307 11.1724 8.96624 10.4209C9.23942 9.66948 9.70402 9.00234 10.3141 8.4855C10.9242 7.96866 11.6586 7.62002 12.4448 7.47405C13.2309 7.32809 14.0415 7.38987 14.7965 7.65328L15.3007 6.20817C14.2942 5.857 13.2134 5.77464 12.1654 5.96923C11.1173 6.16382 10.1381 6.62863 9.32477 7.31769C8.51141 8.00674 7.892 8.89618 7.5278 9.89804C7.1636 10.8999 7.06722 11.9795 7.2482 13.03C7.42918 14.0805 7.88125 15.0656 8.55969 15.8878C9.23814 16.7101 10.1195 17.341 11.1165 17.7181C12.1135 18.0953 13.1918 18.2057 14.2446 18.0383Z" fill="currentColor"></path></svg>