<svg width="20" height="20" viewBox="0 0 20 21" fill="none" xmlns="http://www.w3.org/2000/svg">
<path d="M10.0013 5.08333C11.8423 5.08333 13.3346 4.33714 13.3346 3.41667C13.3346 2.49619 11.8423 1.75 10.0013 1.75C8.16035 1.75 6.66797 2.49619 6.66797 3.41667C6.66797 4.33714 8.16035 5.08333 10.0013 5.08333Z" fill="currentColor"/>
<path d="M10.0013 19.2501C11.8423 19.2501 13.3346 18.5039 13.3346 17.5834C13.3346 16.6629 11.8423 15.9167 10.0013 15.9167C8.16035 15.9167 6.66797 16.6629 6.66797 17.5834C6.66797 18.5039 8.16035 19.2501 10.0013 19.2501Z" fill="currentColor"/>
<path d="M5.56437 7.96434C6.43105 6.4632 6.42556 4.83748 5.5521 4.33319C4.67865 3.8289 3.26799 4.63701 2.4013 6.13815C1.53462 7.63929 1.54011 9.26501 2.41356 9.7693C3.28702 10.2736 4.69768 9.46548 5.56437 7.96434Z" fill="currentColor"/>
<path d="M17.4745 14.8418C18.3412 13.3406 18.3357 11.7149 17.4623 11.2106C16.5888 10.7063 15.1781 11.5144 14.3115 13.0156C13.4448 14.5167 13.4503 16.1425 14.3237 16.6467C15.1972 17.151 16.6078 16.3429 17.4745 14.8418Z" fill="currentColor"/>
<path d="M5.5521 16.6461C6.42556 16.1418 6.43105 14.516 5.56437 13.0149C4.69768 11.5138 3.28702 10.7057 2.41356 11.2099C1.54011 11.7142 1.53462 13.34 2.4013 14.8411C3.26799 16.3422 4.67865 17.1503 5.5521 16.6461Z" fill="currentColor"/>
<path d="M17.4623 9.76862C18.3357 9.26433 18.3412 7.6386 17.4745 6.13746C16.6078 4.63632 15.1972 3.82822 14.3237 4.33251C13.4503 4.8368 13.4448 6.46252 14.3115 7.96366C15.1781 9.4648 16.5888 10.2729 17.4623 9.76862Z" fill="currentColor"/>
</svg>
