<svg width="1em" height="1em" viewBox="0 0 16 16" fill="none" xmlns="http://www.w3.org/2000/svg">
<g id="reply 3">
<g id="Group">
<g id="Group_2">
<path id="Vector" d="M15.8538 7.14704L10.8538 2.14612C10.7108 2.00312 10.4978 1.96112 10.3088 2.03812C10.1218 2.11512 9.99984 2.29812 9.99984 2.50011V5.00008H8.49987C3.81294 5.00008 0 8.81302 0 13.4999C0 13.7229 0.147998 13.9189 0.361994 13.9799C0.407994 13.9939 0.453993 13.9999 0.499992 13.9999C0.66899 13.9999 0.830987 13.9139 0.923986 13.7649L1.07398 13.5249C2.43096 11.351 4.86592 10 7.42988 10H9.99984V12.5C9.99984 12.702 10.1218 12.885 10.3088 12.962C10.4968 13.038 10.7108 12.996 10.8538 12.854L15.8538 7.85403C16.0487 7.65903 16.0487 7.34204 15.8538 7.14704ZM10.9998 11.293V9.50001C10.9998 9.22401 10.7758 9.00001 10.4998 9.00001H7.42988C5.07092 9.00001 2.80696 10.009 1.21698 11.707C2.02197 8.43502 4.98192 6.00006 8.49987 6.00006H10.4998C10.7758 6.00006 10.9998 5.77606 10.9998 5.50007V3.7071L14.7928 7.50004L10.9998 11.293Z" fill="currentColor"/>
</g>
</g>
</g>
</svg>
