<svg width="1em" viewBox="0 0 17 17" fill="none" xmlns="http://www.w3.org/2000/svg">
<path fill-rule="evenodd" clip-rule="evenodd" d="M16.3536 0.646461C16.495 0.787892 16.5385 1 16.4642 1.18571L10.4642 16.1857C10.3911 16.3685 10.2175 16.4914 10.0208 16.4996C9.82406 16.5078 9.64084 16.3997 9.55279 16.2236L6.62732 10.3727L0.776395 7.44723C0.600286 7.35917 0.492252 7.17596 0.500434 6.97924C0.508617 6.78251 0.631494 6.6089 0.814307 6.53578L15.8143 0.535776C16 0.461493 16.2121 0.50503 16.3536 0.646461ZM7.60838 10.0987L9.94928 14.7805L14.6311 3.07605L7.60838 10.0987ZM13.924 2.36895L2.21948 7.05074L6.90128 9.39163L13.924 2.36895Z" fill="currentColor"/>
</svg>
