<svg width="20" height="20" viewBox="0 0 20 20" fill="none" xmlns="http://www.w3.org/2000/svg">
<g id="Frame">
<path id="Vector" d="M4.58464 12.5C5.31388 12.4959 6.01528 12.2195 6.55131 11.725L11.768 14.7083C11.7015 14.9386 11.6679 15.177 11.668 15.4167C11.6626 16.093 11.8905 16.7504 12.3131 17.2784C12.7358 17.8064 13.3275 18.1726 13.9885 18.3153C14.6496 18.4581 15.3397 18.3687 15.9426 18.0623C16.5454 17.7558 17.0243 17.251 17.2985 16.6327C17.5728 16.0145 17.6256 15.3207 17.4481 14.6681C17.2707 14.0155 16.8738 13.444 16.3242 13.0497C15.7747 12.6555 15.1061 12.4627 14.4311 12.5037C13.756 12.5447 13.1157 12.8171 12.618 13.275L7.40131 10.2917C7.46426 10.0863 7.49793 9.8731 7.50131 9.65834L12.6263 6.72501C13.1214 7.17237 13.7552 7.43591 14.4215 7.47142C15.0878 7.50694 15.746 7.31226 16.2858 6.92005C16.8256 6.52784 17.2141 5.96194 17.3862 5.31727C17.5583 4.6726 17.5035 3.98837 17.2309 3.37932C16.9584 2.77027 16.4847 2.27346 15.8894 1.9722C15.294 1.67093 14.6132 1.58355 13.961 1.72469C13.3089 1.86584 12.7251 2.22693 12.3076 2.74741C11.8901 3.2679 11.6643 3.91611 11.668 4.58334C11.6708 4.82276 11.7044 5.06083 11.768 5.29167L7.02631 8.00001C6.75156 7.57497 6.37095 7.22874 5.92188 6.99534C5.4728 6.76195 4.97072 6.64942 4.46499 6.66883C3.95926 6.68823 3.46729 6.8389 3.03742 7.10602C2.60755 7.37314 2.25458 7.74752 2.01322 8.19236C1.77185 8.6372 1.65039 9.13719 1.66077 9.64318C1.67115 10.1492 1.81302 10.6438 2.07243 11.0783C2.33184 11.5129 2.69987 11.8725 3.14033 12.1217C3.58079 12.371 4.07854 12.5014 4.58464 12.5ZM14.5846 14.1667C14.8319 14.1667 15.0735 14.24 15.2791 14.3773C15.4847 14.5147 15.6449 14.7099 15.7395 14.9383C15.8341 15.1667 15.8589 15.4181 15.8106 15.6605C15.7624 15.903 15.6433 16.1257 15.4685 16.3006C15.2937 16.4754 15.071 16.5944 14.8285 16.6427C14.586 16.6909 14.3347 16.6661 14.1063 16.5715C13.8779 16.4769 13.6827 16.3167 13.5453 16.1111C13.408 15.9056 13.3346 15.6639 13.3346 15.4167C13.3346 15.0852 13.4663 14.7672 13.7008 14.5328C13.9352 14.2984 14.2531 14.1667 14.5846 14.1667ZM14.5846 3.33334C14.8319 3.33334 15.0735 3.40665 15.2791 3.544C15.4847 3.68135 15.6449 3.87658 15.7395 4.10499C15.8341 4.33339 15.8589 4.58473 15.8106 4.8272C15.7624 5.06968 15.6433 5.29241 15.4685 5.46722C15.2937 5.64204 15.071 5.76109 14.8285 5.80932C14.586 5.85755 14.3347 5.8328 14.1063 5.73819C13.8779 5.64358 13.6827 5.48336 13.5453 5.2778C13.408 5.07224 13.3346 4.83057 13.3346 4.58334C13.3346 4.25182 13.4663 3.93388 13.7008 3.69946C13.9352 3.46504 14.2531 3.33334 14.5846 3.33334ZM4.58464 8.33334C4.83187 8.33334 5.07354 8.40665 5.2791 8.544C5.48466 8.68135 5.64488 8.87658 5.73949 9.10499C5.8341 9.33339 5.85885 9.58473 5.81062 9.8272C5.76239 10.0697 5.64334 10.2924 5.46852 10.4672C5.29371 10.642 5.07098 10.7611 4.8285 10.8093C4.58603 10.8576 4.33469 10.8328 4.10628 10.7382C3.87788 10.6436 3.68265 10.4834 3.5453 10.2778C3.40795 10.0722 3.33464 9.83057 3.33464 9.58334C3.33464 9.25182 3.46634 8.93388 3.70076 8.69946C3.93518 8.46504 4.25312 8.33334 4.58464 8.33334Z" fill="currentColor"/>
</g>
</svg>
