<svg width="20" height="20" viewBox="0 0 20 20" fill="none" xmlns="http://www.w3.org/2000/svg">
<g id="Frame">
<path id="Vector" d="M14.7644 12.6563C14.0513 12.656 13.3665 12.9352 12.8569 13.434L7.88935 10.641C7.99143 10.2198 7.99143 9.78025 7.88935 9.359L12.8554 6.56603C13.3193 7.01731 13.9287 7.28872 14.5745 7.33169C15.2203 7.37465 15.8603 7.18636 16.3799 6.80052C16.8995 6.41468 17.2649 5.85648 17.4105 5.22587C17.5561 4.59525 17.4726 3.93339 17.1748 3.35877C16.8769 2.78414 16.3843 2.33429 15.7851 2.08973C15.1859 1.84517 14.5191 1.82187 13.9043 2.02402C13.2895 2.22616 12.7666 2.64054 12.4295 3.19298C12.0923 3.74542 11.9627 4.39983 12.064 5.03908L6.98076 7.89845C6.58149 7.5658 6.09569 7.35381 5.58027 7.28733C5.06485 7.22084 4.54116 7.30262 4.07054 7.52307C3.59993 7.74352 3.20188 8.09352 2.92304 8.53207C2.64419 8.97062 2.49609 9.47954 2.49609 9.99923C2.49609 10.5189 2.64419 11.0279 2.92304 11.4664C3.20188 11.9049 3.59993 12.2549 4.07054 12.4754C4.54116 12.6958 5.06485 12.7776 5.58027 12.7111C6.09569 12.6447 6.58149 12.4327 6.98076 12.1L12.064 14.961C11.9761 15.5132 12.0596 16.0791 12.3034 16.5824C12.5471 17.0857 12.9393 17.5022 13.427 17.7757C13.9148 18.0492 14.4746 18.1665 15.0312 18.112C15.5877 18.0574 16.1141 17.8335 16.5395 17.4705C16.9648 17.1075 17.2686 16.6228 17.41 16.0818C17.5513 15.5407 17.5234 14.9693 17.3299 14.4447C17.1364 13.92 16.7868 13.4673 16.328 13.1475C15.8693 12.8277 15.3236 12.6563 14.7644 12.6563Z" fill="currentColor"/>
</g>
</svg>
