<svg width="1em" height="1em" viewBox="0 0 21 20" fill="none" xmlns="http://www.w3.org/2000/svg">
<g id="Frame">
<path id="Vector" d="M11.0235 0.113281C10.8594 0.0390625 10.6836 0 10.5 0C10.3164 0 10.1406 0.0390625 9.97658 0.113281L2.62111 3.23438C1.76174 3.59766 1.12111 4.44531 1.12502 5.46875C1.14455 9.34375 2.7383 16.4336 9.46877 19.6563C10.1211 19.9688 10.8789 19.9688 11.5313 19.6563C18.2617 16.4336 19.8555 9.34375 19.875 5.46875C19.8789 4.44531 19.2383 3.59766 18.3789 3.23438L11.0235 0.113281ZM6.12502 8.64453C6.12502 7.32422 7.19533 6.25 8.51955 6.25C9.15236 6.25 9.76174 6.50391 10.211 6.94922L10.5 7.23828L10.7891 6.94922C11.2383 6.5 11.8477 6.25 12.4805 6.25C13.8008 6.25 14.875 7.32031 14.875 8.64453C14.875 9.27734 14.6211 9.88672 14.1758 10.3359L10.9453 13.5664C10.7031 13.8086 10.3047 13.8086 10.0625 13.5664L6.83205 10.3359C6.38283 9.88672 6.13283 9.27734 6.13283 8.64453H6.12502Z" fill="currentColor"/>
</g>
</svg>
