<svg width="1em" height="1em" viewBox="0 0 24 24" fill="none" xmlns="http://www.w3.org/2000/svg" class="w-4 h-4 [&amp;_path]:fill-textTertiary"><path fill-rule="evenodd" clip-rule="evenodd" d="M1 9.72525V8.04253L12 1.8291L23 8.04254V9.72525L12 16.537L1 9.72525ZM20.9199 8.91576L12 3.8773L3.08011 8.91576L12 14.4394L20.9199 8.91576ZM9.02967 11.1891L7.29994 10.118L12 7.46312L16.7001 10.118L14.9703 11.1891L12 9.51132L9.02967 11.1891ZM19.1246 13.5357L20.8544 12.4646L23 13.6765V15.3593L12 22.171L1 15.3593V13.6766L3.14562 12.4646L4.87535 13.5357L3.08011 14.5498L12 20.0734L20.9199 14.5498L19.1246 13.5357Z" fill="currentColor"></path></svg>