<svg width="1em" height="1em" viewBox="0 0 24 24" fill="none" xmlns="http://www.w3.org/2000/svg">
<g clip-path="url(#clip0_736_2968)">
<mask id="mask0_736_2968" style="mask-type:luminance" maskUnits="userSpaceOnUse" x="0" y="0" width="24" height="24">
<path d="M24 0H0V24H24V0Z" fill="currentColor"/>
</mask>
<g mask="url(#mask0_736_2968)">
<path fill-rule="evenodd" clip-rule="evenodd" d="M23 12C23 18.0752 18.0752 23 12 23C5.92486 23 1 18.0752 1 12C1 5.92486 5.92486 1 12 1C18.0752 1 23 5.92486 23 12ZM11.9625 3.34585C9.71472 3.34585 7.89252 5.16806 7.89252 7.41585V10.0559C7.89252 12.3037 9.71472 14.1259 11.9625 14.1259C12.278 14.1259 12.5851 14.0899 12.88 14.022C13.0571 13.9813 13.1067 13.7626 12.9753 13.6372L12.9533 13.6161L10.6086 11.3767C10.2451 11.0235 10.0192 10.5294 10.0192 9.98252V7.48919C10.0192 6.41591 10.8892 5.54585 11.9625 5.54585C13.0358 5.54585 13.9059 6.41591 13.9059 7.48919V8.33333C13.9059 8.49533 14.0372 8.62667 14.1992 8.62667H15.7392C15.9012 8.62667 16.0325 8.49533 16.0325 8.33333V7.41585C16.0325 5.16806 14.2103 3.34585 11.9625 3.34585ZM16.0333 16.3633C16.0333 18.6112 14.2112 20.4333 11.9633 20.4333C9.71551 20.4333 7.89333 18.6112 7.89333 16.3633V15.4467C7.89333 15.2847 8.02467 15.1533 8.18667 15.1533H9.72667C9.88866 15.1533 10.02 15.2847 10.02 15.4467V16.29C10.02 17.3633 10.89 18.2333 11.9633 18.2333C13.0366 18.2333 13.9067 17.3633 13.9067 16.29V13.7967C13.9067 13.2497 13.6807 12.7556 13.3171 12.4025L10.9725 10.1631L10.9505 10.142C10.819 10.0165 10.8688 9.79794 11.0459 9.75716C11.3407 9.68928 11.6478 9.65333 11.9633 9.65333C14.2112 9.65333 16.0333 11.4755 16.0333 13.7233V16.3633Z" fill="currentColor"/>
</g>
</g>
<defs>
<clipPath id="clip0_736_2968">
<rect width="24" height="24" fill="currentColor"/>
</clipPath>
</defs>
</svg>
