<svg width="1em" height="1em" viewBox="0 0 20 20" fill="none" xmlns="http://www.w3.org/2000/svg">
<g id="add 1">
<path id="Vector" fill-rule="evenodd" clip-rule="evenodd" d="M1 4C1 2.34315 2.34315 1 4 1H6C7.65685 1 9 2.34315 9 4V6C9 7.65685 7.65685 9 6 9H4C2.34315 9 1 7.65685 1 6V4ZM4 3C3.44772 3 3 3.44772 3 4V6C3 6.55228 3.44772 7 4 7H6C6.55228 7 7 6.55228 7 6V4C7 3.44772 6.55228 3 6 3H4ZM11 4C11 2.34315 12.3431 1 14 1H16C17.6569 1 19 2.34315 19 4V6C19 7.65685 17.6569 9 16 9H14C12.3431 9 11 7.65685 11 6V4ZM14 3C13.4477 3 13 3.44772 13 4V6C13 6.55228 13.4477 7 14 7H16C16.5523 7 17 6.55228 17 6V4C17 3.44772 16.5523 3 16 3H14ZM1 14C1 12.3431 2.34315 11 4 11H6C7.65685 11 9 12.3431 9 14V16C9 17.6569 7.65685 19 6 19H4C2.34315 19 1 17.6569 1 16V14ZM4 13C3.44772 13 3 13.4477 3 14V16C3 16.5523 3.44772 17 4 17H6C6.55228 17 7 16.5523 7 16V14C7 13.4477 6.55228 13 6 13H4ZM15 12C15.5523 12 16 12.4477 16 13V14H17C17.5523 14 18 14.4477 18 15C18 15.5523 17.5523 16 17 16H16V17C16 17.5523 15.5523 18 15 18C14.4477 18 14 17.5523 14 17V16H13C12.4477 16 12 15.5523 12 15C12 14.4477 12.4477 14 13 14H14V13C14 12.4477 14.4477 12 15 12Z" fill="currentColor"/>
</g>
</svg>
