<svg width="20" height="20" viewBox="0 0 20 20" fill="none" xmlns="http://www.w3.org/2000/svg">
<g id="sun-2 1" clip-path="url(#clip0_658_17109)">
<g id="Group">
<g id="Group_2">
<path id="Vector" d="M5.28432 4.10745L4.10599 2.92912C3.78099 2.6037 3.25266 2.6037 2.92766 2.92912C2.60224 3.25454 2.60224 3.78204 2.92766 4.10745L4.10599 5.28579C4.26849 5.4487 4.48182 5.52995 4.69516 5.52995C4.90849 5.52995 5.12182 5.4487 5.28432 5.28579C5.60974 4.96037 5.60974 4.43287 5.28432 4.10745Z" fill="currentColor"/>
</g>
</g>
<g id="Group_3">
<g id="Group_4">
<path id="Vector_2" d="M2.5 9.16669H0.833333C0.373333 9.16669 0 9.54002 0 10C0 10.46 0.373333 10.8334 0.833333 10.8334H2.5C2.96 10.8334 3.33333 10.46 3.33333 10C3.33333 9.54002 2.96 9.16669 2.5 9.16669Z" fill="currentColor"/>
</g>
</g>
<g id="Group_5">
<g id="Group_6">
<path id="Vector_3" d="M5.28432 14.7143C4.95932 14.3889 4.43099 14.3889 4.10599 14.7143L2.92766 15.8926C2.60224 16.218 2.60224 16.7455 2.92766 17.0709C3.09016 17.2339 3.30349 17.3151 3.51682 17.3151C3.73016 17.3151 3.94349 17.2339 4.10599 17.0709L5.28432 15.8926C5.60974 15.5672 5.60974 15.0397 5.28432 14.7143Z" fill="currentColor"/>
</g>
</g>
<g id="Group_7">
<g id="Group_8">
<path id="Vector_4" d="M10.0013 16.6665C9.5413 16.6665 9.16797 17.0398 9.16797 17.4998V19.1665C9.16797 19.6265 9.5413 19.9998 10.0013 19.9998C10.4613 19.9998 10.8346 19.6265 10.8346 19.1665V17.4998C10.8346 17.0398 10.4613 16.6665 10.0013 16.6665Z" fill="currentColor"/>
</g>
</g>
<g id="Group_9">
<g id="Group_10">
<path id="Vector_5" d="M17.0695 15.8926L15.8911 14.7143C15.5661 14.3889 15.0378 14.3889 14.7128 14.7143C14.3874 15.0397 14.3874 15.5672 14.7128 15.8926L15.8911 17.0709C16.0536 17.2339 16.267 17.3151 16.4803 17.3151C16.6936 17.3151 16.907 17.2339 17.0695 17.0709C17.3949 16.7455 17.3949 16.218 17.0695 15.8926Z" fill="currentColor"/>
</g>
</g>
<g id="Group_11">
<g id="Group_12">
<path id="Vector_6" d="M19.168 9.1665H17.5013C17.0413 9.1665 16.668 9.53984 16.668 9.99984C16.668 10.4598 17.0413 10.8332 17.5013 10.8332H19.168C19.628 10.8332 20.0013 10.4598 20.0013 9.99984C20.0013 9.53984 19.628 9.1665 19.168 9.1665Z" fill="currentColor"/>
</g>
</g>
<g id="Group_13">
<g id="Group_14">
<path id="Vector_7" d="M17.0695 2.92912C16.7445 2.6037 16.2161 2.6037 15.8911 2.92912L14.7128 4.10745C14.3874 4.43287 14.3874 4.96037 14.7128 5.28579C14.8753 5.4487 15.0886 5.52995 15.302 5.52995C15.5153 5.52995 15.7286 5.4487 15.8911 5.28579L17.0695 4.10745C17.3949 3.78204 17.3949 3.25454 17.0695 2.92912Z" fill="currentColor"/>
</g>
</g>
<g id="Group_15">
<g id="Group_16">
<path id="Vector_8" d="M10.0013 0C9.5413 0 9.16797 0.373333 9.16797 0.833333V2.5C9.16797 2.96 9.5413 3.33333 10.0013 3.33333C10.4613 3.33333 10.8346 2.96 10.8346 2.5V0.833333C10.8346 0.373333 10.4613 0 10.0013 0Z" fill="currentColor"/>
</g>
</g>
<g id="Group_17">
<g id="Group_18">
<path id="Vector_9" d="M9.9987 4.5835C7.01203 4.5835 4.58203 7.0135 4.58203 10.0002C4.58203 12.9868 7.01203 15.4168 9.9987 15.4168C12.9854 15.4168 15.4154 12.9868 15.4154 10.0002C15.4154 7.0135 12.9854 4.5835 9.9987 4.5835ZM9.9987 13.7502C7.9312 13.7502 6.2487 12.0677 6.2487 10.0002C6.2487 7.93266 7.9312 6.25016 9.9987 6.25016C12.0662 6.25016 13.7487 7.93266 13.7487 10.0002C13.7487 12.0677 12.0662 13.7502 9.9987 13.7502Z" fill="currentColor"/>
</g>
</g>
</g>
<defs>
<clipPath id="clip0_658_17109">
<rect width="20" height="20" fill="white"/>
</clipPath>
</defs>
</svg>
