<svg width="1em" height="1em" viewBox="0 0 17 17" fill="none" xmlns="http://www.w3.org/2000/svg">
<g id="Group 144">
<path id="Vector 111 (Stroke)" d="M2.1 3.5C2.1 2.7268 2.7268 2.1 3.5 2.1H13.5C14.2732 2.1 14.9 2.7268 14.9 3.5V13.5C14.9 14.2732 14.2732 14.9 13.5 14.9H12.5257C12.2294 13.6386 10.9929 11.9 8.5 11.9C6.00711 11.9 4.77063 13.6386 4.47427 14.9H3.5C2.7268 14.9 2.1 14.2732 2.1 13.5V3.5ZM3.5 0.9C2.06406 0.9 0.9 2.06406 0.9 3.5V13.5C0.9 14.9359 2.06406 16.1 3.5 16.1H4.6C5.16997 16.1 5.54351 15.6514 5.63144 15.2244C5.80425 14.3853 6.64504 13.1 8.5 13.1C10.355 13.1 11.1958 14.3853 11.3686 15.2244C11.4565 15.6514 11.83 16.1 12.4 16.1H13.5C14.9359 16.1 16.1 14.9359 16.1 13.5V3.5C16.1 2.06406 14.9359 0.9 13.5 0.9H3.5Z" fill="currentColor" stroke="currentColor" stroke-width="0.2"/>
<path id="Ellipse 129 (Stroke)" d="M10.443 10C10.443 11.0493 9.59231 11.9 8.54297 11.9C7.49363 11.9 6.64297 11.0493 6.64297 10C6.64297 8.95066 7.49363 8.1 8.54297 8.1C9.59231 8.1 10.443 8.95066 10.443 10ZM8.54297 13.1C10.2551 13.1 11.643 11.7121 11.643 10C11.643 8.28792 10.2551 6.9 8.54297 6.9C6.83089 6.9 5.44297 8.28792 5.44297 10C5.44297 11.7121 6.83089 13.1 8.54297 13.1Z" fill="currentColor" stroke="currentColor" stroke-width="0.2"/>
</g>
</svg>
