<svg width="20" height="20" viewBox="0 0 20 20" fill="none" xmlns="http://www.w3.org/2000/svg">
<path d="M10 0.3125C4.64844 0.3125 0.3125 4.64844 0.3125 10C0.3125 15.3516 4.64844 19.6875 10 19.6875C15.3516 19.6875 19.6875 15.3516 19.6875 10C19.6875 4.64844 15.3516 0.3125 10 0.3125ZM10 4.0625C11.8984 4.0625 13.4375 5.60156 13.4375 7.5C13.4375 9.39844 11.8984 10.9375 10 10.9375C8.10156 10.9375 6.5625 9.39844 6.5625 7.5C6.5625 5.60156 8.10156 4.0625 10 4.0625ZM10 17.5C7.70703 17.5 5.65234 16.4609 4.27734 14.8359C5.01172 13.4531 6.44922 12.5 8.125 12.5C8.21875 12.5 8.3125 12.5156 8.40234 12.543C8.91016 12.707 9.44141 12.8125 10 12.8125C10.5586 12.8125 11.0938 12.707 11.5977 12.543C11.6875 12.5156 11.7812 12.5 11.875 12.5C13.5508 12.5 14.9883 13.4531 15.7227 14.8359C14.3477 16.4609 12.293 17.5 10 17.5Z" fill="#A3ACBE"/>
</svg>
