<svg width="1em" height="1em" viewBox="0 0 20 20" fill="none" xmlns="http://www.w3.org/2000/svg">
<g id="vote 1" clip-path="url(#clip0_792_94311)">
<g id="Group">
<path id="Vector" d="M19.9418 6.77045C19.8643 6.58322 19.7156 6.43449 19.5284 6.35698L6.4667 0.946816C6.07716 0.785563 5.62997 0.970449 5.46852 1.36029L0.0581549 14.422C-0.0194663 14.6093 -0.0194663 14.8195 0.0581549 15.0068C0.135674 15.194 0.284397 15.3427 0.471626 15.4202L9.24262 19.0532C9.33624 19.092 9.43566 19.1114 9.53498 19.1114C9.6344 19.1114 9.73371 19.0921 9.82733 19.0532L15.895 16.5396C16.0823 16.4621 16.231 16.3134 16.3085 16.1262L19.9417 7.35505C20.0193 7.16803 20.0193 6.95767 19.9418 6.77045ZM10.9468 16.9357L11.7258 15.0549L13.6064 15.8339L10.9468 16.9357ZM15.1893 14.8355L11.6047 13.3508C11.2152 13.1896 10.768 13.3745 10.6065 13.7643L9.12161 17.3492L1.76205 14.3009L6.58781 2.65082L18.2378 7.47627L15.1893 14.8355Z" fill="currentColor"/>
<path id="Vector_2" d="M13.5843 9.9876L12.9994 8.57605L9.08747 10.1969L8.4232 8.59357L7.01166 9.17828L8.26052 12.1934L13.5843 9.9876Z" fill="currentColor"/>
</g>
</g>
<defs>
<clipPath id="clip0_792_94311">
<rect width="20" height="20" fill="white"/>
</clipPath>
</defs>
</svg>
