<svg width="20" height="21" viewBox="0 0 20 21" fill="none" xmlns="http://www.w3.org/2000/svg">
<g id="Frame">
<path id="Vector (Stroke)" fill-rule="evenodd" clip-rule="evenodd" d="M4.16797 3.83335C3.94695 3.83335 3.73499 3.92115 3.57871 4.07743C3.42243 4.23371 3.33464 4.44567 3.33464 4.66669C3.33464 4.8877 3.42243 5.09966 3.57871 5.25594C3.73499 5.41222 3.94695 5.50002 4.16797 5.50002H15.0013V3.83335H4.16797ZM16.668 5.50002V3.00002C16.668 2.53978 16.2949 2.16669 15.8346 2.16669H4.16797C3.50493 2.16669 2.86904 2.43008 2.4002 2.89892C1.93136 3.36776 1.66797 4.00365 1.66797 4.66669C1.66797 5.32973 1.93136 5.96561 2.4002 6.43445C2.86904 6.9033 3.50493 7.16669 4.16797 7.16669H16.668V10.5C16.668 10.9603 17.0411 11.3334 17.5013 11.3334C17.9615 11.3334 18.3346 10.9603 18.3346 10.5V6.33335C18.3346 5.87312 17.9615 5.50002 17.5013 5.50002H16.668Z" fill="currentColor"/>
<path id="Vector (Stroke)_2" fill-rule="evenodd" clip-rule="evenodd" d="M2.5013 3.83331C2.96154 3.83331 3.33464 4.20641 3.33464 4.66665V16.3333C3.33464 16.5543 3.42243 16.7663 3.57871 16.9226C3.73499 17.0788 3.94696 17.1666 4.16797 17.1666H16.668V13.8333C16.668 13.3731 17.0411 13 17.5013 13C17.9615 13 18.3346 13.3731 18.3346 13.8333V18C18.3346 18.4602 17.9615 18.8333 17.5013 18.8333H4.16797C3.50493 18.8333 2.86904 18.5699 2.4002 18.1011C1.93136 17.6322 1.66797 16.9964 1.66797 16.3333V4.66665C1.66797 4.20641 2.04106 3.83331 2.5013 3.83331Z" fill="currentColor"/>
<path id="Vector (Stroke)_3" fill-rule="evenodd" clip-rule="evenodd" d="M13.2322 10.3989C13.7011 9.93008 14.337 9.66669 15 9.66669H18.3333C18.7936 9.66669 19.1667 10.0398 19.1667 10.5V13.8334C19.1667 14.2936 18.7936 14.6667 18.3333 14.6667H15C14.337 14.6667 13.7011 14.4033 13.2322 13.9345C12.7634 13.4656 12.5 12.8297 12.5 12.1667C12.5 11.5036 12.7634 10.8678 13.2322 10.3989ZM15 11.3334C14.779 11.3334 14.567 11.4212 14.4107 11.5774C14.2545 11.7337 14.1667 11.9457 14.1667 12.1667C14.1667 12.3877 14.2545 12.5997 14.4107 12.7559C14.567 12.9122 14.779 13 15 13H17.5V11.3334H15Z" fill="currentColor"/>
</g>
</svg>
