<?xml version="1.0" standalone="no"?>
<!DOCTYPE svg PUBLIC "-//W3C//DTD SVG 20010904//EN"
 "http://www.w3.org/TR/2001/REC-SVG-20010904/DTD/svg10.dtd">
<svg version="1.0" xmlns="http://www.w3.org/2000/svg"
 width="1350.000000pt" height="1350.000000pt" viewBox="0 0 1350.000000 1350.000000"
 preserveAspectRatio="xMidYMid meet">
<metadata>
Created by potrace 1.14, written by Peter Selinger 2001-2017
</metadata>
<g transform="translate(0.000000,1350.000000) scale(0.100000,-0.100000)"
fill="#000000" stroke="none">
<path d="M6438 13495 c-2 -1 -55 -6 -118 -9 -63 -4 -133 -9 -155 -11 -104 -10
-172 -16 -195 -20 -14 -2 -50 -6 -80 -10 -30 -4 -66 -8 -80 -10 -14 -3 -43 -7
-65 -9 -215 -27 -598 -112 -890 -196 -558 -162 -1165 -432 -1643 -732 -51 -32
-97 -58 -102 -58 -4 0 -10 -3 -12 -7 -1 -5 -30 -25 -63 -47 -133 -86 -487
-344 -515 -376 -3 -3 -36 -31 -75 -62 -38 -31 -83 -69 -100 -83 -16 -15 -61
-54 -100 -88 -93 -81 -444 -433 -525 -526 -36 -41 -75 -85 -87 -98 -11 -13
-36 -42 -55 -65 -18 -23 -38 -46 -43 -52 -6 -6 -38 -47 -73 -91 -35 -44 -68
-87 -75 -95 -48 -60 -189 -259 -269 -380 -242 -367 -417 -694 -595 -1110 -25
-58 -46 -109 -47 -115 -2 -5 -9 -23 -15 -40 -13 -31 -81 -218 -107 -292 -22
-64 -83 -261 -99 -318 -27 -100 -57 -210 -60 -225 -20 -81 -66 -294 -71 -324
-3 -21 -7 -46 -9 -55 -19 -99 -35 -193 -39 -226 -5 -38 -12 -89 -21 -145 -8
-52 -36 -339 -43 -450 -14 -229 -7 -795 13 -990 2 -25 7 -76 10 -113 4 -56 27
-238 40 -322 1 -11 6 -42 10 -70 6 -41 23 -135 61 -325 3 -14 16 -74 30 -135
14 -60 27 -120 30 -131 2 -12 13 -53 24 -90 11 -38 28 -94 36 -124 67 -238
229 -680 331 -898 74 -161 194 -401 231 -461 18 -31 34 -58 34 -61 0 -22 353
-578 408 -642 6 -7 40 -53 77 -103 36 -49 79 -106 95 -125 16 -19 32 -40 36
-45 73 -103 299 -353 501 -555 195 -194 283 -277 425 -395 27 -22 58 -48 70
-59 11 -10 37 -30 56 -45 19 -14 37 -28 40 -31 3 -3 61 -48 130 -99 69 -51
133 -99 142 -106 60 -48 509 -335 524 -335 3 0 19 -9 34 -20 81 -57 484 -257
726 -360 347 -147 763 -282 1094 -355 63 -14 133 -29 155 -34 40 -9 129 -27
175 -35 29 -5 82 -14 125 -21 17 -3 82 -12 145 -20 63 -9 129 -17 145 -20 28
-4 125 -13 205 -20 306 -27 897 -27 1160 0 19 2 64 6 100 9 53 5 212 25 330
41 68 9 174 28 288 51 70 14 138 28 151 30 12 3 53 12 90 20 36 9 73 17 81 19
29 6 145 37 190 50 25 8 92 28 150 46 58 17 110 32 115 34 6 1 17 5 25 8 8 3
44 15 80 28 336 113 809 322 1068 471 46 26 85 48 87 48 2 0 73 42 159 94 265
161 548 361 791 561 66 54 122 101 125 104 3 3 43 39 90 80 89 78 419 406 505
502 28 30 73 81 100 114 28 32 55 63 60 69 6 6 38 45 70 86 33 41 62 77 65 80
3 3 39 49 80 103 226 296 455 661 623 990 82 160 177 359 177 370 0 3 16 39
35 80 19 41 35 81 35 89 0 8 4 18 9 23 9 10 82 202 135 355 87 251 169 563
232 875 2 11 6 31 9 45 2 14 7 41 10 60 3 19 10 60 15 90 13 77 18 108 25 160
3 25 7 61 10 80 39 298 50 489 50 865 -1 269 -7 460 -19 570 -2 17 -6 66 -10
110 -4 44 -9 91 -11 105 -2 14 -7 50 -11 80 -4 30 -8 64 -10 75 -1 11 -5 38
-8 60 -3 22 -8 51 -11 65 -3 14 -8 45 -11 70 -3 25 -7 53 -10 62 -6 21 -13 55
-19 93 -10 71 -74 345 -110 475 -15 52 -30 109 -35 125 -36 132 -142 442 -195
570 -5 11 -9 22 -9 25 -2 9 -67 163 -92 218 -13 29 -24 55 -24 58 0 10 -228
463 -262 520 -19 33 -55 93 -78 134 -122 212 -361 562 -504 740 -60 75 -192
236 -211 256 -5 6 -37 42 -70 80 -76 88 -438 451 -530 531 -103 90 -116 101
-164 141 -24 21 -60 52 -80 69 -20 18 -39 33 -43 33 -4 0 -13 6 -21 14 -8 8
-81 64 -163 126 -82 61 -154 115 -161 120 -81 65 -473 306 -673 414 -506 276
-1200 536 -1709 641 -9 2 -52 11 -96 20 -116 25 -110 23 -230 44 -60 11 -130
22 -155 26 -25 3 -56 8 -70 10 -14 3 -45 7 -70 10 -84 9 -145 16 -178 20 -18
2 -74 7 -125 11 -50 3 -103 8 -117 11 -29 4 -757 13 -762 8z"/>
</g>
</svg>
