<svg viewBox="0 0 56 59" fill="none" xmlns="http://www.w3.org/2000/svg">
<path id="Vector (Stroke)" opacity="0.05" d="M22.7914 -1.93563L22.2803 -2.08782L21.8692 -1.74828L10.4259 7.70233L8.97985 8.89653L10.7772 9.43178L18.4942 11.7298L19.0052 11.882L19.4163 11.5425L30.8597 2.09188L32.3057 0.897675L30.5083 0.362426L22.7914 -1.93563ZM37.6528 2.49001L37.1417 2.33782L36.7306 2.67737L25.2873 12.128L23.8413 13.3222L25.6386 13.8574L44.254 19.401L46.0513 19.9362L45.4942 18.1455L41.0854 3.97419L40.927 3.46504L40.4159 3.31286L37.6528 2.49001ZM47.5604 5.44044L45.763 4.90519L46.3201 6.69591L50.729 20.8672L50.8874 21.3764L51.3984 21.5285L59.1154 23.8266L60.9127 24.3619L60.3556 22.5711L55.9468 8.39984L55.7884 7.89069L55.2773 7.7385L47.5604 5.44044ZM57.4008 29.3724L59.1903 28.1913L57.1354 27.5794L50.5338 25.6134L49.9184 25.4302L49.4956 25.9136L36.4179 40.868L37.7215 42.3609L57.4008 29.3724ZM25.8147 44.1073L26.119 46.2715L27.5577 44.6263L44.4713 25.2856L45.4964 24.1133L44.0039 23.6689L23.513 17.5668L22.0206 17.1224L22.2374 18.6645L25.8147 44.1073ZM17.688 16.4414L17.5986 15.8055L16.9832 15.6223L10.3816 13.6563L8.3267 13.0444L9.17851 15.012L18.5461 36.6506L20.4541 36.1141L17.688 16.4414ZM21.3088 -6.71952L59.1355 4.54507L66.5427 28.3539L22.8713 57.1774L2.08316 9.15818L21.3088 -6.71952Z" fill="#0F172A" stroke="#1E293B" stroke-width="2"/>
</svg>
