<svg width="62" height="66" viewBox="0 0 62 66" fill="none" xmlns="http://www.w3.org/2000/svg">
<path opacity="0.15" d="M30.9792 -8.30901L30.5376 -8.60794L30.0434 -8.40788L12.3238 -1.23542L10.5855 -0.531768L12.1384 0.5196L20.7265 6.33378L21.168 6.63271L21.6623 6.43264L39.3818 -0.739812L41.1202 -1.44346L39.5673 -2.49483L30.9792 -8.30901ZM47.5182 2.88804L47.0767 2.5891L46.5824 2.78917L28.8629 9.96163L27.1245 10.6653L28.6775 11.7166L49.3941 25.742L50.9471 26.7934L50.9547 24.918L51.0327 5.80202L51.0348 5.2688L50.5933 4.96986L47.5182 2.88804ZM58.5443 10.3527L56.9913 9.30137L56.9836 11.1767L56.9057 30.2927L56.9036 30.8259L57.3451 31.1249L65.9332 36.939L67.4861 37.9904L67.4938 36.115L67.5717 16.9991L67.5739 16.4658L67.1323 16.1669L58.5443 10.3527ZM61.4369 43.0479L63.4989 42.4602L61.7234 41.2581L54.3766 36.2843L53.8449 35.9243L53.2963 36.2581L31.4356 49.5574L32.2294 51.3735L61.4369 43.0479ZM17.2902 49.2275L16.929 51.383L18.7961 50.2471L47.0688 33.0469L48.3992 32.2375L47.1097 31.3645L24.3057 15.926L23.0161 15.053L22.7588 16.5889L17.2902 49.2275ZM17.4643 11.9996L17.5704 11.3662L17.0387 11.0062L9.69189 6.03241L7.91642 4.8304L8.13657 6.96316L11.2549 37.1736L13.2359 37.2361L17.4643 11.9996ZM31.2083 -15.323L73.5595 13.349L73.4271 45.8353L8.07279 64.4644L1.09515 -3.13392L31.2083 -15.323Z" fill="white" stroke="white" stroke-width="2"/>
</svg>
