<svg width="180" height="16" viewBox="0 0 180 16" fill="none" xmlns="http://www.w3.org/2000/svg">
<path d="M9.51134 10.2605H4.75567V12.1088H10.5814V16H0V0.8H10.4625L9.86801 4.6912H4.75567V6.73408H9.51134V10.2605Z" fill="#0053FF"/>
<path d="M20.4559 12.3277H17.3647V16H12.609V0.8H20.0992C23.5074 0.8 25.2115 2.67264 25.2115 6.41792C25.2115 8.47701 24.7677 10.0011 23.88 10.9901C23.5471 11.363 23.0873 11.6791 22.5008 11.9386C21.9143 12.198 21.2326 12.3277 20.4559 12.3277ZM17.3647 4.6912V8.43648H18.4585C19.0292 8.43648 19.4413 8.37973 19.695 8.26624C19.9645 8.13653 20.0992 7.8528 20.0992 7.41504V5.71264C20.0992 5.27488 19.9645 4.99925 19.695 4.88576C19.4413 4.75605 19.0292 4.6912 18.4585 4.6912H17.3647Z" fill="#0053FF"/>
<path d="M26.6345 16V0.8H31.3902V16H26.6345Z" fill="#0053FF"/>
<path d="M47.5771 9.45366C47.0521 13.0977 43.9721 15.8951 40.2511 15.8951C36.1614 15.8951 32.8461 12.5159 32.8461 8.34755C32.8461 4.17915 36.1614 0.8 40.2511 0.8C43.9721 0.8 47.0521 3.5974 47.5771 7.24145H42.1069C41.7373 6.60111 41.0566 6.17168 40.278 6.17168C39.1052 6.17168 38.1546 7.14585 38.1546 8.34755C38.1546 9.54925 39.1052 10.5234 40.278 10.5234C41.0566 10.5234 41.7373 10.094 42.1069 9.45366H47.5771Z" fill="#0053FF"/>
<path d="M169.472 15.7552V4.03532H172.537V5.84493H172.726C173.25 4.57821 174.395 3.77985 176.043 3.77985C178.614 3.77985 180 5.37656 180 8.17612V15.7552H176.935V8.87868C176.935 7.22874 176.263 6.35588 174.815 6.35588C173.397 6.35588 172.537 7.38841 172.537 8.97448V15.7552H169.472Z" fill="#6395FD"/>
<path d="M160.003 15.7551V4.03528H163.069V5.85552H163.257C163.625 4.5888 164.675 3.84367 166.176 3.84367C166.585 3.84367 167.015 3.90754 167.32 3.9927V6.7071C166.858 6.60066 166.386 6.52614 165.913 6.52614C164.171 6.52614 163.069 7.53739 163.069 9.19797V15.7551H160.003Z" fill="#6395FD"/>
<path d="M150.472 15.9361C148.268 15.9361 146.704 14.5523 146.704 12.4234V12.4021C146.704 10.2944 148.31 9.05964 151.186 8.88932L153.978 8.719V7.75033C153.978 6.73908 153.296 6.16427 152.036 6.16427C150.934 6.16427 150.231 6.55812 149.989 7.25003L149.968 7.29261H147.134L147.145 7.19681C147.386 5.14238 149.297 3.77985 152.204 3.77985C155.269 3.77985 157.001 5.24882 157.001 7.75033V15.7552H153.978V14.201H153.789C153.201 15.2868 151.984 15.9361 150.472 15.9361ZM149.695 12.2318C149.695 13.1259 150.441 13.6688 151.501 13.6688C152.918 13.6688 153.978 12.7214 153.978 11.4866V10.6244L151.648 10.7734C150.336 10.8586 149.695 11.3589 149.695 12.2105V12.2318Z" fill="#6395FD"/>
<path d="M139.471 16C135.955 16 133.824 13.6688 133.824 9.91121V9.90057C133.824 6.17491 135.976 3.77985 139.345 3.77985C142.715 3.77985 144.814 6.12169 144.814 9.66639V10.6351H136.858C136.889 12.5618 137.907 13.6794 139.534 13.6794C140.878 13.6794 141.623 12.9556 141.833 12.5085L141.865 12.4447H144.72L144.699 12.5511C144.342 14.0201 142.851 16 139.471 16ZM139.398 6.11105C138.065 6.11105 137.078 7.02649 136.889 8.68707H141.875C141.686 6.98391 140.731 6.11105 139.398 6.11105Z" fill="#6395FD"/>
<path d="M120.619 15.7542V13.5933L125.5 8.70739C127.631 6.61038 128.208 5.83331 128.208 4.75819V4.72626C128.208 3.41696 127.326 2.50151 125.878 2.50151C124.398 2.50151 123.38 3.50212 123.38 4.96044V5.01367H120.451L120.441 4.97109C120.441 2.0225 122.708 0 126.025 0C129.142 0 131.326 1.8096 131.326 4.46014V4.49207C131.326 6.23781 130.434 7.68549 127.673 10.2722L124.87 12.9227V13.1675H131.546V15.7542H120.619Z" fill="#6395FD"/>
<path d="M112.767 16C109.251 16 107.12 13.6688 107.12 9.91121V9.90057C107.12 6.17491 109.272 3.77985 112.641 3.77985C116.011 3.77985 118.11 6.12169 118.11 9.66639V10.6351H110.154C110.185 12.5618 111.203 13.6794 112.83 13.6794C114.174 13.6794 114.919 12.9556 115.129 12.5085L115.161 12.4447H118.016L117.995 12.5511C117.638 14.0201 116.147 16 112.767 16ZM112.694 6.11105C111.361 6.11105 110.374 7.02649 110.185 8.68707H115.171C114.982 6.98391 114.027 6.11105 112.694 6.11105Z" fill="#6395FD"/>
<path d="M87.6377 15.7552V4.03532H90.7028V5.86622H90.8917C91.3851 4.54627 92.5817 3.77985 94.0933 3.77985C95.6678 3.77985 96.833 4.58885 97.3053 5.94073H97.4943C98.0191 4.64207 99.3627 3.77985 100.979 3.77985C103.278 3.77985 104.716 5.2914 104.716 7.70776V15.7552H101.651V8.48482C101.651 7.06907 101.021 6.35588 99.7406 6.35588C98.502 6.35588 97.7042 7.28197 97.7042 8.54869V15.7552H94.6391V8.34644C94.6391 7.09036 93.9358 6.35588 92.7392 6.35588C91.5425 6.35588 90.7028 7.34583 90.7028 8.68707V15.7552H87.6377Z" fill="#6395FD"/>
<path d="M79.786 16C76.2695 16 74.1386 13.6688 74.1386 9.91121V9.90057C74.1386 6.17491 76.2905 3.77985 79.66 3.77985C83.0295 3.77985 85.1289 6.12169 85.1289 9.66639V10.6351H77.1722C77.2037 12.5618 78.2219 13.6794 79.849 13.6794C81.1926 13.6794 81.9379 12.9556 82.1478 12.5085L82.1793 12.4447H85.0344L85.0134 12.5511C84.6565 14.0201 83.166 16 79.786 16ZM79.7125 6.11105C78.3794 6.11105 77.3927 7.02649 77.2037 8.68707H82.1898C82.0008 6.98391 81.0456 6.11105 79.7125 6.11105Z" fill="#6395FD"/>
<path d="M55.5066 15.7541V0.393795H59.1385L63.3268 11.6346H63.5158L67.6935 0.393795H71.3255V15.7541H68.5018V5.30101H68.2918L64.408 15.7541H62.4241L58.5402 5.30101H58.3303V15.7541H55.5066Z" fill="#6395FD"/>
</svg>
