<svg height="1em" viewBox="0 0 143 16" fill="none" xmlns="http://www.w3.org/2000/svg">
<path d="M9.36332 9.97948H4.68166V11.799H10.4167V15.6297H0V0.666226H10.2997L9.71444 4.49687H4.68166V6.50796H9.36332V9.97948Z" fill="#0053FF"/>
<path d="M20.1375 12.0145H17.0945V15.6297H12.4128V0.666226H19.7864C23.1416 0.666226 24.8192 2.50972 24.8192 6.19672C24.8192 8.22377 24.3822 9.7241 23.5083 10.6977C23.1806 11.0648 22.7281 11.3761 22.1507 11.6314C21.5732 11.8868 20.9022 12.0145 20.1375 12.0145ZM17.0945 4.49687V8.18387H18.1712C18.733 8.18387 19.1388 8.128 19.3885 8.01628C19.6538 7.88859 19.7864 7.60927 19.7864 7.17832V5.50242C19.7864 5.07147 19.6538 4.80013 19.3885 4.6884C19.1388 4.56071 18.733 4.49687 18.1712 4.49687H17.0945Z" fill="#0053FF"/>
<path d="M26.22 15.6297V0.666226H30.9017V15.6297H26.22Z" fill="#0053FF"/>
<path d="M46.8367 9.18521C46.3198 12.7725 43.2878 15.5264 39.6247 15.5264C35.5987 15.5264 32.335 12.1998 32.335 8.09632C32.335 3.99279 35.5987 0.666226 39.6247 0.666226C43.2878 0.666226 46.3198 3.4201 46.8367 7.00743H41.4516C41.0878 6.37706 40.4176 5.95431 39.6511 5.95431C38.4967 5.95431 37.5608 6.91332 37.5608 8.09632C37.5608 9.27932 38.4967 10.2383 39.6511 10.2383C40.4176 10.2383 41.0878 9.81558 41.4516 9.18521H46.8367Z" fill="#0053FF"/>
<path d="M51.136 15.6299V0.370126H53.8643L58.7288 12.542H58.898L63.7626 0.370126H66.4909V15.6299H64.3336V4.43093H64.175L59.6912 15.6299H57.9357L53.4625 4.43093H53.2933V15.6299H51.136Z" fill="#6395FD"/>
<path d="M69.3191 15.6299V0.370126H79.0058V2.4111H71.6879V6.87376H78.6145V8.84071H71.6879V13.5889H79.0058V15.6299H69.3191Z" fill="#6395FD"/>
<path d="M81.4321 15.6299V0.370126H84.1604L89.0249 12.542H89.1941L94.0586 0.370126H96.787V15.6299H94.6297V4.43093H94.4711L89.9873 15.6299H88.2318L83.7586 4.43093H83.5894V15.6299H81.4321Z" fill="#6395FD"/>
<path d="M99.6152 15.6299V0.370126H109.302V2.4111H101.984V6.87376H108.911V8.84071H101.984V13.5889H109.302V15.6299H99.6152Z" fill="#6395FD"/>
<path d="M116.889 16C113.441 16 111.231 14.2551 111.02 11.6854L111.009 11.5479H113.336L113.346 11.6642C113.473 13.0496 114.943 13.9379 116.984 13.9379C118.93 13.9379 120.315 12.965 120.315 11.5479V11.5373C120.315 10.3635 119.49 9.60211 117.47 9.16854L115.8 8.80899C112.701 8.15334 111.369 6.71514 111.369 4.46266V4.45208C111.379 1.8189 113.663 0 116.899 0C120.135 0 122.25 1.82948 122.42 4.19828L122.43 4.34633H120.135L120.114 4.20886C119.913 2.961 118.718 2.05155 116.868 2.06213C115.08 2.06213 113.759 2.89755 113.759 4.33576V4.34633C113.759 5.47786 114.562 6.21811 116.54 6.64111L118.2 7.01124C121.404 7.69861 122.716 8.98876 122.716 11.2518V11.2624C122.716 14.1811 120.442 16 116.889 16Z" fill="#6395FD"/>
<path d="M136.886 15.4913C138.873 14.7773 140.494 13.3034 141.394 11.3938C142.294 9.48411 142.399 7.29516 141.685 5.30846C140.971 3.32176 139.497 1.70004 137.587 0.800068C135.678 -0.0999022 133.489 -0.204406 131.502 0.509547C129.515 1.2235 127.894 2.69743 126.994 4.60708C126.094 6.51673 125.989 8.70568 126.703 10.6924C127.417 12.6791 128.891 14.3008 130.801 15.2008C132.71 16.1007 134.899 16.2052 136.886 15.4913ZM130.147 11.3746C129.891 11.0136 130.089 10.533 130.504 10.3837L138.557 7.48985C138.972 7.34053 139.433 7.58454 139.463 8.02643C139.621 10.2131 138.272 12.3502 136.045 13.1504C133.818 13.9506 131.417 13.1616 130.147 11.3746ZM129.124 5.15395L132.258 5.61023C132.631 5.6645 132.793 6.11512 132.54 6.39443L130.413 8.74138C130.226 8.94735 129.885 8.88151 129.79 8.61816C129.761 8.53623 129.762 8.44671 129.792 8.36633L130.392 6.72369L128.884 5.83816C128.809 5.79564 128.752 5.72715 128.722 5.64522C128.627 5.38187 128.848 5.11413 129.124 5.15395ZM136.914 2.69796C136.944 2.77989 136.943 2.86941 136.912 2.94979L136.313 4.59243L137.821 5.47796C137.895 5.52048 137.953 5.58897 137.983 5.6709C138.077 5.93425 137.856 6.20199 137.581 6.16216L134.447 5.70589C134.074 5.65162 133.912 5.201 134.165 4.92169L136.292 2.57474C136.479 2.36877 136.82 2.43461 136.914 2.69796Z" fill="url(#paint0_linear_3149_26361)"/>
<defs>
<linearGradient id="paint0_linear_3149_26361" x1="126.052" y1="2.9964" x2="147.054" y2="12.8942" gradientUnits="userSpaceOnUse">
<stop stop-color="#6395FD"/>
<stop offset="1" stop-color="#0053FF"/>
</linearGradient>
</defs>
</svg>
