<svg height="1em" viewBox="0 0 65 20" fill="none" xmlns="http://www.w3.org/2000/svg">
<g id="Vector">
<path d="M12.8243 12.448H6.41213V14.88H14.267V20H0V0H14.1067L13.3052 5.12H6.41213V7.808H12.8243V12.448Z" fill="#0053FF"/>
<path d="M27.5809 15.168H23.413V20H17.0009V0H27.1C31.6954 0 33.993 2.464 33.993 7.392C33.993 10.1013 33.3946 12.1067 32.1976 13.408C31.7488 13.8987 31.129 14.3147 30.3381 14.656C29.5473 14.9973 28.6282 15.168 27.5809 15.168ZM23.413 5.12V10.048H24.8878C25.6573 10.048 26.213 9.97333 26.555 9.824C26.9183 9.65333 27.1 9.28 27.1 8.704V6.464C27.1 5.888 26.9183 5.52533 26.555 5.376C26.213 5.20533 25.6573 5.12 24.8878 5.12H23.413Z" fill="#0053FF"/>
<path d="M35.9117 20V0H42.3238V20H35.9117Z" fill="#0053FF"/>
<path d="M64.1488 11.3864C63.4409 16.1812 59.2881 19.862 54.271 19.862C48.7569 19.862 44.2868 15.4157 44.2868 9.93098C44.2868 4.44625 48.7569 0 54.271 0C59.2881 0 63.4409 3.6808 64.1488 8.47559H56.7733C56.2749 7.63304 55.3571 7.068 54.3073 7.068C52.7261 7.068 51.4443 8.3498 51.4443 9.93098C51.4443 11.5122 52.7261 12.794 54.3073 12.794C55.3571 12.794 56.2749 12.2289 56.7733 11.3864H64.1488Z" fill="#0053FF"/>
</g>
</svg>
