<svg viewBox="0 0 290 148" fill="none" xmlns="http://www.w3.org/2000/svg">
<path d="M57.7902 58.0267H28.8951V69.3181H64.2916V93.0897H0V0.232144H63.5692L59.9573 24.0037H28.8951V36.4837H57.7902V58.0267Z" fill="white"/>
<path d="M124.288 70.6553H105.507V93.0897H76.6115V0.232144H122.121C142.829 0.232144 153.183 11.6722 153.183 34.5523C153.183 47.1314 150.487 56.4419 145.093 62.4838C143.07 64.7619 140.277 66.6934 136.713 68.2781C133.15 69.8629 129.008 70.6553 124.288 70.6553ZM105.507 24.0037V46.8838H112.152C115.62 46.8838 118.124 46.5371 119.665 45.8438C121.303 45.0514 122.121 43.318 122.121 40.6437V30.2437C122.121 27.5694 121.303 25.8856 119.665 25.1922C118.124 24.3999 115.62 24.0037 112.152 24.0037H105.507Z" fill="white"/>
<path d="M161.829 93.0897V0.232144H190.725V93.0897H161.829Z" fill="white"/>
<path d="M290 53.4992C286.752 76.0275 267.702 93.3218 244.686 93.3218C219.39 93.3218 198.884 72.431 198.884 46.6609C198.884 20.8908 219.39 0 244.686 0C267.702 0 286.752 17.2943 290 39.8227H256.165C253.879 35.864 249.668 33.2091 244.852 33.2091C237.599 33.2091 231.718 39.2317 231.718 46.6609C231.718 54.0901 237.599 60.1127 244.852 60.1127C249.668 60.1127 253.879 57.4579 256.165 53.4992H290Z" fill="white"/>
<g opacity="0.8">
<path d="M265.795 147.007V121.197H269.859V125.578H270.598C271.161 124.347 272.111 123.238 273.448 122.253C274.82 121.233 276.826 120.722 279.465 120.722C281.4 120.722 283.124 121.127 284.638 121.936C286.186 122.746 287.417 123.942 288.332 125.525C289.247 127.109 289.704 129.062 289.704 131.384V147.007H285.535V131.701C285.535 129.132 284.884 127.267 283.582 126.106C282.315 124.945 280.591 124.364 278.409 124.364C275.911 124.364 273.87 125.174 272.287 126.792C270.739 128.411 269.965 130.821 269.965 134.023V147.007H265.795Z" fill="white"/>
<path d="M245.9 147.007V121.197H249.964V124.364H250.703C251.161 123.238 251.865 122.411 252.815 121.884C253.765 121.356 255.014 121.092 256.562 121.092H259.623V124.892H256.298C254.433 124.892 252.92 125.42 251.759 126.475C250.633 127.496 250.07 129.097 250.07 131.278V147.007H245.9Z" fill="white"/>
<path d="M223.458 147.746C221.663 147.746 220.027 147.429 218.549 146.796C217.071 146.163 215.91 145.248 215.066 144.051C214.221 142.855 213.799 141.395 213.799 139.671C213.799 137.911 214.221 136.469 215.066 135.343C215.91 134.182 217.071 133.319 218.549 132.757C220.027 132.158 221.681 131.859 223.51 131.859H232.219V129.959C232.219 128.129 231.674 126.687 230.583 125.631C229.527 124.576 227.944 124.048 225.833 124.048C223.757 124.048 222.138 124.558 220.977 125.578C219.816 126.564 219.024 127.901 218.602 129.59L214.696 128.323C215.118 126.88 215.787 125.578 216.702 124.417C217.617 123.221 218.831 122.271 220.344 121.567C221.892 120.828 223.739 120.459 225.886 120.459C229.193 120.459 231.762 121.321 233.591 123.045C235.421 124.734 236.336 127.127 236.336 130.223V141.888C236.336 142.943 236.829 143.471 237.814 143.471H240.189V147.007H236.547C235.386 147.007 234.454 146.691 233.75 146.057C233.046 145.389 232.694 144.509 232.694 143.418V143.154H232.061C231.674 143.823 231.146 144.527 230.477 145.265C229.844 145.969 228.964 146.55 227.838 147.007C226.712 147.5 225.252 147.746 223.458 147.746ZM223.933 144.157C226.396 144.157 228.384 143.436 229.897 141.993C231.445 140.515 232.219 138.457 232.219 135.818V135.237H223.669C222.015 135.237 220.643 135.607 219.552 136.346C218.496 137.049 217.968 138.123 217.968 139.565C217.968 141.008 218.514 142.134 219.605 142.943C220.731 143.752 222.173 144.157 223.933 144.157Z" fill="white"/>
<path d="M185.643 147.007V110.061H208.391V114.072H190.076V126.423H206.913V130.434H190.076V142.996H208.655V147.007H185.643Z" fill="white"/>
<path d="M152.414 147.007V143.154C152.414 140.515 152.871 138.404 153.786 136.82C154.736 135.237 156.038 133.97 157.692 133.02C159.381 132.035 161.387 131.19 163.709 130.487L166.612 129.589C168.195 129.097 169.585 128.499 170.782 127.795C171.978 127.056 172.91 126.141 173.579 125.05C174.248 123.924 174.582 122.552 174.582 120.933V120.722C174.582 118.4 173.773 116.57 172.154 115.233C170.535 113.861 168.459 113.175 165.926 113.175C163.252 113.175 161.07 113.896 159.381 115.339C157.692 116.746 156.848 118.893 156.848 121.778V122.517H152.625V121.831C152.625 119.157 153.206 116.887 154.367 115.022C155.528 113.157 157.112 111.75 159.117 110.8C161.123 109.814 163.392 109.322 165.926 109.322C168.459 109.322 170.694 109.797 172.629 110.747C174.599 111.697 176.13 113.016 177.221 114.705C178.312 116.394 178.857 118.365 178.857 120.617V121.092C178.857 123.485 178.382 125.473 177.432 127.056C176.482 128.604 175.162 129.871 173.473 130.856C171.82 131.841 169.867 132.686 167.615 133.39L164.765 134.287C162.97 134.85 161.475 135.448 160.278 136.081C159.117 136.68 158.237 137.454 157.639 138.404C157.041 139.354 156.742 140.638 156.742 142.257V143.154H178.54V147.007H152.414Z" fill="white"/>
<path d="M134.586 147.746C131.982 147.746 129.695 147.201 127.724 146.11C125.754 144.984 124.223 143.418 123.132 141.412C122.041 139.407 121.496 137.084 121.496 134.445V133.812C121.496 131.138 122.041 128.798 123.132 126.792C124.223 124.787 125.736 123.238 127.671 122.148C129.607 121.022 131.823 120.459 134.322 120.459C136.75 120.459 138.896 120.986 140.761 122.042C142.626 123.063 144.086 124.54 145.142 126.476C146.197 128.411 146.725 130.68 146.725 133.284V135.184H125.666C125.771 137.964 126.669 140.146 128.358 141.729C130.047 143.277 132.158 144.051 134.691 144.051C136.908 144.051 138.615 143.541 139.811 142.521C141.007 141.5 141.922 140.286 142.555 138.879L146.145 140.621C145.617 141.712 144.878 142.802 143.928 143.893C143.013 144.984 141.799 145.899 140.286 146.638C138.808 147.377 136.908 147.746 134.586 147.746ZM125.719 131.754H142.503C142.362 129.361 141.535 127.496 140.022 126.159C138.544 124.822 136.644 124.153 134.322 124.153C131.964 124.153 130.029 124.822 128.516 126.159C127.003 127.496 126.07 129.361 125.719 131.754Z" fill="white"/>
<path d="M77.3535 147.007V121.197H81.4176V124.417H82.1565C82.6491 123.502 83.4584 122.658 84.5844 121.884C85.7104 121.109 87.2938 120.722 89.3347 120.722C91.3403 120.722 92.9589 121.162 94.1904 122.042C95.4572 122.922 96.372 123.995 96.935 125.262H97.674C98.2721 123.995 99.1694 122.922 100.366 122.042C101.597 121.162 103.304 120.722 105.485 120.722C107.21 120.722 108.723 121.074 110.025 121.778C111.326 122.482 112.347 123.502 113.086 124.839C113.86 126.141 114.247 127.707 114.247 129.537V147.007H110.077V129.906C110.077 128.182 109.567 126.827 108.547 125.842C107.561 124.822 106.172 124.311 104.377 124.311C102.477 124.311 100.911 124.927 99.6796 126.159C98.4832 127.39 97.8851 129.167 97.8851 131.49V147.007H93.7154V129.906C93.7154 128.182 93.2052 126.827 92.1848 125.842C91.1996 124.822 89.8097 124.311 88.0151 124.311C86.1151 124.311 84.5492 124.927 83.3177 126.159C82.1213 127.39 81.5232 129.167 81.5232 131.49V147.007H77.3535Z" fill="white"/>
<path d="M57.9411 147.746C55.3373 147.746 53.0501 147.201 51.0796 146.11C49.1092 144.984 47.5785 143.418 46.4878 141.412C45.397 139.407 44.8516 137.084 44.8516 134.445V133.812C44.8516 131.138 45.397 128.798 46.4878 126.792C47.5785 124.787 49.0916 123.238 51.0269 122.148C52.9621 121.022 55.1789 120.459 57.6772 120.459C60.1051 120.459 62.2515 120.986 64.1164 122.042C65.9813 123.063 67.4416 124.54 68.4972 126.476C69.5528 128.411 70.0806 130.68 70.0806 133.284V135.184H49.0212C49.1268 137.964 50.024 140.146 51.713 141.729C53.402 143.277 55.5132 144.051 58.0467 144.051C60.2634 144.051 61.97 143.541 63.1663 142.521C64.3627 141.5 65.2776 140.286 65.9109 138.879L69.5 140.621C68.9722 141.712 68.2333 142.802 67.2832 143.893C66.3684 144.984 65.1544 145.899 63.6414 146.638C62.1635 147.377 60.2634 147.746 57.9411 147.746ZM49.074 131.754H65.8581C65.7174 129.361 64.8905 127.496 63.3775 126.159C61.8996 124.822 59.9995 124.153 57.6772 124.153C55.3197 124.153 53.3844 124.822 51.8713 126.159C50.3583 127.496 49.4259 129.361 49.074 131.754Z" fill="white"/>
<path d="M0.292969 147.007V110.061H8.73782L18.555 144.209H19.2411L29.0583 110.061H37.5031V147.007H33.2279V112.964H32.489L22.7246 147.007H15.0715L5.3071 112.964H4.56818V147.007H0.292969Z" fill="white"/>
</g>
</svg>
