<svg width="1em" height="1em" viewBox="0 0 20 20" fill="none" xmlns="http://www.w3.org/2000/svg">
<g id="Frame 574">
<g id="Vector 155">
<path d="M7.43393 1.80769L2.05474 9.08537L9.227 3.70623C9.64889 3.35464 10.2817 2.54601 9.54342 1.70221C8.79588 0.84788 7.75036 1.45611 7.43393 1.80769Z" fill="currentColor"/>
<path d="M1 19L18.4033 4.55002C18.8603 4.0578 19.5002 2.79914 18.4033 1.70221C17.3063 0.605279 16.118 1.03421 15.6609 1.38579L1 19Z" fill="currentColor"/>
<path d="M10.9146 17.9452C13.1142 15.1465 14.1843 13.5153 16.2938 10.6675C16.6102 10.3159 17.6557 9.70768 18.4033 10.562C19.1416 11.4058 18.5087 12.2144 18.0868 12.566L10.9146 17.9452Z" fill="currentColor"/>
</g>
</g>
</svg>
