<svg height="1em" viewBox="0 0 109 35" fill="none" xmlns="http://www.w3.org/2000/svg">
<path d="M52.7217 12.2798L49.9493 26.1487C48.379 34.0069 44.1736 34.6695 38.8596 34.7164C36.5032 34.7164 35.4862 34.6226 33.7765 34.0069C29.9413 32.445 28.5561 35.9948 23.4272 34.7164C21.3474 34.1965 18.8059 32.6346 16.4494 34.9529C18.2506 32.7753 20.8399 33.0588 23.1028 33.3911C27.7242 34.0538 28.787 28.8463 24.3507 29.3193C21.1623 29.6496 18.8974 32.965 14.5547 30.7874C11.9216 29.462 10.212 26.8583 6.8385 27.3782C5.40552 27.6147 2.03404 29.46 0 28.3243C2.17136 29.3193 4.75869 27.4251 6.42254 26.8563C9.79601 25.7206 11.5514 27.1866 13.5854 28.3243C17.144 30.3123 20.0538 28.6077 20.6548 27.2824C21.6261 25.1048 20.0538 22.6907 16.2643 23.4471C14.8791 23.7305 10.6279 25.1048 8.77899 22.8314C10.6737 24.6766 14.0472 23.2106 15.6633 22.6417C20.1453 21.0799 21.4847 22.4521 24.3507 24.2974C28.5561 26.9949 30.4031 24.5339 30.9583 22.2156C31.6967 19.1388 30.9583 18.9023 28.5561 19.0919C26.938 19.2346 25.3677 19.045 23.5188 17.2467C20.9315 14.6898 18.4815 16.0151 17.2813 17.1039C18.8994 15.4463 20.9315 14.4533 24.4442 16.2517C30.7275 19.4712 33.7785 10.0981 28.5561 9.81468C23.889 9.57816 22.8719 11.9923 17.9282 13.0811C15.9877 13.5072 12.4749 13.5541 9.93533 11.1869C13.3088 13.8375 20.1931 12.4184 20.3782 8.86657C20.5633 5.0313 12.9844 2.66611 5.82347 9.10309C9.798 5.17403 14.0472 3.70598 17.8366 3.99143C21.3952 4.27485 22.7346 6.02631 25.6921 6.7379C29.2965 7.59019 34.1009 6.54828 35.0264 4.37068C35.8583 2.42959 33.4561 1.2939 29.7582 2.85574C26.9858 4.03833 25.2304 4.37068 21.8569 2.42959C26.1081 4.6072 28.2795 2.23997 30.5901 0.961548C35.2115 -1.5953 37.7988 1.76693 42.3724 1.6711C43.5745 1.57731 44.8682 1.57731 46.2076 1.57731H51.6609L50.3215 8.15701H47.5491L48.2874 4.41757C42.7426 4.41757 41.1723 5.17403 40.1553 10.1919L38.7701 16.9143L37.0604 25.4351C35.8583 31.4459 36.2743 31.8721 38.8616 31.8721C40.9414 31.8721 42.2809 31.5418 43.3894 26.0978L45.6066 15.116H42.9735V12.2757H52.7237L52.7217 12.2798Z" fill="url(#paint0_linear_3764_6325)"/>
<path d="M74.3458 11.0483V13.8885C69.402 13.8885 63.2561 14.645 60.9454 26.3853L59.2816 34.7164H52.7197L57.3869 11.4744C59.5582 11.0482 62.6073 11.0483 63.9945 11.0483L63.3477 14.3147C66.7669 11.4275 70.833 11.0483 74.3438 11.0483H74.3458Z" fill="url(#paint1_linear_3764_6325)"/>
<path d="M77.164 11.4744C79.3353 11.0482 82.3844 11.0483 83.7716 11.0483L79.0587 34.7164H72.4968L77.164 11.4744ZM85.8972 0.633276L84.3727 8.20799L80.2608 0.633276H85.8972Z" fill="url(#paint2_linear_3764_6325)"/>
<path d="M90.3792 0.635315H97.4486L90.6101 34.7185H84.0482L90.3792 3.14527V0.635315Z" fill="url(#paint3_linear_3764_6325)"/>
<path d="M101.931 0.635315H109L102.161 34.7185H95.5996L101.931 3.14527V0.635315Z" fill="url(#paint4_linear_3764_6325)"/>
<defs>
<linearGradient id="paint0_linear_3764_6325" x1="20.002" y1="17.535" x2="150.861" y2="17.535" gradientUnits="userSpaceOnUse">
<stop stop-color="#DB4646"/>
<stop offset="1" stop-color="#F9A11E"/>
</linearGradient>
<linearGradient id="paint1_linear_3764_6325" x1="20.002" y1="17.535" x2="150.861" y2="17.535" gradientUnits="userSpaceOnUse">
<stop stop-color="#DB4646"/>
<stop offset="1" stop-color="#F9A11E"/>
</linearGradient>
<linearGradient id="paint2_linear_3764_6325" x1="20.002" y1="17.535" x2="150.861" y2="17.535" gradientUnits="userSpaceOnUse">
<stop stop-color="#DB4646"/>
<stop offset="1" stop-color="#F9A11E"/>
</linearGradient>
<linearGradient id="paint3_linear_3764_6325" x1="20.002" y1="17.535" x2="150.861" y2="17.535" gradientUnits="userSpaceOnUse">
<stop stop-color="#DB4646"/>
<stop offset="1" stop-color="#F9A11E"/>
</linearGradient>
<linearGradient id="paint4_linear_3764_6325" x1="20.002" y1="17.535" x2="150.861" y2="17.535" gradientUnits="userSpaceOnUse">
<stop stop-color="#DB4646"/>
<stop offset="1" stop-color="#F9A11E"/>
</linearGradient>
</defs>
</svg>
