<svg height="1em" viewBox="0 0 565 150" fill="none" xmlns="http://www.w3.org/2000/svg">
<path d="M532.804 38.3559L545.313 75.6834H522.672L513.453 48.1485L488.459 75.6834H477.055L510.332 38.9809L498.135 2.69521H520.775L529.683 29.0761L553.596 2.69521H565L532.828 38.3559H532.804Z" fill="#CB4131"/>
<path d="M227.513 52.6276L215.549 112.066C208.772 145.744 190.624 148.584 167.693 148.785C157.524 148.785 153.135 148.383 145.758 145.744C129.207 139.05 123.23 154.264 101.097 148.785C92.1216 146.556 81.1539 139.863 70.985 149.798C78.7577 140.466 89.9315 141.68 99.6967 143.105C119.64 145.945 124.226 123.627 105.082 125.654C91.3228 127.07 81.549 141.278 62.8086 131.946C51.4458 126.266 44.0682 115.107 29.5105 117.335C23.3267 118.349 8.77757 126.257 0 121.39C9.37019 125.654 20.5354 117.536 27.7155 115.098C42.2732 110.231 49.8484 116.514 58.6259 121.39C73.9824 129.91 86.539 122.604 89.1327 116.925C93.324 107.592 86.539 97.2457 70.1862 100.488C64.2085 101.702 45.8632 107.592 37.8844 97.8487C46.0608 105.757 60.6185 99.474 67.5925 97.036C86.934 90.3424 92.7142 96.2234 105.082 104.132C123.23 115.692 131.2 105.145 133.596 95.2097C136.782 82.0235 133.596 81.0098 123.23 81.8225C116.247 82.4342 109.471 81.6215 101.492 73.9143C90.3265 62.9564 79.754 68.6363 74.575 73.3026C81.5576 66.1983 90.3265 61.9427 105.485 69.65C132.6 83.4479 145.766 43.2776 123.23 42.0629C103.089 41.0493 98.7005 51.3955 77.3663 56.0618C68.9924 57.8881 53.8335 58.0891 42.8744 47.9439C57.4321 59.3037 87.1402 53.2218 87.9389 37.9996C88.7377 21.5627 56.0322 11.4262 25.1303 39.0132C42.2818 22.1744 60.6185 15.8828 76.9712 17.1061C92.3277 18.3208 98.1078 25.827 110.871 28.8767C126.425 32.5294 147.157 28.0641 151.151 18.7315C154.741 10.4125 144.375 5.54527 128.417 12.2389C116.453 17.3071 108.878 18.7315 94.3203 10.4125C112.666 19.7451 122.036 9.59988 132.007 4.12092C151.95 -6.837 163.115 7.57257 182.852 7.16187C188.039 6.75991 193.622 6.75991 199.402 6.75991H222.935L217.155 34.9586H205.191L208.377 18.9325C184.449 18.9325 177.673 22.1744 173.284 43.6795L167.306 72.4899L159.929 109.008C154.741 134.768 156.536 136.595 167.701 136.595C176.677 136.595 182.457 135.179 187.241 111.848L196.808 64.7827H185.446V52.6101H227.521L227.513 52.6276Z" fill="url(#paint0_linear_8801_115638)"/>
<path d="M320.828 47.3496V59.5222C299.494 59.5222 272.972 62.7641 263.001 113.08L255.821 148.785H227.504L247.644 49.176C257.015 47.3496 270.172 47.3496 276.159 47.3496L273.367 61.3485C288.123 48.975 305.669 47.3496 320.819 47.3496H320.828Z" fill="url(#paint1_linear_8801_115638)"/>
<path d="M332.99 49.176C342.36 47.3496 355.517 47.3496 361.504 47.3496L341.166 148.785H312.849L332.99 49.176ZM370.676 2.71404L364.097 35.1771L346.353 2.71404H370.676Z" fill="url(#paint2_linear_8801_115638)"/>
<path d="M390.018 2.72278H420.525L391.014 148.793H362.698L390.018 13.4797V2.72278Z" fill="url(#paint3_linear_8801_115638)"/>
<path d="M439.866 2.72278H470.373L440.863 148.793H412.546L439.866 13.4797V2.72278Z" fill="url(#paint4_linear_8801_115638)"/>
<defs>
<linearGradient id="paint0_linear_8801_115638" x1="86.3157" y1="75.15" x2="651.018" y2="75.15" gradientUnits="userSpaceOnUse">
<stop stop-color="#C43333"/>
<stop offset="1" stop-color="#F9A11E"/>
</linearGradient>
<linearGradient id="paint1_linear_8801_115638" x1="86.3157" y1="75.15" x2="651.018" y2="75.15" gradientUnits="userSpaceOnUse">
<stop stop-color="#C43333"/>
<stop offset="1" stop-color="#F9A11E"/>
</linearGradient>
<linearGradient id="paint2_linear_8801_115638" x1="86.3157" y1="75.15" x2="651.018" y2="75.15" gradientUnits="userSpaceOnUse">
<stop stop-color="#C43333"/>
<stop offset="1" stop-color="#F9A11E"/>
</linearGradient>
<linearGradient id="paint3_linear_8801_115638" x1="86.3157" y1="75.15" x2="651.018" y2="75.15" gradientUnits="userSpaceOnUse">
<stop stop-color="#C43333"/>
<stop offset="1" stop-color="#F9A11E"/>
</linearGradient>
<linearGradient id="paint4_linear_8801_115638" x1="86.3157" y1="75.15" x2="651.018" y2="75.15" gradientUnits="userSpaceOnUse">
<stop stop-color="#C43333"/>
<stop offset="1" stop-color="#F9A11E"/>
</linearGradient>
</defs>
</svg>
