<svg height="1em" viewBox="0 0 126 41" fill="none" xmlns="http://www.w3.org/2000/svg">
<path d="M60.9444 14.7586L57.7396 30.6089C55.9243 39.5896 51.063 40.3469 44.9203 40.4005C42.1963 40.4005 41.0207 40.2933 39.0444 39.5896C34.6111 37.8046 33.0098 41.8616 27.081 40.4005C24.6768 39.8063 21.7389 38.0213 19.0149 40.6708C21.097 38.1821 24.0902 38.506 26.706 38.8859C32.0481 39.6432 33.2767 33.6918 28.1485 34.2324C24.4629 34.6099 21.8447 38.3988 16.8247 35.9102C13.7809 34.3955 11.8047 31.4198 7.90505 32.014C6.24858 32.2843 2.35127 34.3932 0 33.0952C2.51002 34.2324 5.50087 32.0676 7.42422 31.4175C11.3238 30.1195 13.353 31.795 15.7043 33.0952C19.8178 35.3672 23.1814 33.4191 23.8762 31.9045C24.9989 29.4158 23.1814 26.6568 18.801 27.5213C17.1997 27.8452 12.2855 29.4158 10.1482 26.8176C12.3384 28.9265 16.238 27.251 18.1062 26.6009C23.2872 24.8159 24.8356 26.3842 28.1485 28.493C33.0098 31.5759 35.1448 28.7633 35.7867 26.1139C36.6402 22.5975 35.7867 22.3272 33.0098 22.5439C31.1394 22.7071 29.3242 22.4904 27.1868 20.4351C24.196 17.513 21.3639 19.0276 19.9766 20.272C21.847 18.3775 24.196 17.2427 28.2567 19.2979C35.5198 22.9774 39.0467 12.2653 33.0098 11.9414C27.6148 11.6711 26.4391 14.4301 20.7243 15.6744C18.4812 16.1614 14.4205 16.215 11.4849 13.5096C15.3845 16.5389 23.3425 14.9171 23.5564 10.8578C23.7704 6.47467 15.0095 3.7716 6.73172 11.1281C11.3261 6.63778 16.238 4.96001 20.6185 5.28625C24.732 5.61015 26.2804 7.61182 29.6992 8.42507C33.8657 9.39911 39.4194 8.20836 40.4892 5.71967C41.4509 3.50129 38.674 2.20335 34.3994 3.98831C31.1946 5.33984 29.1654 5.71967 25.2658 3.50129C30.18 5.98998 32.69 3.28458 35.3611 1.82352C40.7032 -1.09859 43.694 2.74396 48.981 2.63444C50.3706 2.52725 51.866 2.52725 53.4143 2.52725H59.7181L58.1698 10.0469H54.965L55.8185 5.77326C49.4089 5.77326 47.5937 6.63778 46.418 12.3725L44.8168 20.0553L42.8405 29.7933C41.4509 36.6628 41.9317 37.1498 44.9226 37.1498C47.3268 37.1498 48.8751 36.7723 50.1566 30.5506L52.7195 18H49.6758V14.754H60.9467L60.9444 14.7586Z" fill="url(#paint0_linear_8031_110311)"/>
<path d="M85.941 13.3512V16.5972C80.2262 16.5972 73.1217 17.4617 70.4507 30.8792L68.5273 40.4005H60.9421L66.3371 13.8382C68.8471 13.3512 72.3717 13.3512 73.9753 13.3512L73.2276 17.0842C77.1801 13.7846 81.8803 13.3512 85.9387 13.3512H85.941Z" fill="url(#paint1_linear_8031_110311)"/>
<path d="M89.1987 13.8382C91.7087 13.3512 95.2333 13.3512 96.8369 13.3512L91.3889 40.4005H83.8037L89.1987 13.8382ZM99.294 1.44835L97.5317 10.1052L92.7785 1.44835H99.294Z" fill="url(#paint2_linear_8031_110311)"/>
<path d="M104.475 1.45068H112.647L104.742 40.4028H97.1567L104.475 4.3192V1.45068Z" fill="url(#paint3_linear_8031_110311)"/>
<path d="M117.828 1.45068H126L118.095 40.4028H110.51L117.828 4.3192V1.45068Z" fill="url(#paint4_linear_8031_110311)"/>
<defs>
<linearGradient id="paint0_linear_8031_110311" x1="23.1216" y1="20.7646" x2="174.39" y2="20.7646" gradientUnits="userSpaceOnUse">
<stop stop-color="#C43333"/>
<stop offset="1" stop-color="#F9A11E"/>
</linearGradient>
<linearGradient id="paint1_linear_8031_110311" x1="23.1216" y1="20.7646" x2="174.39" y2="20.7646" gradientUnits="userSpaceOnUse">
<stop stop-color="#C43333"/>
<stop offset="1" stop-color="#F9A11E"/>
</linearGradient>
<linearGradient id="paint2_linear_8031_110311" x1="23.1216" y1="20.7646" x2="174.39" y2="20.7646" gradientUnits="userSpaceOnUse">
<stop stop-color="#C43333"/>
<stop offset="1" stop-color="#F9A11E"/>
</linearGradient>
<linearGradient id="paint3_linear_8031_110311" x1="23.1216" y1="20.7646" x2="174.39" y2="20.7646" gradientUnits="userSpaceOnUse">
<stop stop-color="#C43333"/>
<stop offset="1" stop-color="#F9A11E"/>
</linearGradient>
<linearGradient id="paint4_linear_8031_110311" x1="23.1216" y1="20.7646" x2="174.39" y2="20.7646" gradientUnits="userSpaceOnUse">
<stop stop-color="#C43333"/>
<stop offset="1" stop-color="#F9A11E"/>
</linearGradient>
</defs>
</svg>
