<svg width="20" height="20" viewBox="0 0 20 20" fill="none" xmlns="http://www.w3.org/2000/svg">
<g id="Frame" clip-path="url(#clip0_3407_397)">
<path id="Vector" d="M3 9C4.10313 9 5 8.10313 5 7C5 5.89688 4.10313 5 3 5C1.89688 5 1 5.89688 1 7C1 8.10313 1.89688 9 3 9ZM17 9C18.1031 9 19 8.10313 19 7C19 5.89688 18.1031 5 17 5C15.8969 5 15 5.89688 15 7C15 8.10313 15.8969 9 17 9ZM18 10H16C15.45 10 14.9531 10.2219 14.5906 10.5813C15.85 11.2719 16.7437 12.5188 16.9375 14H19C19.5531 14 20 13.5531 20 13V12C20 10.8969 19.1031 10 18 10ZM10 10C11.9344 10 13.5 8.43438 13.5 6.5C13.5 4.56563 11.9344 3 10 3C8.06563 3 6.5 4.56563 6.5 6.5C6.5 8.43438 8.06563 10 10 10ZM12.4 11H12.1406C11.4906 11.3125 10.7688 11.5 10 11.5C9.23125 11.5 8.5125 11.3125 7.85938 11H7.6C5.6125 11 4 12.6125 4 14.6V15.5C4 16.3281 4.67188 17 5.5 17H14.5C15.3281 17 16 16.3281 16 15.5V14.6C16 12.6125 14.3875 11 12.4 11ZM5.40938 10.5813C5.04688 10.2219 4.55 10 4 10H2C0.896875 10 0 10.8969 0 12V13C0 13.5531 0.446875 14 1 14H3.05938C3.25625 12.5188 4.15 11.2719 5.40938 10.5813Z" fill="#94A3B8"/>
</g>
<defs>
<clipPath id="clip0_3407_397">
<rect width="20" height="20" fill="white"/>
</clipPath>
</defs>
</svg>
