<svg width="20" height="20" viewBox="0 0 20 20" fill="none" xmlns="http://www.w3.org/2000/svg">
<g id="Frame">
<path id="Vector" d="M4.0625 19.375H2.8125C2.56386 19.375 2.3254 19.2762 2.14959 19.1004C1.97377 18.9246 1.875 18.6861 1.875 18.4375V12.8125C1.875 12.5639 1.97377 12.3254 2.14959 12.1496C2.3254 11.9738 2.56386 11.875 2.8125 11.875H4.0625C4.31114 11.875 4.5496 11.9738 4.72541 12.1496C4.90123 12.3254 5 12.5639 5 12.8125V18.4375C5 18.6861 4.90123 18.9246 4.72541 19.1004C4.5496 19.2762 4.31114 19.375 4.0625 19.375ZM12.8125 19.375H11.5625C11.3139 19.375 11.0754 19.2762 10.8996 19.1004C10.7238 18.9246 10.625 18.6861 10.625 18.4375V9.0625C10.625 8.81386 10.7238 8.5754 10.8996 8.39959C11.0754 8.22377 11.3139 8.125 11.5625 8.125H12.8125C13.0611 8.125 13.2996 8.22377 13.4754 8.39959C13.6512 8.5754 13.75 8.81386 13.75 9.0625V18.4375C13.75 18.6861 13.6512 18.9246 13.4754 19.1004C13.2996 19.2762 13.0611 19.375 12.8125 19.375ZM17.1875 19.375H15.9375C15.6889 19.375 15.4504 19.2762 15.2746 19.1004C15.0988 18.9246 15 18.6861 15 18.4375V4.6875C15 4.43886 15.0988 4.2004 15.2746 4.02459C15.4504 3.84877 15.6889 3.75 15.9375 3.75H17.1875C17.4361 3.75 17.6746 3.84877 17.8504 4.02459C18.0262 4.2004 18.125 4.43886 18.125 4.6875V18.4375C18.125 18.6861 18.0262 18.9246 17.8504 19.1004C17.6746 19.2762 17.4361 19.375 17.1875 19.375ZM8.4375 19.375H7.1875C6.93886 19.375 6.7004 19.2762 6.52459 19.1004C6.34877 18.9246 6.25 18.6861 6.25 18.4375V1.5625C6.25 1.31386 6.34877 1.0754 6.52459 0.899587C6.7004 0.723772 6.93886 0.625 7.1875 0.625H8.4375C8.68614 0.625 8.9246 0.723772 9.10041 0.899587C9.27623 1.0754 9.375 1.31386 9.375 1.5625V18.4375C9.375 18.6861 9.27623 18.9246 9.10041 19.1004C8.9246 19.2762 8.68614 19.375 8.4375 19.375Z" fill="#0053FF"/>
</g>
</svg>
