<svg width="20" height="20" viewBox="0 0 20 20" fill="none" xmlns="http://www.w3.org/2000/svg">
<g id="Frame">
<path id="Vector" d="M4.75466 1.25001C4.72874 1.24977 4.70317 1.25598 4.68025 1.26809C4.65733 1.2802 4.63778 1.29782 4.62336 1.31936C4.60895 1.34091 4.60012 1.3657 4.59767 1.39151C4.59523 1.41731 4.59924 1.44332 4.60935 1.46719L4.69919 1.6793L6.28904 5.38633C6.29984 5.41155 6.31709 5.43347 6.33906 5.4499C6.36102 5.46634 6.38693 5.4767 6.41417 5.47994C6.4414 5.48319 6.46902 5.47921 6.49423 5.4684C6.51944 5.45759 6.54136 5.44033 6.55779 5.41837L9.49216 1.50001C9.50957 1.47679 9.52018 1.44919 9.52278 1.42029C9.52539 1.39139 9.51989 1.36233 9.50692 1.33638C9.49394 1.31043 9.47399 1.2886 9.44931 1.27334C9.42462 1.25809 9.39618 1.25001 9.36716 1.25001H4.75466ZM16.4035 2.26798L14.791 6.03243C14.7808 6.05619 14.7768 6.0821 14.7791 6.10784C14.7814 6.13357 14.7901 6.15833 14.8043 6.17989C14.8186 6.20145 14.8379 6.21914 14.8607 6.23137C14.8835 6.24361 14.9089 6.25001 14.9347 6.25001H18.8801C18.9079 6.25002 18.9353 6.24258 18.9593 6.22847C18.9833 6.21435 19.0031 6.19408 19.0167 6.16973C19.0302 6.14539 19.037 6.11787 19.0363 6.09002C19.0357 6.06217 19.0276 6.035 19.0129 6.01133L16.6797 2.24727C16.6646 2.22304 16.6432 2.2034 16.6177 2.19048C16.5923 2.17756 16.5638 2.17186 16.5353 2.17399C16.5068 2.17612 16.4795 2.18601 16.4563 2.20258C16.433 2.21915 16.4148 2.24177 16.4035 2.26798ZM3.32029 2.24883L0.987866 6.01133C0.973171 6.035 0.965071 6.06217 0.964404 6.09002C0.963737 6.11787 0.970529 6.14539 0.984075 6.16973C0.997621 6.19408 1.01743 6.21435 1.04145 6.22847C1.06547 6.24258 1.09282 6.25002 1.12068 6.25001H5.06599C5.09185 6.24998 5.11729 6.24353 5.14004 6.23124C5.1628 6.21896 5.18214 6.20122 5.19635 6.17962C5.21056 6.15801 5.21919 6.13322 5.22145 6.10747C5.22372 6.08171 5.21956 6.05579 5.20935 6.03204L3.59373 2.26954C3.58217 2.24398 3.56395 2.222 3.54097 2.20591C3.518 2.18983 3.49111 2.18022 3.46315 2.1781C3.43518 2.17598 3.40715 2.18143 3.38202 2.19388C3.35688 2.20633 3.33556 2.22531 3.32029 2.24883ZM15.3621 1.25001H10.4617C10.4476 1.24992 10.4337 1.25378 10.4216 1.26117C10.4096 1.26856 10.3998 1.27917 10.3935 1.29181C10.3871 1.30445 10.3844 1.31861 10.3857 1.33269C10.387 1.34677 10.3922 1.36021 10.4008 1.37149L13.5226 5.53009C13.5306 5.54077 13.5412 5.54916 13.5535 5.55441C13.5657 5.55967 13.5792 5.5616 13.5924 5.56002C13.6056 5.55843 13.6182 5.55339 13.6289 5.54539C13.6395 5.53739 13.6479 5.52672 13.6531 5.51446L15.2969 1.67969L15.4297 1.35391C15.4343 1.34273 15.4362 1.33058 15.4352 1.3185C15.4342 1.30643 15.4302 1.29478 15.4237 1.28457C15.4171 1.27435 15.4082 1.26587 15.3977 1.25985C15.3872 1.25383 15.3754 1.25046 15.3633 1.25001H15.3621ZM9.33591 17.5L5.84255 7.59805C5.8323 7.5693 5.81338 7.54443 5.78841 7.52687C5.76343 7.50931 5.73363 7.49993 5.7031 7.50001H1.00388C0.97666 7.49993 0.949964 7.5075 0.926835 7.52185C0.903706 7.53621 0.885075 7.55677 0.873064 7.5812C0.861053 7.60563 0.856145 7.63294 0.858901 7.66003C0.861656 7.68711 0.871963 7.71287 0.888647 7.73438L9.32615 18.6645C9.35471 18.7015 9.39546 18.7271 9.44115 18.7369C9.48685 18.7467 9.53454 18.74 9.57576 18.718C9.61721 18.6962 9.64945 18.6602 9.66659 18.6166C9.68372 18.573 9.68462 18.5247 9.66912 18.4805L9.33591 17.5ZM18.9961 7.50001H14.2969C14.2665 7.5 14.2369 7.50943 14.2121 7.527C14.1873 7.54456 14.1686 7.56939 14.1586 7.59805L10.3226 18.4637C10.3065 18.5093 10.3072 18.5592 10.3245 18.6043C10.3418 18.6495 10.3747 18.687 10.4172 18.7102C10.4597 18.7332 10.5089 18.7404 10.5562 18.7304C10.6035 18.7205 10.6457 18.694 10.6754 18.6559L19.1113 7.73438C19.128 7.71287 19.1383 7.68711 19.1411 7.66003C19.1438 7.63294 19.1389 7.60563 19.1269 7.5812C19.1149 7.55677 19.0962 7.53621 19.0731 7.52185C19.05 7.5075 19.0233 7.49993 18.9961 7.50001ZM10.125 3.08321L12.3125 6.00001C12.3299 6.02322 12.3405 6.05082 12.3431 6.07972C12.3457 6.10862 12.3402 6.13768 12.3272 6.16363C12.3143 6.18959 12.2943 6.21142 12.2696 6.22667C12.2449 6.24193 12.2165 6.25001 12.1875 6.25001H7.81248C7.78346 6.25001 7.75501 6.24193 7.73033 6.22667C7.70565 6.21142 7.6857 6.18959 7.67272 6.16363C7.65974 6.13768 7.65425 6.10862 7.65686 6.07972C7.65946 6.05082 7.67007 6.02322 7.68748 6.00001L9.87498 3.08321C9.88953 3.0638 9.9084 3.04805 9.9301 3.03721C9.95179 3.02636 9.97572 3.02071 9.99998 3.02071C10.0242 3.02071 10.0482 3.02636 10.0699 3.03721C10.0915 3.04805 10.1104 3.0638 10.125 3.08321ZM9.85154 15.2047L7.20701 7.70821C7.1987 7.68465 7.19617 7.65945 7.19961 7.63471C7.20305 7.60997 7.21238 7.58642 7.2268 7.56603C7.24123 7.54564 7.26033 7.529 7.28251 7.51751C7.30469 7.50602 7.3293 7.50002 7.35427 7.50001H12.6457C12.6707 7.50002 12.6953 7.50602 12.7174 7.51751C12.7396 7.529 12.7587 7.54564 12.7732 7.56603C12.7876 7.58642 12.7969 7.60997 12.8003 7.63471C12.8038 7.65945 12.8012 7.68465 12.7929 7.70821L10.1472 15.2047C10.1364 15.2351 10.1165 15.2615 10.0901 15.2801C10.0638 15.2987 10.0323 15.3087 9.99998 15.3087C9.96769 15.3087 9.93619 15.2987 9.90982 15.2801C9.88345 15.2615 9.8635 15.2351 9.85271 15.2047H9.85154Z" fill="#94A3B8"/>
</g>
</svg>
