<svg width="20" height="20" viewBox="0 0 20 20" fill="none" xmlns="http://www.w3.org/2000/svg">
<g id="Frame">
<path id="Vector" d="M10.3282 3.71144C8.93756 3.70909 7.19537 4.14854 5.47662 5.04308C3.7606 5.93761 2.40045 7.10948 1.60201 8.25401C0.80318 9.39464 0.587165 10.4571 0.980134 11.215C1.37349 11.9689 2.36802 12.4025 3.76216 12.4025C5.15631 12.4064 6.89849 11.965 8.61334 11.0743C10.3321 10.1798 11.6915 9.00401 12.4883 7.86339C13.2891 6.72276 13.5001 5.66026 13.1094 4.90245C12.7149 4.14854 11.7227 3.71144 10.3282 3.71144ZM13.918 6.45714C13.7813 7.05479 13.4844 7.66808 13.0665 8.26573C12.1836 9.52745 10.7422 10.7579 8.93756 11.6954C7.13287 12.6368 5.30084 13.1095 3.76177 13.1095C3.03521 13.1095 2.36177 13.0001 1.7942 12.7696L2.20787 13.5665C2.60162 14.3243 3.59341 14.7579 4.98834 14.7579C6.38287 14.7579 8.12506 14.3204 9.8399 13.4259C11.5586 12.5353 12.918 11.3595 13.7149 10.215C14.5118 9.07433 14.7305 8.01183 14.336 7.25792L13.918 6.45714ZM15.043 7.11339C15.4805 8.15636 15.129 9.42589 14.293 10.6173C13.5547 11.6759 12.4258 12.7032 11.0274 13.5626C11.461 13.6095 11.9141 13.6329 12.3751 13.6329C14.3086 13.6329 16.0587 13.2189 17.293 12.5743C18.5313 11.9298 19.211 11.086 19.211 10.2345C19.211 9.38292 18.5313 8.53917 17.293 7.89464C16.6641 7.56651 15.8985 7.29698 15.043 7.11339ZM19.211 11.9884C18.8126 12.4532 18.2657 12.8634 17.6211 13.1993C16.254 13.9103 14.4102 14.336 12.3751 14.336C11.5469 14.336 10.7501 14.2657 10.004 14.1329C9.09771 14.5899 8.18756 14.9298 7.31256 15.1525C7.35943 15.1798 7.40631 15.2032 7.45709 15.2306C8.69146 15.8751 10.4415 16.2892 12.3751 16.2892C14.3086 16.2892 16.0587 15.8751 17.293 15.2306C18.5313 14.586 19.211 13.7423 19.211 12.8907V11.9884Z" fill="white"/>
</g>
</svg>
